<svg xmlns="http://www.w3.org/2000/svg" xmlns:xlink="http://www.w3.org/1999/xlink" width="108" height="108" viewBox="0 0 108 108">
  <defs>
    <filter id="Trazado_904820" x="0" y="0" width="108" height="108" filterUnits="userSpaceOnUse">
      <feOffset dy="3" input="SourceAlpha"/>
      <feGaussianBlur stdDeviation="3" result="blur"/>
      <feFlood flood-opacity="0.161"/>
      <feComposite operator="in" in2="blur"/>
      <feComposite in="SourceGraphic"/>
    </filter>
  </defs>
  <g id="Grupo_1173890" data-name="Grupo 1173890" transform="translate(-1282 -1324)">
    <g id="Grupo_1172098" data-name="Grupo 1172098" transform="translate(1291 1330)">
      <g id="Grupo_1171910" data-name="Grupo 1171910" transform="translate(0)">
        <g id="Grupo_1167341" data-name="Grupo 1167341">
          <g id="Grupo_1166792" data-name="Grupo 1166792">
            <g transform="matrix(1, 0, 0, 1, -9, -6)" filter="url(#Trazado_904820)">
              <g id="Trazado_904820-2" data-name="Trazado 904820" transform="translate(9 6)" fill="#f9f7f4">
                <path d="M 44.99999618530273 88.50003051757812 C 39.12687301635742 88.50003051757812 33.43022155761719 87.35010528564453 28.06829643249512 85.08219909667969 C 22.88852119445801 82.89134216308594 18.23629570007324 79.75461578369141 14.24084663391113 75.75916290283203 C 10.24540901184082 71.76371765136719 7.108683586120605 67.11150360107422 4.917821407318115 61.93172836303711 C 2.649921178817749 56.56978988647461 1.499996185302734 50.87313842773438 1.499996185302734 45.00001525878906 C 1.499996185302734 39.12689208984375 2.649921178817749 33.43024063110352 4.917821407318115 28.06831550598145 C 7.108683586120605 22.88854026794434 10.24540901184082 18.23631477355957 14.24084663391113 14.24086570739746 C 18.23629570007324 10.24541568756104 22.88852119445801 7.10869026184082 28.06829643249512 4.917840480804443 C 33.43022155761719 2.649927854537964 39.12687301635742 1.50000274181366 44.99999618530273 1.50000274181366 C 50.87311935424805 1.50000274181366 56.56977081298828 2.649927854537964 61.93169784545898 4.917840480804443 C 67.11147308349609 7.10869026184082 71.76369476318359 10.24541568756104 75.75914764404297 14.24086570739746 C 79.75458526611328 18.23631477355957 82.89131164550781 22.88854026794434 85.08216857910156 28.06831550598145 C 87.35007476806641 33.43024063110352 88.5 39.12689208984375 88.5 45.00001525878906 C 88.5 50.87313842773438 87.35007476806641 56.56978988647461 85.08216857910156 61.93172836303711 C 82.89131164550781 67.11150360107422 79.75458526611328 71.76371765136719 75.75914764404297 75.75916290283203 C 71.76369476318359 79.75461578369141 67.11147308349609 82.89134216308594 61.93169784545898 85.08219909667969 C 56.56977081298828 87.35010528564453 50.87311935424805 88.50003051757812 44.99999618530273 88.50003051757812 Z" stroke="none"/>
                <path d="M 44.99999618530273 3 C 39.32870864868164 3 33.82865142822266 4.110061645507812 28.65262603759766 6.299346923828125 C 23.65165710449219 8.414573669433594 19.15968322753906 11.44334411621094 15.301513671875 15.301513671875 C 11.44333648681641 19.15968322753906 8.414566040039062 23.65165710449219 6.299339294433594 28.65262985229492 C 4.110054016113281 33.82867050170898 2.999992370605469 39.32872772216797 2.999992370605469 45.00001525878906 C 2.999992370605469 50.67130279541016 4.110054016113281 56.17136001586914 6.299339294433594 61.34738922119141 C 8.414566040039062 66.34837341308594 11.44333648681641 70.84033203125 15.301513671875 74.69850158691406 C 19.15968322753906 78.55668640136719 23.65165710449219 81.58545684814453 28.65262603759766 83.70068359375 C 33.82865142822266 85.88996887207031 39.32870864868164 87.00003051757812 44.99999618530273 87.00003051757812 C 50.67128372192383 87.00003051757812 56.17134094238281 85.88996887207031 61.34736633300781 83.70068359375 C 66.34834289550781 81.58545684814453 70.84030914306641 78.55668640136719 74.69847869873047 74.69850158691406 C 78.55665588378906 70.84033203125 81.58542633056641 66.34837341308594 83.70065307617188 61.34738922119141 C 85.88993835449219 56.17136001586914 87 50.67130279541016 87 45.00001525878906 C 87 39.32872772216797 85.88993835449219 33.82867050170898 83.70065307617188 28.65262985229492 C 81.58542633056641 23.65165710449219 78.55665588378906 19.15968322753906 74.69847869873047 15.301513671875 C 70.84030914306641 11.44334411621094 66.34834289550781 8.414573669433594 61.34736633300781 6.299346923828125 C 56.17134094238281 4.110061645507812 50.67128372192383 3 44.99999618530273 3 M 44.99999618530273 0 C 69.85281372070312 0 90 20.14718627929688 90 45.00001525878906 C 90 69.85282897949219 69.85281372070312 90.00003051757812 44.99999618530273 90.00003051757812 C 20.14717864990234 90.00003051757812 -7.62939453125e-06 69.85282897949219 -7.62939453125e-06 45.00001525878906 C -7.62939453125e-06 20.14718627929688 20.14717864990234 0 44.99999618530273 0 Z" stroke="none" fill="#9d978d"/>
              </g>
            </g>
          </g>
        </g>
      </g>
    </g>
    <g id="sausage_18782626" transform="translate(1298.801 1346.84)">
      <path id="Trazado_982599" data-name="Trazado 982599" d="M7.384,21.783,3.1,23.21A1.6,1.6,0,0,1,1,21.7v-3.02a1.6,1.6,0,0,1,2.1-1.514l4.284,1.428Z" transform="translate(0.048 0.501)" fill="#fa5450"/>
      <path id="Trazado_982600" data-name="Trazado 982600" d="M16.64,10H56.006V31.279H16.64A10.64,10.64,0,0,1,16.64,10Z" transform="translate(0.368 0.048)" fill="#fc6c68"/>
      <circle id="Elipse_11705" data-name="Elipse 11705" cx="10.64" cy="10.64" r="10.64" transform="translate(45.734 10.048)" fill="#ff8583"/>
      <g id="Grupo_1173889" data-name="Grupo 1173889" transform="translate(17.007 13.24)">
        <circle id="Elipse_11706" data-name="Elipse 11706" cx="2.128" cy="2.128" r="2.128" transform="translate(37.239)" fill="#fc6c68"/>
        <circle id="Elipse_11707" data-name="Elipse 11707" cx="2.66" cy="2.66" r="2.66" transform="translate(40.43 7.448)" fill="#fc6c68"/>
        <circle id="Elipse_11708" data-name="Elipse 11708" cx="1.596" cy="1.596" r="1.596" transform="translate(32.983 7.448)" fill="#fc6c68"/>
        <path id="Trazado_982601" data-name="Trazado 982601" d="M16,44.64a10.64,10.64,0,0,0,10.64,10.64H30.9V34H26.64A10.64,10.64,0,0,0,16,44.64Z" transform="translate(-16 -11.657)" fill="#fc6c68"/>
      </g>
      <circle id="Elipse_11709" data-name="Elipse 11709" cx="10.64" cy="10.64" r="10.64" transform="translate(21.263 35.583)" fill="#ff8583"/>
      <circle id="Elipse_11710" data-name="Elipse 11710" cx="2.128" cy="2.128" r="2.128" transform="translate(29.775 38.775)" fill="#fc6c68"/>
      <circle id="Elipse_11711" data-name="Elipse 11711" cx="2.66" cy="2.66" r="2.66" transform="translate(32.967 46.223)" fill="#fc6c68"/>
      <circle id="Elipse_11712" data-name="Elipse 11712" cx="1.596" cy="1.596" r="1.596" transform="translate(25.519 46.223)" fill="#fc6c68"/>
      <path id="Trazado_982602" data-name="Trazado 982602" d="M39,44.64a10.64,10.64,0,0,0,10.64,10.64H53.9V34H49.64A10.64,10.64,0,0,0,39,44.64Z" transform="translate(2.478 1.583)" fill="#fc6c68"/>
      <circle id="Elipse_11713" data-name="Elipse 11713" cx="10.64" cy="10.64" r="10.64" transform="translate(45.734 35.583)" fill="#ff8583"/>
      <circle id="Elipse_11714" data-name="Elipse 11714" cx="2.128" cy="2.128" r="2.128" transform="translate(54.246 38.775)" fill="#fc6c68"/>
      <circle id="Elipse_11715" data-name="Elipse 11715" cx="2.66" cy="2.66" r="2.66" transform="translate(57.438 46.223)" fill="#fc6c68"/>
      <circle id="Elipse_11716" data-name="Elipse 11716" cx="1.596" cy="1.596" r="1.596" transform="translate(49.99 46.223)" fill="#fc6c68"/>
      <path id="Trazado_982603" data-name="Trazado 982603" d="M56.374,32.125a11.438,11.438,0,0,0,0-22.875H17.007A11.447,11.447,0,0,0,5.963,17.762L3.4,16.911A2.393,2.393,0,0,0,.25,19.178V22.2a2.393,2.393,0,0,0,3.15,2.27l2.563-.851a11.447,11.447,0,0,0,11.044,8.512ZM5.656,22.035l-2.76.919a.8.8,0,0,1-1.05-.756v-3.02a.8.8,0,0,1,1.05-.756l2.76.919a10.569,10.569,0,0,0,0,2.694Zm60.56-1.347a9.842,9.842,0,1,1-9.842-9.842,9.842,9.842,0,0,1,9.842,9.842Zm-59.05,0a9.852,9.852,0,0,1,9.842-9.842H50.575a11.408,11.408,0,0,0,0,19.683h-5.9a9.852,9.852,0,0,1-9.842-9.842.8.8,0,1,0-1.6,0,11.433,11.433,0,0,0,5.639,9.842H35.095a9.852,9.852,0,0,1-9.842-9.842.8.8,0,1,0-1.6,0A11.433,11.433,0,0,0,29.3,30.529H25.519a9.852,9.852,0,0,1-9.842-9.842.8.8,0,0,0-1.6,0,11.433,11.433,0,0,0,5.639,9.842H17.007A9.852,9.852,0,0,1,7.166,20.688Z" transform="translate(0 0)"/>
      <path id="Trazado_982604" data-name="Trazado 982604" d="M53.176,18.1a2.926,2.926,0,1,0-2.926-2.926A2.926,2.926,0,0,0,53.176,18.1Zm0-4.256a1.33,1.33,0,1,1-1.33,1.33,1.33,1.33,0,0,1,1.33-1.33Z" transform="translate(3.198 0.192)"/>
      <path id="Trazado_982605" data-name="Trazado 982605" d="M53.25,22.708a3.458,3.458,0,1,0,3.458-3.458,3.458,3.458,0,0,0-3.458,3.458Zm3.458-1.862a1.862,1.862,0,1,1-1.862,1.862A1.862,1.862,0,0,1,56.708,20.846Z" transform="translate(3.39 0.64)"/>
      <path id="Trazado_982606" data-name="Trazado 982606" d="M48.644,24.038a2.394,2.394,0,1,0-2.394-2.394A2.394,2.394,0,0,0,48.644,24.038Zm0-3.192a.8.8,0,1,1-.8.8.8.8,0,0,1,.8-.8Z" transform="translate(2.942 0.64)"/>
      <circle id="Elipse_11717" data-name="Elipse 11717" cx="0.798" cy="0.798" r="0.798" transform="translate(54.512 26.273)"/>
      <circle id="Elipse_11718" data-name="Elipse 11718" cx="0.798" cy="0.798" r="0.798" transform="translate(61.96 16.698)"/>
      <circle id="Elipse_11719" data-name="Elipse 11719" cx="0.798" cy="0.798" r="0.798" transform="translate(50.256 16.698)"/>
      <path id="Trazado_982607" data-name="Trazado 982607" d="M33.1,39.176A2.926,2.926,0,1,0,30.176,42.1,2.926,2.926,0,0,0,33.1,39.176Zm-2.926,1.33a1.33,1.33,0,1,1,1.33-1.33,1.33,1.33,0,0,1-1.33,1.33Z" transform="translate(1.727 1.727)"/>
      <path id="Trazado_982608" data-name="Trazado 982608" d="M33.708,43.25a3.458,3.458,0,1,0,3.458,3.458,3.458,3.458,0,0,0-3.458-3.458Zm0,5.32a1.862,1.862,0,1,1,1.862-1.862,1.862,1.862,0,0,1-1.862,1.862Z" transform="translate(1.919 2.175)"/>
      <path id="Trazado_982609" data-name="Trazado 982609" d="M25.644,43.25a2.394,2.394,0,1,0,2.394,2.394,2.394,2.394,0,0,0-2.394-2.394Zm0,3.192a.8.8,0,1,1,.8-.8A.8.8,0,0,1,25.644,46.442Z" transform="translate(1.471 2.175)"/>
      <circle id="Elipse_11720" data-name="Elipse 11720" cx="0.798" cy="0.798" r="0.798" transform="translate(30.041 51.808)"/>
      <circle id="Elipse_11721" data-name="Elipse 11721" cx="0.798" cy="0.798" r="0.798" transform="translate(37.489 42.233)"/>
      <circle id="Elipse_11722" data-name="Elipse 11722" cx="0.798" cy="0.798" r="0.798" transform="translate(25.785 42.233)"/>
      <path id="Trazado_982610" data-name="Trazado 982610" d="M55.414,33.25H51.159a11.442,11.442,0,0,0-10.108,6.091A11.413,11.413,0,0,0,30.943,33.25H26.688a11.438,11.438,0,1,0,0,22.875h4.256a11.413,11.413,0,0,0,10.108-6.091,11.442,11.442,0,0,0,10.108,6.091h4.256a11.438,11.438,0,1,0,0-22.875ZM16.846,44.688a9.853,9.853,0,0,1,8.006-9.664,11.408,11.408,0,0,0,0,19.328,9.853,9.853,0,0,1-8.006-9.664Zm23.365,3.3a9.842,9.842,0,1,1,0-6.6,11.365,11.365,0,0,0,0,6.6Zm1.107-3.3a9.853,9.853,0,0,1,8.006-9.664,11.408,11.408,0,0,0,0,19.328,9.853,9.853,0,0,1-8.006-9.664Zm14.1,9.842a9.842,9.842,0,1,1,9.842-9.842A9.842,9.842,0,0,1,55.414,54.529Z" transform="translate(0.959 1.535)"/>
      <path id="Trazado_982611" data-name="Trazado 982611" d="M56.1,39.176A2.926,2.926,0,1,0,53.176,42.1,2.926,2.926,0,0,0,56.1,39.176Zm-2.926,1.33a1.33,1.33,0,1,1,1.33-1.33A1.33,1.33,0,0,1,53.176,40.506Z" transform="translate(3.198 1.727)"/>
      <path id="Trazado_982612" data-name="Trazado 982612" d="M56.708,43.25a3.458,3.458,0,1,0,3.458,3.458,3.458,3.458,0,0,0-3.458-3.458Zm0,5.32a1.862,1.862,0,1,1,1.862-1.862A1.862,1.862,0,0,1,56.708,48.57Z" transform="translate(3.39 2.175)"/>
      <path id="Trazado_982613" data-name="Trazado 982613" d="M48.644,43.25a2.394,2.394,0,1,0,2.394,2.394,2.394,2.394,0,0,0-2.394-2.394Zm0,3.192a.8.8,0,1,1,.8-.8.8.8,0,0,1-.8.8Z" transform="translate(2.942 2.175)"/>
      <circle id="Elipse_11723" data-name="Elipse 11723" cx="0.798" cy="0.798" r="0.798" transform="translate(54.512 51.808)"/>
      <circle id="Elipse_11724" data-name="Elipse 11724" cx="0.798" cy="0.798" r="0.798" transform="translate(61.96 42.233)"/>
      <circle id="Elipse_11725" data-name="Elipse 11725" cx="0.798" cy="0.798" r="0.798" transform="translate(50.256 42.233)"/>
    </g>
  </g>
</svg>
