<svg xmlns="http://www.w3.org/2000/svg" xmlns:xlink="http://www.w3.org/1999/xlink" width="93.934" height="93.934" viewBox="0 0 93.934 93.934">
  <defs>
    <filter id="Trazado_982547" x="0" y="0" width="93.934" height="93.934" filterUnits="userSpaceOnUse">
      <feOffset dy="3" input="SourceAlpha"/>
      <feGaussianBlur stdDeviation="3" result="blur"/>
      <feFlood flood-opacity="0.161"/>
      <feComposite operator="in" in2="blur"/>
      <feComposite in="SourceGraphic"/>
    </filter>
  </defs>
  <g id="Grupo_1174434" data-name="Grupo 1174434" transform="translate(-200.066 -2275)">
    <g id="Grupo_1173782" data-name="Grupo 1173782" transform="translate(209.066 2281)">
      <g id="Grupo_1167337" data-name="Grupo 1167337">
        <g id="Grupo_1166720" data-name="Grupo 1166720">
          <g id="Grupo_1164305" data-name="Grupo 1164305">
            <g id="Grupo_1163948" data-name="Grupo 1163948">
              <g id="Grupo_1158168" data-name="Grupo 1158168">
                <g id="Grupo_1152576" data-name="Grupo 1152576">
                  <g id="Grupo_1148633" data-name="Grupo 1148633">
                    <g id="Grupo_1148525" data-name="Grupo 1148525">
                      <g transform="matrix(1, 0, 0, 1, -9, -6)" filter="url(#Trazado_982547)">
                        <g id="Trazado_982547-2" data-name="Trazado 982547" transform="translate(9 6)" fill="#eef8f2">
                          <path d="M 37.966796875 74.43359375 C 33.04315185546875 74.43359375 28.26757431030273 73.46962738037109 23.77274131774902 71.56847381591797 C 19.43047523498535 69.73184967041016 15.53040790557861 67.10224914550781 12.18087482452393 63.75271987915039 C 8.831341743469238 60.4031867980957 6.201741218566895 56.50312042236328 4.365118980407715 52.16086196899414 C 2.463963508605957 47.66601943969727 1.499996900558472 42.89044189453125 1.499996900558472 37.966796875 C 1.499996900558472 33.04315185546875 2.463963508605957 28.26757431030273 4.365118980407715 23.77274131774902 C 6.201741218566895 19.43047523498535 8.831341743469238 15.53040790557861 12.18087482452393 12.18087482452393 C 15.53040790557861 8.831341743469238 19.43047523498535 6.201741218566895 23.77274131774902 4.365118980407715 C 28.26757431030273 2.463963508605957 33.04315185546875 1.499996900558472 37.966796875 1.499996900558472 C 42.89044189453125 1.499996900558472 47.66601943969727 2.463963508605957 52.16086196899414 4.365118980407715 C 56.50312042236328 6.201741218566895 60.4031867980957 8.831341743469238 63.75271987915039 12.18087482452393 C 67.10224914550781 15.53040790557861 69.73184967041016 19.43047523498535 71.56847381591797 23.77274131774902 C 73.46962738037109 28.26757431030273 74.43359375 33.04315185546875 74.43359375 37.966796875 C 74.43359375 42.89044189453125 73.46962738037109 47.66601943969727 71.56847381591797 52.16086196899414 C 69.73184967041016 56.50313186645508 67.10224914550781 60.4031867980957 63.75271987915039 63.75271987915039 C 60.4031867980957 67.10224914550781 56.50313186645508 69.73184967041016 52.16086196899414 71.56847381591797 C 47.66601943969727 73.46962738037109 42.89044189453125 74.43359375 37.966796875 74.43359375 Z" stroke="none"/>
                          <path d="M 37.966796875 3 C 33.2449836730957 3 28.66600799560547 3.924095153808594 24.35705947875977 5.746635437011719 C 20.19359588623047 7.507637023925781 16.45379638671875 10.02928161621094 13.24153518676758 13.24153518676758 C 10.02927398681641 16.45379638671875 7.507621765136719 20.19359588623047 5.746635437011719 24.35705947875977 C 3.924095153808594 28.66600799560547 3 33.2449836730957 3 37.966796875 C 3 42.6886100769043 3.924095153808594 47.26758575439453 5.746635437011719 51.57653427124023 C 7.507621765136719 55.73999786376953 10.02927398681641 59.47979736328125 13.24153518676758 62.69205856323242 C 16.45379638671875 65.90431976318359 20.19359588623047 68.42597198486328 24.35705947875977 70.18695831298828 C 28.66600799560547 72.00949859619141 33.2449836730957 72.93359375 37.966796875 72.93359375 C 42.6886100769043 72.93359375 47.26758575439453 72.00949859619141 51.57653427124023 70.18695831298828 C 55.73999786376953 68.42597198486328 59.47979736328125 65.90431976318359 62.69205856323242 62.69205856323242 C 65.90431976318359 59.47979736328125 68.42597198486328 55.73999786376953 70.18695831298828 51.57653427124023 C 72.00949859619141 47.26758575439453 72.93359375 42.6886100769043 72.93359375 37.966796875 C 72.93359375 33.2449836730957 72.00949859619141 28.66600799560547 70.18695831298828 24.35705947875977 C 68.42597198486328 20.19359588623047 65.90431976318359 16.45379638671875 62.69205856323242 13.24153518676758 C 59.47979736328125 10.02928161621094 55.73999786376953 7.507637023925781 51.57653427124023 5.746635437011719 C 47.26758575439453 3.924095153808594 42.6886100769043 3 37.966796875 3 M 37.966796875 0 C 58.93528366088867 0 75.93359375 16.99832153320312 75.93359375 37.966796875 C 75.93359375 58.93528366088867 58.93528366088867 75.93359375 37.966796875 75.93359375 C 16.99831008911133 75.93359375 0 58.93528366088867 0 37.966796875 C 0 16.99832153320312 16.99831008911133 0 37.966796875 0 Z" stroke="none" fill="#87b098"/>
                        </g>
                      </g>
                    </g>
                  </g>
                </g>
              </g>
            </g>
          </g>
        </g>
      </g>
    </g>
    <g id="Page-1" transform="translate(222.055 2295.224)">
      <g id="_005---Sausages" data-name="005---Sausages" transform="translate(0 0.937)">
        <path id="Shape" d="M51.294,26.027A70.4,70.4,0,0,1,36.741,40.42a70.389,70.389,0,0,1-18.269,9.22A10.838,10.838,0,0,1,5.2,42.591a10.206,10.206,0,0,1,5.557-12.865,54,54,0,0,0,13.463-6.709,51.587,51.587,0,0,0,10.1-9.961,10.214,10.214,0,0,1,14.526-1.822,10.81,10.81,0,0,1,2.448,14.794Z" transform="translate(-0.488 -1.797)" fill="#ef314c"/>
        <path id="Shape-2" data-name="Shape" d="M42.222,9.112C50.164,10.19,54.4,19.577,49.752,26.03A70.4,70.4,0,0,1,35.2,40.422C27.59,45.889,18.03,49.639,15.25,50.008a10.147,10.147,0,0,0,4.36-.362,70.39,70.39,0,0,0,18.269-9.224A70.4,70.4,0,0,0,52.432,26.03c5.307-7.369-1-18.077-10.21-16.919Z" transform="translate(-1.626 -1.799)" fill="#bb193b"/>
        <path id="Shape-3" data-name="Shape" d="M41.728,8.283a9.887,9.887,0,0,0-7.4,4.02,51.587,51.587,0,0,1-10.1,9.961,54.775,54.775,0,0,1-13.463,6.709A10.131,10.131,0,0,1,4.832,21.3C4,16.46,6.743,12.429,10.854,12.178a32.747,32.747,0,0,0,9.9-2.546,32.407,32.407,0,0,0,8.407-5.843C32.848.06,39.434,2.172,41.728,8.283Z" transform="translate(-0.499 -1.044)" fill="#ef314c"/>
        <g id="Grupo_1174433" data-name="Grupo 1174433" transform="translate(0.886 0.894)">
          <path id="Shape-4" data-name="Shape" d="M32.9,2.076A9.549,9.549,0,0,1,39.64,8.283a9.887,9.887,0,0,0-7.4,4.02,51.587,51.587,0,0,1-10.1,9.961,51.336,51.336,0,0,1-11.9,6.149,8.4,8.4,0,0,0,1.12.56,54,54,0,0,0,13.463-6.709,51.587,51.587,0,0,0,10.1-9.961,9.887,9.887,0,0,1,7.4-4.02c-1.52-4.051-5.4-7.036-9.425-6.206Z" transform="translate(-1.978 -1.937)" fill="#bb193b"/>
          <path id="Shape-5" data-name="Shape" d="M4.68,24.164a2.68,2.68,0,1,1-1-5.164,2.3,2.3,0,0,1,.893.17,9.233,9.233,0,0,0-.134,3.949,9.883,9.883,0,0,0,.241,1.045Z" transform="translate(-0.992 -3.757)" fill="#bb193b"/>
          <path id="Shape-6" data-name="Shape" d="M47.434,5.68a2.668,2.668,0,0,1-1.742,2.5A10.542,10.542,0,0,0,44.048,5.35,9.9,9.9,0,0,0,42.69,3.974,2.644,2.644,0,0,1,44.754,3,2.68,2.68,0,0,1,47.434,5.68Z" transform="translate(-5.439 -2.051)" fill="#bb193b"/>
          <path id="Shape-7" data-name="Shape" d="M57.184,10.735a3.528,3.528,0,0,1-1.179,2.644,11.072,11.072,0,0,0-2.278-2.341A10.89,10.89,0,0,0,50.35,9.288a3.573,3.573,0,0,1,6.834,1.447Z" transform="translate(-6.255 -2.496)" fill="#bb193b"/>
          <path id="Shape-8" data-name="Shape" d="M7.62,50.678a3.564,3.564,0,1,1-3.171-6.3,11.414,11.414,0,0,0,.473,1.983,10.936,10.936,0,0,0,2.7,4.315Z" transform="translate(-1.1 -6.463)" fill="#bb193b"/>
        </g>
        <path id="Shape-9" data-name="Shape" d="M18.829,51.38a.893.893,0,0,1-.268-1.747c.217-.068.854-.268,1.8-.618a.893.893,0,1,1,.615,1.678c-.993.363-1.657.575-1.885.647A.917.917,0,0,1,18.829,51.38Z" transform="translate(-1.912 -6.058)" fill="#f5f5f5"/>
        <path id="Shape-10" data-name="Shape" d="M24.893,46.729a.893.893,0,0,1-.357-1.713A64.393,64.393,0,0,0,36.2,38.467,64.974,64.974,0,0,0,49.739,25.084a.894.894,0,0,1,1.449,1.047A67.017,67.017,0,0,1,37.246,39.917a66.122,66.122,0,0,1-12,6.737.884.884,0,0,1-.357.075Z" transform="translate(-2.559 -3.472)" fill="#f5f5f5"/>
        <path id="Shape-11" data-name="Shape" d="M52.709,10.07a4.461,4.461,0,0,0-8.163-2.494,11.237,11.237,0,0,0-1.321-.234A3.573,3.573,0,0,0,38.066,2.59,8.755,8.755,0,0,0,33.482.948a7.109,7.109,0,0,0-5.45,2.1,31.333,31.333,0,0,1-8.148,5.662,31.521,31.521,0,0,1-9.559,2.465h-.033a7.078,7.078,0,0,0-5.172,2.716A8.175,8.175,0,0,0,3.855,16.2c-.094-.005-.185-.023-.281-.023a3.573,3.573,0,0,0,0,7.147,3.573,3.573,0,0,0,.415-.04,11.122,11.122,0,0,0,4.363,5.568,10.712,10.712,0,0,0-3.9,4.259,11.226,11.226,0,0,0-1.168,6.062,4.467,4.467,0,0,0,4.007,7.975,11.7,11.7,0,0,0,7.7,2.977,10.92,10.92,0,0,0,3.258-.5,70.805,70.805,0,0,0,18.528-9.347,70.9,70.9,0,0,0,14.752-14.6,11.553,11.553,0,0,0,.226-12.881,4.428,4.428,0,0,0,.957-2.736ZM48.242,7.39a2.661,2.661,0,0,1,2.382,3.886A12,12,0,0,0,48.9,9.663a11.882,11.882,0,0,0-2.55-1.481,2.671,2.671,0,0,1,1.892-.792ZM41.988,5.46a1.755,1.755,0,0,1-.466,1.177,11.652,11.652,0,0,0-1.335-2.071c-.215-.264-.441-.514-.675-.751A1.787,1.787,0,0,1,41.988,5.46ZM1.787,19.754a1.787,1.787,0,0,1,1.625-1.771,10.512,10.512,0,0,0,.04,3.359c.011.061.031.119.043.179a1.8,1.8,0,0,1-1.708-1.767ZM5.213,21.04A7.613,7.613,0,0,1,6.522,15a5.311,5.311,0,0,1,3.886-2.04.409.409,0,0,0,.08-.008,33.4,33.4,0,0,0,10.135-2.618,33.337,33.337,0,0,0,8.671-6.026,5.339,5.339,0,0,1,4.1-1.579A7.625,7.625,0,0,1,38.8,5.692a9.827,9.827,0,0,1,1.123,1.744,10.7,10.7,0,0,0-6.817,4.235,50.475,50.475,0,0,1-9.9,9.756,51.052,51.052,0,0,1-12.366,6.277c-.179.057-.357.13-.536.2A9.254,9.254,0,0,1,5.213,21.04ZM2.68,43.125A2.659,2.659,0,0,1,3.6,41.113c.078.3.158.607.261.908a11.971,11.971,0,0,0,2.065,3.716,2.621,2.621,0,0,1-.567.069A2.68,2.68,0,0,1,2.68,43.125Zm47.4-18.484A68.9,68.9,0,0,1,35.73,38.833a68.866,68.866,0,0,1-18.016,9.092,9.936,9.936,0,0,1-12.161-6.48,9.625,9.625,0,0,1,.485-7.52,8.924,8.924,0,0,1,4.485-4.2l.009,0a8.251,8.251,0,0,1,.851-.312,52.014,52.014,0,0,0,12.865-6.528,52.7,52.7,0,0,0,10.3-10.157,8.953,8.953,0,0,1,6-3.593,9.512,9.512,0,0,1,1.348-.1,9.7,9.7,0,0,1,5.914,2.046A9.933,9.933,0,0,1,50.078,24.641Z" transform="translate(0 -0.937)"/>
      </g>
    </g>
  </g>
</svg>
