<svg xmlns="http://www.w3.org/2000/svg" xmlns:xlink="http://www.w3.org/1999/xlink" width="93.934" height="93.934" viewBox="0 0 93.934 93.934">
  <defs>
    <filter id="Trazado_982547" x="0" y="0" width="93.934" height="93.934" filterUnits="userSpaceOnUse">
      <feOffset dy="3" input="SourceAlpha"/>
      <feGaussianBlur stdDeviation="3" result="blur"/>
      <feFlood flood-opacity="0.161"/>
      <feComposite operator="in" in2="blur"/>
      <feComposite in="SourceGraphic"/>
    </filter>
  </defs>
  <g id="Grupo_1174444" data-name="Grupo 1174444" transform="translate(-200.066 -3722)">
    <g id="Grupo_1173799" data-name="Grupo 1173799" transform="translate(209.066 3728)">
      <g id="Grupo_1167337" data-name="Grupo 1167337">
        <g id="Grupo_1166720" data-name="Grupo 1166720">
          <g id="Grupo_1164305" data-name="Grupo 1164305">
            <g id="Grupo_1163948" data-name="Grupo 1163948">
              <g id="Grupo_1158168" data-name="Grupo 1158168">
                <g id="Grupo_1152576" data-name="Grupo 1152576">
                  <g id="Grupo_1148633" data-name="Grupo 1148633">
                    <g id="Grupo_1148525" data-name="Grupo 1148525">
                      <g transform="matrix(1, 0, 0, 1, -9, -6)" filter="url(#Trazado_982547)">
                        <g id="Trazado_982547-2" data-name="Trazado 982547" transform="translate(9 6)" fill="#eef8f2">
                          <path d="M 37.966796875 74.43359375 C 33.04315185546875 74.43359375 28.26757431030273 73.46962738037109 23.77274131774902 71.56847381591797 C 19.43047523498535 69.73184967041016 15.53040790557861 67.10224914550781 12.18087482452393 63.75271987915039 C 8.831341743469238 60.4031867980957 6.201741218566895 56.50312042236328 4.365118980407715 52.16086196899414 C 2.463963508605957 47.66601943969727 1.499996900558472 42.89044189453125 1.499996900558472 37.966796875 C 1.499996900558472 33.04315185546875 2.463963508605957 28.26757431030273 4.365118980407715 23.77274131774902 C 6.201741218566895 19.43047523498535 8.831341743469238 15.53040790557861 12.18087482452393 12.18087482452393 C 15.53040790557861 8.831341743469238 19.43047523498535 6.201741218566895 23.77274131774902 4.365118980407715 C 28.26757431030273 2.463963508605957 33.04315185546875 1.499996900558472 37.966796875 1.499996900558472 C 42.89044189453125 1.499996900558472 47.66601943969727 2.463963508605957 52.16086196899414 4.365118980407715 C 56.50312042236328 6.201741218566895 60.4031867980957 8.831341743469238 63.75271987915039 12.18087482452393 C 67.10224914550781 15.53040790557861 69.73184967041016 19.43047523498535 71.56847381591797 23.77274131774902 C 73.46962738037109 28.26757431030273 74.43359375 33.04315185546875 74.43359375 37.966796875 C 74.43359375 42.89044189453125 73.46962738037109 47.66601943969727 71.56847381591797 52.16086196899414 C 69.73184967041016 56.50313186645508 67.10224914550781 60.4031867980957 63.75271987915039 63.75271987915039 C 60.4031867980957 67.10224914550781 56.50313186645508 69.73184967041016 52.16086196899414 71.56847381591797 C 47.66601943969727 73.46962738037109 42.89044189453125 74.43359375 37.966796875 74.43359375 Z" stroke="none"/>
                          <path d="M 37.966796875 3 C 33.2449836730957 3 28.66600799560547 3.924095153808594 24.35705947875977 5.746635437011719 C 20.19359588623047 7.507637023925781 16.45379638671875 10.02928161621094 13.24153518676758 13.24153518676758 C 10.02927398681641 16.45379638671875 7.507621765136719 20.19359588623047 5.746635437011719 24.35705947875977 C 3.924095153808594 28.66600799560547 3 33.2449836730957 3 37.966796875 C 3 42.6886100769043 3.924095153808594 47.26758575439453 5.746635437011719 51.57653427124023 C 7.507621765136719 55.73999786376953 10.02927398681641 59.47979736328125 13.24153518676758 62.69205856323242 C 16.45379638671875 65.90431976318359 20.19359588623047 68.42597198486328 24.35705947875977 70.18695831298828 C 28.66600799560547 72.00949859619141 33.2449836730957 72.93359375 37.966796875 72.93359375 C 42.6886100769043 72.93359375 47.26758575439453 72.00949859619141 51.57653427124023 70.18695831298828 C 55.73999786376953 68.42597198486328 59.47979736328125 65.90431976318359 62.69205856323242 62.69205856323242 C 65.90431976318359 59.47979736328125 68.42597198486328 55.73999786376953 70.18695831298828 51.57653427124023 C 72.00949859619141 47.26758575439453 72.93359375 42.6886100769043 72.93359375 37.966796875 C 72.93359375 33.2449836730957 72.00949859619141 28.66600799560547 70.18695831298828 24.35705947875977 C 68.42597198486328 20.19359588623047 65.90431976318359 16.45379638671875 62.69205856323242 13.24153518676758 C 59.47979736328125 10.02928161621094 55.73999786376953 7.507637023925781 51.57653427124023 5.746635437011719 C 47.26758575439453 3.924095153808594 42.6886100769043 3 37.966796875 3 M 37.966796875 0 C 58.93528366088867 0 75.93359375 16.99832153320312 75.93359375 37.966796875 C 75.93359375 58.93528366088867 58.93528366088867 75.93359375 37.966796875 75.93359375 C 16.99831008911133 75.93359375 0 58.93528366088867 0 37.966796875 C 0 16.99832153320312 16.99831008911133 0 37.966796875 0 Z" stroke="none" fill="#87b098"/>
                        </g>
                      </g>
                    </g>
                  </g>
                </g>
              </g>
            </g>
          </g>
        </g>
      </g>
    </g>
    <g id="ph_5220939" transform="translate(197.8 3742.669)">
      <path id="Trazado_986123" data-name="Trazado 986123" d="M97.148,38.04c.559,22.384-38.123,22.914-37.593,0C59.8,27.37,71.632,17.011,77.013,8.731a1.609,1.609,0,0,1,2.7,0C85.076,16.969,96.881,27.366,97.148,38.04Z" transform="translate(-28.612 -7.185)" fill="#b5d5f5"/>
      <path id="Trazado_986124" data-name="Trazado 986124" d="M79.733,8.751a4.166,4.166,0,0,1-.292,4.963c-4.686,5.561-15.647,19.4-15.831,27.362a16.5,16.5,0,0,0,1.487,7.5.811.811,0,0,1-1.318.911,15.414,15.414,0,0,1-4.224-11.45C59.8,27.364,71.632,17.006,77.013,8.726A1.609,1.609,0,0,1,79.733,8.751Z" transform="translate(-28.612 -7.18)" fill="#cbe3fa"/>
      <g id="Grupo_1174443" data-name="Grupo 1174443" transform="translate(27.71 -0.001)">
        <path id="Trazado_986125" data-name="Trazado 986125" d="M76.217,5.227a.811.811,0,0,0-1.276,1c5.705,7.267,13.994,16,14.21,24.647a14.512,14.512,0,0,1-7.382,13.371,22.16,22.16,0,0,1-21.264.091,14.566,14.566,0,0,1-7.325-13.464c.239-10.309,11.962-20.631,17.327-28.887a.8.8,0,0,1,1.344,0A.811.811,0,0,0,73.21,1.1a2.421,2.421,0,0,0-4.063,0C63.779,9.362,51.813,19.826,51.558,30.837a16.128,16.128,0,0,0,8.126,14.9c11.738,6.888,31.5,1.491,31.088-14.9-.231-9.257-8.7-18.153-14.556-25.608Z" transform="translate(-49.136 0.001)"/>
        <path id="Trazado_986126" data-name="Trazado 986126" d="M122.4,160.921a.811.811,0,0,0-1.14.126c-2.532,3.163-5.008,6.589-5.965,10.216a.811.811,0,1,0,1.568.414c.88-3.335,3.242-6.593,5.663-9.616A.811.811,0,0,0,122.4,160.921Z" transform="translate(-106.396 -144.449)"/>
        <path id="Trazado_986127" data-name="Trazado 986127" d="M159.853,317.929a.811.811,0,0,0,.811-.811v-2.484a3.6,3.6,0,1,0-.019-6,.811.811,0,0,0-1.6.173v8.312A.811.811,0,0,0,159.853,317.929Zm2.788-8.28a1.979,1.979,0,1,1-1.977,1.977A1.98,1.98,0,0,1,162.641,309.648Z" transform="translate(-145.73 -276.775)"/>
        <path id="Trazado_986128" data-name="Trazado 986128" d="M251.854,289.995a.811.811,0,0,0-.811.811v9.123a.811.811,0,1,0,1.622,0v-3.75h4.866v3.75a.811.811,0,1,0,1.622,0v-9.123a.811.811,0,0,0-1.622,0v3.75h-4.866v-3.75A.811.811,0,0,0,251.854,289.995Z" transform="translate(-228.405 -260.6)"/>
        <path id="Trazado_986129" data-name="Trazado 986129" d="M30.886,68a.811.811,0,0,1,.811.811v8.313l1.011-.912a.811.811,0,1,1,1.086,1.2c-2.134,1.924-2.336,2.107-2.379,2.144a.809.809,0,0,1-.864.124,21.144,21.144,0,0,1-2.573-2.268.811.811,0,1,1,1.086-1.2l1.011.912V68.809A.811.811,0,0,1,30.886,68Z" transform="translate(-27.71 -61.105)"/>
        <path id="Trazado_986130" data-name="Trazado 986130" d="M395.8,44.375a21.952,21.952,0,0,1-2.573,2.269.809.809,0,0,1-.864-.124c-.043-.037-.245-.22-2.379-2.144a.811.811,0,1,1,1.086-1.2l1.011.912V38.81a.811.811,0,0,1,1.622,0v5.272l1.011-.912a.811.811,0,1,1,1.086,1.2Z" transform="translate(-353.018 -34.147)"/>
      </g>
    </g>
  </g>
</svg>
