<svg xmlns="http://www.w3.org/2000/svg" xmlns:xlink="http://www.w3.org/1999/xlink" width="93.934" height="93.934" viewBox="0 0 93.934 93.934">
  <defs>
    <filter id="Trazado_982547" x="0" y="0" width="93.934" height="93.934" filterUnits="userSpaceOnUse">
      <feOffset dy="3" input="SourceAlpha"/>
      <feGaussianBlur stdDeviation="3" result="blur"/>
      <feFlood flood-opacity="0.161"/>
      <feComposite operator="in" in2="blur"/>
      <feComposite in="SourceGraphic"/>
    </filter>
  </defs>
  <g id="Grupo_1174451" data-name="Grupo 1174451" transform="translate(-830.066 -3722)">
    <g id="Grupo_1173800" data-name="Grupo 1173800" transform="translate(839.066 3728)">
      <g id="Grupo_1167337" data-name="Grupo 1167337">
        <g id="Grupo_1166720" data-name="Grupo 1166720">
          <g id="Grupo_1164305" data-name="Grupo 1164305">
            <g id="Grupo_1163948" data-name="Grupo 1163948">
              <g id="Grupo_1158168" data-name="Grupo 1158168">
                <g id="Grupo_1152576" data-name="Grupo 1152576">
                  <g id="Grupo_1148633" data-name="Grupo 1148633">
                    <g id="Grupo_1148525" data-name="Grupo 1148525">
                      <g transform="matrix(1, 0, 0, 1, -9, -6)" filter="url(#Trazado_982547)">
                        <g id="Trazado_982547-2" data-name="Trazado 982547" transform="translate(9 6)" fill="#eef8f2">
                          <path d="M 37.966796875 74.43359375 C 33.04315185546875 74.43359375 28.26757431030273 73.46962738037109 23.77274131774902 71.56847381591797 C 19.43047523498535 69.73184967041016 15.53040790557861 67.10224914550781 12.18087482452393 63.75271987915039 C 8.831341743469238 60.4031867980957 6.201741218566895 56.50312042236328 4.365118980407715 52.16086196899414 C 2.463963508605957 47.66601943969727 1.499996900558472 42.89044189453125 1.499996900558472 37.966796875 C 1.499996900558472 33.04315185546875 2.463963508605957 28.26757431030273 4.365118980407715 23.77274131774902 C 6.201741218566895 19.43047523498535 8.831341743469238 15.53040790557861 12.18087482452393 12.18087482452393 C 15.53040790557861 8.831341743469238 19.43047523498535 6.201741218566895 23.77274131774902 4.365118980407715 C 28.26757431030273 2.463963508605957 33.04315185546875 1.499996900558472 37.966796875 1.499996900558472 C 42.89044189453125 1.499996900558472 47.66601943969727 2.463963508605957 52.16086196899414 4.365118980407715 C 56.50312042236328 6.201741218566895 60.4031867980957 8.831341743469238 63.75271987915039 12.18087482452393 C 67.10224914550781 15.53040790557861 69.73184967041016 19.43047523498535 71.56847381591797 23.77274131774902 C 73.46962738037109 28.26757431030273 74.43359375 33.04315185546875 74.43359375 37.966796875 C 74.43359375 42.89044189453125 73.46962738037109 47.66601943969727 71.56847381591797 52.16086196899414 C 69.73184967041016 56.50313186645508 67.10224914550781 60.4031867980957 63.75271987915039 63.75271987915039 C 60.4031867980957 67.10224914550781 56.50313186645508 69.73184967041016 52.16086196899414 71.56847381591797 C 47.66601943969727 73.46962738037109 42.89044189453125 74.43359375 37.966796875 74.43359375 Z" stroke="none"/>
                          <path d="M 37.966796875 3 C 33.2449836730957 3 28.66600799560547 3.924095153808594 24.35705947875977 5.746635437011719 C 20.19359588623047 7.507637023925781 16.45379638671875 10.02928161621094 13.24153518676758 13.24153518676758 C 10.02927398681641 16.45379638671875 7.507621765136719 20.19359588623047 5.746635437011719 24.35705947875977 C 3.924095153808594 28.66600799560547 3 33.2449836730957 3 37.966796875 C 3 42.6886100769043 3.924095153808594 47.26758575439453 5.746635437011719 51.57653427124023 C 7.507621765136719 55.73999786376953 10.02927398681641 59.47979736328125 13.24153518676758 62.69205856323242 C 16.45379638671875 65.90431976318359 20.19359588623047 68.42597198486328 24.35705947875977 70.18695831298828 C 28.66600799560547 72.00949859619141 33.2449836730957 72.93359375 37.966796875 72.93359375 C 42.6886100769043 72.93359375 47.26758575439453 72.00949859619141 51.57653427124023 70.18695831298828 C 55.73999786376953 68.42597198486328 59.47979736328125 65.90431976318359 62.69205856323242 62.69205856323242 C 65.90431976318359 59.47979736328125 68.42597198486328 55.73999786376953 70.18695831298828 51.57653427124023 C 72.00949859619141 47.26758575439453 72.93359375 42.6886100769043 72.93359375 37.966796875 C 72.93359375 33.2449836730957 72.00949859619141 28.66600799560547 70.18695831298828 24.35705947875977 C 68.42597198486328 20.19359588623047 65.90431976318359 16.45379638671875 62.69205856323242 13.24153518676758 C 59.47979736328125 10.02928161621094 55.73999786376953 7.507637023925781 51.57653427124023 5.746635437011719 C 47.26758575439453 3.924095153808594 42.6886100769043 3 37.966796875 3 M 37.966796875 0 C 58.93528366088867 0 75.93359375 16.99832153320312 75.93359375 37.966796875 C 75.93359375 58.93528366088867 58.93528366088867 75.93359375 37.966796875 75.93359375 C 16.99831008911133 75.93359375 0 58.93528366088867 0 37.966796875 C 0 16.99832153320312 16.99831008911133 0 37.966796875 0 Z" stroke="none" fill="#87b098"/>
                        </g>
                      </g>
                    </g>
                  </g>
                </g>
              </g>
            </g>
          </g>
        </g>
      </g>
    </g>
    <g id="humidity_3312888" transform="translate(828.136 3739.586)">
      <g id="Grupo_1174450" data-name="Grupo 1174450" transform="translate(25.92 -0.001)">
        <g id="Grupo_1174445" data-name="Grupo 1174445" transform="translate(21.141 0)">
          <path id="Trazado_986131" data-name="Trazado 986131" d="M192.084,26.831c0-6.36,11.556-20.245,11.556-20.245s11.466,13.885,11.466,20.245a11.511,11.511,0,1,1-23.022,0Z" transform="translate(-191.188 -5.712)" fill="#85d3ed"/>
          <path id="Trazado_986132" data-name="Trazado 986132" d="M197.781,33.569a12.482,12.482,0,0,1-12.452-12.452c0-6.629,11.287-20.245,11.735-20.782a.839.839,0,0,1,1.344,0c.448.538,11.735,14.243,11.735,20.782A12.406,12.406,0,0,1,197.781,33.569Zm0-31.263c-2.419,3.046-10.66,13.706-10.66,18.812a10.66,10.66,0,1,0,21.32,0c-.09-4.568-7.166-14.422-10.66-18.812Z" transform="translate(-185.329 0.001)"/>
        </g>
        <g id="Grupo_1174446" data-name="Grupo 1174446" transform="translate(0 0)">
          <path id="Trazado_986133" data-name="Trazado 986133" d="M33.351,39.1C33.351,28.89,51.8,6.585,51.8,6.585S70.347,28.89,70.347,39.1a18.5,18.5,0,1,1-37,0Z" transform="translate(-32.366 -5.712)" fill="#88d7f2"/>
          <path id="Trazado_986134" data-name="Trazado 986134" d="M45.359,52.829A19.478,19.478,0,0,1,25.92,33.391C25.92,23,43.836,1.232,44.642.336a.839.839,0,0,1,1.344,0c.806.9,18.722,22.663,18.722,33.055A19.288,19.288,0,0,1,45.359,52.829Zm0-50.523C42.044,6.427,27.712,24.7,27.712,33.391a17.647,17.647,0,1,0,35.294,0c0-8.689-14.333-26.963-17.647-31.084Z" transform="translate(-25.92 0)"/>
        </g>
        <g id="Grupo_1174447" data-name="Grupo 1174447" transform="translate(10.75 22.91)">
          <path id="Trazado_986135" data-name="Trazado 986135" d="M107.871,192.188a.813.813,0,0,1-.627-.269.866.866,0,0,1,0-1.254l17.289-17.647a.887.887,0,1,1,1.254,1.254L108.5,191.919a.968.968,0,0,1-.627.269Z" transform="translate(-106.976 -172.749)"/>
        </g>
        <g id="Grupo_1174448" data-name="Grupo 1174448" transform="translate(8.868 21.745)">
          <path id="Trazado_986136" data-name="Trazado 986136" d="M97.449,173.284a4.658,4.658,0,1,1,4.658-4.658A4.683,4.683,0,0,1,97.449,173.284Zm0-7.525a2.867,2.867,0,1,0,2.867,2.867A2.886,2.886,0,0,0,97.449,165.76Z" transform="translate(-92.791 -163.968)"/>
        </g>
        <g id="Grupo_1174449" data-name="Grupo 1174449" transform="translate(21.857 34.734)">
          <path id="Trazado_986137" data-name="Trazado 986137" d="M195.391,271.225a4.658,4.658,0,1,1,4.658-4.658A4.626,4.626,0,0,1,195.391,271.225Zm0-7.435a2.867,2.867,0,1,0,2.867,2.867A2.83,2.83,0,0,0,195.391,263.79Z" transform="translate(-190.733 -261.909)"/>
        </g>
      </g>
    </g>
  </g>
</svg>
