<svg xmlns="http://www.w3.org/2000/svg" xmlns:xlink="http://www.w3.org/1999/xlink" width="93.934" height="93.934" viewBox="0 0 93.934 93.934">
  <defs>
    <filter id="Trazado_982547" x="0" y="0" width="93.934" height="93.934" filterUnits="userSpaceOnUse">
      <feOffset dy="3" input="SourceAlpha"/>
      <feGaussianBlur stdDeviation="3" result="blur"/>
      <feFlood flood-opacity="0.161"/>
      <feComposite operator="in" in2="blur"/>
      <feComposite in="SourceGraphic"/>
    </filter>
  </defs>
  <g id="Grupo_1174462" data-name="Grupo 1174462" transform="translate(-194.066 -4604)">
    <g id="Grupo_1173812" data-name="Grupo 1173812" transform="translate(203.066 4610)">
      <g id="Grupo_1167337" data-name="Grupo 1167337">
        <g id="Grupo_1166720" data-name="Grupo 1166720">
          <g id="Grupo_1164305" data-name="Grupo 1164305">
            <g id="Grupo_1163948" data-name="Grupo 1163948">
              <g id="Grupo_1158168" data-name="Grupo 1158168">
                <g id="Grupo_1152576" data-name="Grupo 1152576">
                  <g id="Grupo_1148633" data-name="Grupo 1148633">
                    <g id="Grupo_1148525" data-name="Grupo 1148525">
                      <g transform="matrix(1, 0, 0, 1, -9, -6)" filter="url(#Trazado_982547)">
                        <g id="Trazado_982547-2" data-name="Trazado 982547" transform="translate(9 6)" fill="#eef8f2">
                          <path d="M 37.966796875 74.43359375 C 33.04315185546875 74.43359375 28.26757431030273 73.46962738037109 23.77274131774902 71.56847381591797 C 19.43047523498535 69.73184967041016 15.53040790557861 67.10224914550781 12.18087482452393 63.75271987915039 C 8.831341743469238 60.4031867980957 6.201741218566895 56.50312042236328 4.365118980407715 52.16086196899414 C 2.463963508605957 47.66601943969727 1.499996900558472 42.89044189453125 1.499996900558472 37.966796875 C 1.499996900558472 33.04315185546875 2.463963508605957 28.26757431030273 4.365118980407715 23.77274131774902 C 6.201741218566895 19.43047523498535 8.831341743469238 15.53040790557861 12.18087482452393 12.18087482452393 C 15.53040790557861 8.831341743469238 19.43047523498535 6.201741218566895 23.77274131774902 4.365118980407715 C 28.26757431030273 2.463963508605957 33.04315185546875 1.499996900558472 37.966796875 1.499996900558472 C 42.89044189453125 1.499996900558472 47.66601943969727 2.463963508605957 52.16086196899414 4.365118980407715 C 56.50312042236328 6.201741218566895 60.4031867980957 8.831341743469238 63.75271987915039 12.18087482452393 C 67.10224914550781 15.53040790557861 69.73184967041016 19.43047523498535 71.56847381591797 23.77274131774902 C 73.46962738037109 28.26757431030273 74.43359375 33.04315185546875 74.43359375 37.966796875 C 74.43359375 42.89044189453125 73.46962738037109 47.66601943969727 71.56847381591797 52.16086196899414 C 69.73184967041016 56.50313186645508 67.10224914550781 60.4031867980957 63.75271987915039 63.75271987915039 C 60.4031867980957 67.10224914550781 56.50313186645508 69.73184967041016 52.16086196899414 71.56847381591797 C 47.66601943969727 73.46962738037109 42.89044189453125 74.43359375 37.966796875 74.43359375 Z" stroke="none"/>
                          <path d="M 37.966796875 3 C 33.2449836730957 3 28.66600799560547 3.924095153808594 24.35705947875977 5.746635437011719 C 20.19359588623047 7.507637023925781 16.45379638671875 10.02928161621094 13.24153518676758 13.24153518676758 C 10.02927398681641 16.45379638671875 7.507621765136719 20.19359588623047 5.746635437011719 24.35705947875977 C 3.924095153808594 28.66600799560547 3 33.2449836730957 3 37.966796875 C 3 42.6886100769043 3.924095153808594 47.26758575439453 5.746635437011719 51.57653427124023 C 7.507621765136719 55.73999786376953 10.02927398681641 59.47979736328125 13.24153518676758 62.69205856323242 C 16.45379638671875 65.90431976318359 20.19359588623047 68.42597198486328 24.35705947875977 70.18695831298828 C 28.66600799560547 72.00949859619141 33.2449836730957 72.93359375 37.966796875 72.93359375 C 42.6886100769043 72.93359375 47.26758575439453 72.00949859619141 51.57653427124023 70.18695831298828 C 55.73999786376953 68.42597198486328 59.47979736328125 65.90431976318359 62.69205856323242 62.69205856323242 C 65.90431976318359 59.47979736328125 68.42597198486328 55.73999786376953 70.18695831298828 51.57653427124023 C 72.00949859619141 47.26758575439453 72.93359375 42.6886100769043 72.93359375 37.966796875 C 72.93359375 33.2449836730957 72.00949859619141 28.66600799560547 70.18695831298828 24.35705947875977 C 68.42597198486328 20.19359588623047 65.90431976318359 16.45379638671875 62.69205856323242 13.24153518676758 C 59.47979736328125 10.02928161621094 55.73999786376953 7.507637023925781 51.57653427124023 5.746635437011719 C 47.26758575439453 3.924095153808594 42.6886100769043 3 37.966796875 3 M 37.966796875 0 C 58.93528366088867 0 75.93359375 16.99832153320312 75.93359375 37.966796875 C 75.93359375 58.93528366088867 58.93528366088867 75.93359375 37.966796875 75.93359375 C 16.99831008911133 75.93359375 0 58.93528366088867 0 37.966796875 C 0 16.99832153320312 16.99831008911133 0 37.966796875 0 Z" stroke="none" fill="#87b098"/>
                        </g>
                      </g>
                    </g>
                  </g>
                </g>
              </g>
            </g>
          </g>
        </g>
      </g>
    </g>
    <g id="Layer_x0020_1" transform="translate(214.606 4513.512)">
      <path id="Trazado_986683" data-name="Trazado 986683" d="M120.627,496.987v0Zm-46.8,7.45a19.627,19.627,0,0,0,8.023,4.33,20.29,20.29,0,0,0,5.476.764c3.82,0,7.227-1.178,9.328-3.184a6.989,6.989,0,0,0,1.624-2.2c.159.032.478.127.764.223q.525.143,1.337.382a26.461,26.461,0,0,0,6.972.955c5.317,0,9.742-1.687,12.32-4.521a8.883,8.883,0,0,0,2.133-3.757c.032-.032.032-.064.032-.127.923-3.343-.1-7-2.929-10.315a23.779,23.779,0,0,0-11.716-7.036A26.461,26.461,0,0,0,100.22,479c-7.418,0-13.085,3.279-14.485,8.373-.159.541-.255.955-.318,1.242l-.032.191-.1-.032a17.95,17.95,0,0,0-2.229-.318c-.446-.032-.891-.032-1.305-.032-5.826,0-10.315,2.611-11.429,6.654a8.376,8.376,0,0,0,1.242,6.686A14.614,14.614,0,0,0,73.828,504.437Zm-1.178-3.311a.559.559,0,0,1,.127.159A.318.318,0,0,1,72.651,501.126Zm34.733-.35a21.024,21.024,0,0,1-5.7-.8.617.617,0,0,1-.446-.764.637.637,0,0,1,.8-.446,18.183,18.183,0,0,0,9.3.255c2.515-.669,4.107-1.878,4.521-3.343.414-1.5-.35-3.343-2.165-5.189a18.068,18.068,0,0,0-8.118-4.553,18.311,18.311,0,0,0-9.328-.255.645.645,0,1,1-.35-1.242A20.762,20.762,0,0,1,114.61,489.6c2.738,2.8,2.865,5.03,2.483,6.4s-1.624,3.215-5.412,4.234A15.747,15.747,0,0,1,107.383,500.776Z" transform="translate(-67.774 -356.432)" fill="#c95039" fill-rule="evenodd"/>
      <g id="_12" transform="translate(0.072 110.847)">
        <g id="Grupo_1174472" data-name="Grupo 1174472" transform="translate(0 0)">
          <g id="Grupo_1174466" data-name="Grupo 1174466" transform="translate(3.71 29.238)">
            <path id="Trazado_986684" data-name="Trazado 986684" d="M132.454,1047.274a26.386,26.386,0,0,1-6.877-.923c-5.7-1.592-6.463-4.107-7.736-8.277-.318-1.051-.7-2.26-1.178-3.566a.634.634,0,0,1,.35-.828.625.625,0,0,1,.828.382c.509,1.337.891,2.579,1.21,3.629,1.242,4.011,1.846,6.049,6.845,7.418,5.762,1.592,13.689,1.464,18.719-3.661a.625.625,0,0,1,.6-.159,28.635,28.635,0,0,0,15.154-.35c3.152-1.051,3.82-4.266,4.584-8.023.223-1.051.446-2.165.732-3.215a.625.625,0,0,1,1.21.318c-.255,1.019-.478,2.1-.7,3.152-.8,3.788-1.592,7.7-5.412,8.978a29.278,29.278,0,0,1-15.5.446C141.75,1046.032,137.006,1047.274,132.454,1047.274Z" transform="translate(-116.619 -1029.23)" fill="#1a1a1a" fill-rule="evenodd"/>
          </g>
          <g id="Grupo_1174467" data-name="Grupo 1174467" transform="translate(2.224 11.72)">
            <path id="Trazado_986685" data-name="Trazado 986685" d="M87.181,509.531a20.29,20.29,0,0,1-5.476-.764c-7.832-2.165-13.021-8.309-11.525-13.689,1.114-4.043,5.6-6.654,11.429-6.654.414,0,.86,0,1.305.032a17.951,17.951,0,0,1,2.229.318.117.117,0,0,0,.1.032.4.4,0,0,0,.032-.191c.064-.287.159-.7.318-1.242,1.4-5.094,7.068-8.373,14.485-8.373a26.461,26.461,0,0,1,6.972.955,23.779,23.779,0,0,1,11.716,7.036c2.833,3.311,3.852,6.972,2.929,10.315-1.4,5.126-7.068,8.4-14.485,8.4a26.461,26.461,0,0,1-6.972-.955q-.812-.239-1.337-.382c-.287-.1-.6-.191-.764-.223a6.989,6.989,0,0,1-1.624,2.2C94.407,508.353,91,509.531,87.181,509.531ZM81.609,489.7c-5.253,0-9.232,2.229-10.187,5.7-1.305,4.744,3.438,10.188,10.6,12.161a19.341,19.341,0,0,0,5.157.7,12.3,12.3,0,0,0,8.437-2.833,5.321,5.321,0,0,0,1.337-1.815,1.051,1.051,0,0,1,.987-.764,5.4,5.4,0,0,1,1.305.287c.35.1.764.223,1.305.382a25.582,25.582,0,0,0,6.654.923c6.813,0,12.034-2.929,13.276-7.45.8-2.929-.159-6.176-2.706-9.169a22.311,22.311,0,0,0-11.047-6.622,24.3,24.3,0,0,0-6.654-.923c-6.813,0-12.034,2.929-13.276,7.45-.127.509-.223.891-.255,1.146-.127.6-.287,1.242-1.051,1.242a2.573,2.573,0,0,1-.637-.1,15.977,15.977,0,0,0-2.037-.287C82.405,489.7,81.991,489.7,81.609,489.7Z" transform="translate(-69.923 -479)" fill="#1a1a1a" fill-rule="evenodd"/>
          </g>
          <g id="Grupo_1174468" data-name="Grupo 1174468" transform="translate(27.577 16.629)">
            <path id="Trazado_986686" data-name="Trazado 986686" d="M878.26,650.036a21.026,21.026,0,0,1-5.7-.8.617.617,0,0,1-.446-.764.637.637,0,0,1,.8-.446,18.182,18.182,0,0,0,9.3.255c2.515-.669,4.107-1.878,4.521-3.343.414-1.5-.35-3.343-2.165-5.189a18.068,18.068,0,0,0-8.118-4.553,18.311,18.311,0,0,0-9.328-.255.645.645,0,0,1-.35-1.242,20.763,20.763,0,0,1,18.719,5.157c2.738,2.8,2.865,5.03,2.483,6.4s-1.624,3.215-5.412,4.234A15.748,15.748,0,0,1,878.26,650.036Z" transform="translate(-866.299 -633.169)" fill="#1a1a1a" fill-rule="evenodd"/>
          </g>
          <g id="Grupo_1174469" data-name="Grupo 1174469" transform="translate(13.276)">
            <path id="Trazado_986687" data-name="Trazado 986687" d="M421.367,124.86a.612.612,0,0,1-.573-.382,4,4,0,0,1,.287-2.929,3.936,3.936,0,0,0,.318-2.037c-.191-.414-1.019-.764-1.751-1.082-.987-.414-2.006-.828-2.388-1.719a4.148,4.148,0,0,1,.255-2.929,3.737,3.737,0,0,0,.35-2.037.606.606,0,0,1,.318-.828.594.594,0,0,1,.828.287,4.073,4.073,0,0,1-.286,2.961,3.935,3.935,0,0,0-.318,2.037c.191.414,1.019.764,1.751,1.082.987.414,2.006.828,2.388,1.719a4.148,4.148,0,0,1-.255,2.929,3.737,3.737,0,0,0-.35,2.037.606.606,0,0,1-.318.828A.343.343,0,0,1,421.367,124.86Z" transform="translate(-417.072 -110.847)" fill="#1a1a1a" fill-rule="evenodd"/>
          </g>
          <g id="Grupo_1174470" data-name="Grupo 1174470" transform="translate(6.637 3.012)">
            <path id="Trazado_986688" data-name="Trazado 986688" d="M212.862,219.492a.655.655,0,0,1-.6-.382,4.35,4.35,0,0,1,.287-2.929c.255-.764.541-1.592.318-2.037-.191-.414-.987-.764-1.719-1.082a2.947,2.947,0,0,1-2.133-4.648,3.662,3.662,0,0,0,.318-2.037.648.648,0,0,1,1.178-.541,4.425,4.425,0,0,1-.287,2.961c-.255.764-.541,1.592-.318,2.037.191.414.987.764,1.719,1.051a4.386,4.386,0,0,1,2.42,1.751,4.168,4.168,0,0,1-.287,2.929,3.662,3.662,0,0,0-.318,2.037.632.632,0,0,1-.318.828A.428.428,0,0,1,212.862,219.492Z" transform="translate(-208.55 -205.467)" fill="#1a1a1a" fill-rule="evenodd"/>
          </g>
          <g id="Grupo_1174471" data-name="Grupo 1174471" transform="translate(0 6.037)">
            <path id="Trazado_986689" data-name="Trazado 986689" d="M4.367,314.492a.612.612,0,0,1-.573-.382,4,4,0,0,1,.287-2.929,3.936,3.936,0,0,0,.318-2.037c-.191-.414-1.019-.764-1.751-1.082-.987-.414-2.006-.828-2.388-1.719a4.148,4.148,0,0,1,.255-2.929,3.737,3.737,0,0,0,.35-2.037.651.651,0,0,1,.318-.86.643.643,0,0,1,.828.318,4.073,4.073,0,0,1-.287,2.961,3.936,3.936,0,0,0-.318,2.038c.191.414,1.019.764,1.751,1.051.987.446,2.006.86,2.388,1.751a4.148,4.148,0,0,1-.255,2.929,3.737,3.737,0,0,0-.35,2.037.606.606,0,0,1-.318.828A.343.343,0,0,1,4.367,314.492Z" transform="translate(-0.072 -300.467)" fill="#1a1a1a" fill-rule="evenodd"/>
          </g>
        </g>
      </g>
      <path id="Trazado_986690" data-name="Trazado 986690" d="M196.023,1183.577a19.627,19.627,0,0,1-8.023-4.33,2.689,2.689,0,0,0,.159.541c1.242,4.011,1.846,6.049,6.845,7.418,5.762,1.592,13.689,1.464,18.719-3.661a.625.625,0,0,1,.6-.159,28.635,28.635,0,0,0,15.154-.35c2.865-.955,3.661-3.725,4.362-7.036-2.579,2.833-7,4.521-12.32,4.521a26.456,26.456,0,0,1-6.972-.955q-.812-.239-1.337-.382c-.287-.1-.6-.191-.764-.223a6.988,6.988,0,0,1-1.624,2.2c-2.1,2.006-5.508,3.184-9.328,3.184A20.289,20.289,0,0,1,196.023,1183.577Z" transform="translate(-181.945 -1031.243)" fill="#efac8e" fill-rule="evenodd"/>
    </g>
  </g>
</svg>
