<svg xmlns="http://www.w3.org/2000/svg" xmlns:xlink="http://www.w3.org/1999/xlink" width="93.934" height="93.934" viewBox="0 0 93.934 93.934">
  <defs>
    <filter id="Trazado_982547" x="0" y="0" width="93.934" height="93.934" filterUnits="userSpaceOnUse">
      <feOffset dy="3" input="SourceAlpha"/>
      <feGaussianBlur stdDeviation="3" result="blur"/>
      <feFlood flood-opacity="0.161"/>
      <feComposite operator="in" in2="blur"/>
      <feComposite in="SourceGraphic"/>
    </filter>
  </defs>
  <g id="Grupo_1174465" data-name="Grupo 1174465" transform="translate(-509.051 -4604)">
    <g id="Grupo_1173819" data-name="Grupo 1173819" transform="translate(518.051 4610)">
      <g id="Grupo_1167337" data-name="Grupo 1167337">
        <g id="Grupo_1166720" data-name="Grupo 1166720">
          <g id="Grupo_1164305" data-name="Grupo 1164305">
            <g id="Grupo_1163948" data-name="Grupo 1163948">
              <g id="Grupo_1158168" data-name="Grupo 1158168">
                <g id="Grupo_1152576" data-name="Grupo 1152576">
                  <g id="Grupo_1148633" data-name="Grupo 1148633">
                    <g id="Grupo_1148525" data-name="Grupo 1148525">
                      <g transform="matrix(1, 0, 0, 1, -9, -6)" filter="url(#Trazado_982547)">
                        <g id="Trazado_982547-2" data-name="Trazado 982547" transform="translate(9 6)" fill="#eef8f2">
                          <path d="M 37.966796875 74.43359375 C 33.04315185546875 74.43359375 28.26757431030273 73.46962738037109 23.77274131774902 71.56847381591797 C 19.43047523498535 69.73184967041016 15.53040790557861 67.10224914550781 12.18087482452393 63.75271987915039 C 8.831341743469238 60.4031867980957 6.201741218566895 56.50312042236328 4.365118980407715 52.16086196899414 C 2.463963508605957 47.66601943969727 1.499996900558472 42.89044189453125 1.499996900558472 37.966796875 C 1.499996900558472 33.04315185546875 2.463963508605957 28.26757431030273 4.365118980407715 23.77274131774902 C 6.201741218566895 19.43047523498535 8.831341743469238 15.53040790557861 12.18087482452393 12.18087482452393 C 15.53040790557861 8.831341743469238 19.43047523498535 6.201741218566895 23.77274131774902 4.365118980407715 C 28.26757431030273 2.463963508605957 33.04315185546875 1.499996900558472 37.966796875 1.499996900558472 C 42.89044189453125 1.499996900558472 47.66601943969727 2.463963508605957 52.16086196899414 4.365118980407715 C 56.50312042236328 6.201741218566895 60.4031867980957 8.831341743469238 63.75271987915039 12.18087482452393 C 67.10224914550781 15.53040790557861 69.73184967041016 19.43047523498535 71.56847381591797 23.77274131774902 C 73.46962738037109 28.26757431030273 74.43359375 33.04315185546875 74.43359375 37.966796875 C 74.43359375 42.89044189453125 73.46962738037109 47.66601943969727 71.56847381591797 52.16086196899414 C 69.73184967041016 56.50313186645508 67.10224914550781 60.4031867980957 63.75271987915039 63.75271987915039 C 60.4031867980957 67.10224914550781 56.50313186645508 69.73184967041016 52.16086196899414 71.56847381591797 C 47.66601943969727 73.46962738037109 42.89044189453125 74.43359375 37.966796875 74.43359375 Z" stroke="none"/>
                          <path d="M 37.966796875 3 C 33.2449836730957 3 28.66600799560547 3.924095153808594 24.35705947875977 5.746635437011719 C 20.19359588623047 7.507637023925781 16.45379638671875 10.02928161621094 13.24153518676758 13.24153518676758 C 10.02927398681641 16.45379638671875 7.507621765136719 20.19359588623047 5.746635437011719 24.35705947875977 C 3.924095153808594 28.66600799560547 3 33.2449836730957 3 37.966796875 C 3 42.6886100769043 3.924095153808594 47.26758575439453 5.746635437011719 51.57653427124023 C 7.507621765136719 55.73999786376953 10.02927398681641 59.47979736328125 13.24153518676758 62.69205856323242 C 16.45379638671875 65.90431976318359 20.19359588623047 68.42597198486328 24.35705947875977 70.18695831298828 C 28.66600799560547 72.00949859619141 33.2449836730957 72.93359375 37.966796875 72.93359375 C 42.6886100769043 72.93359375 47.26758575439453 72.00949859619141 51.57653427124023 70.18695831298828 C 55.73999786376953 68.42597198486328 59.47979736328125 65.90431976318359 62.69205856323242 62.69205856323242 C 65.90431976318359 59.47979736328125 68.42597198486328 55.73999786376953 70.18695831298828 51.57653427124023 C 72.00949859619141 47.26758575439453 72.93359375 42.6886100769043 72.93359375 37.966796875 C 72.93359375 33.2449836730957 72.00949859619141 28.66600799560547 70.18695831298828 24.35705947875977 C 68.42597198486328 20.19359588623047 65.90431976318359 16.45379638671875 62.69205856323242 13.24153518676758 C 59.47979736328125 10.02928161621094 55.73999786376953 7.507637023925781 51.57653427124023 5.746635437011719 C 47.26758575439453 3.924095153808594 42.6886100769043 3 37.966796875 3 M 37.966796875 0 C 58.93528366088867 0 75.93359375 16.99832153320312 75.93359375 37.966796875 C 75.93359375 58.93528366088867 58.93528366088867 75.93359375 37.966796875 75.93359375 C 16.99831008911133 75.93359375 0 58.93528366088867 0 37.966796875 C 0 16.99832153320312 16.99831008911133 0 37.966796875 0 Z" stroke="none" fill="#87b098"/>
                        </g>
                      </g>
                    </g>
                  </g>
                </g>
              </g>
            </g>
          </g>
        </g>
      </g>
    </g>
    <g id="Layer_x0020_1" transform="translate(528.763 4407.954)">
      <path id="Trazado_986671" data-name="Trazado 986671" d="M20.468,252.579c-10.671,0-17.817-5.367-20.095-15.071a8.343,8.343,0,0,1,1.654-6.272c1.841-2.309,5.024-3.557,9.392-3.713l15.165-.062a27.37,27.37,0,0,0,5.929-2.621c2.871-1.56,5.242-2.839,9.236-2.839,6.459,0,10.515,2.278,11.514,6.428.811,3.339-.25,6.99-3.058,10.578C44.151,246.744,31.358,252.579,20.468,252.579Zm21.28-29.331c-6.334,0-8.737,3.713-14.915,5.429l-15.383.094c-3.994.125-6.833,1.217-8.456,3.245a7.116,7.116,0,0,0-1.4,5.242c2.871,12.232,13.074,14.073,18.878,14.073,10.547,0,22.934-5.648,28.769-13.105,2.559-3.245,3.526-6.553,2.808-9.517C50.984,224.184,45.867,223.248,41.748,223.248Z" transform="translate(0)" fill-rule="evenodd"/>
      <path id="Trazado_986672" data-name="Trazado 986672" d="M28.09,564.158c-11.171,0-16.756-3.432-19.689-6.646A12.626,12.626,0,0,1,5,550.679v-10.2a.624.624,0,1,1,1.248,0v10.172c.094.811,1.747,12.263,21.53,12.263a37.367,37.367,0,0,0,12.294-2.215c8.55-3.151,14.135-8.955,16.6-17.286v-8.3a.624.624,0,0,1,1.248,0v8.581c-3.245,10.952-11.3,15.913-17.442,18.191A38.263,38.263,0,0,1,28.09,564.158Z" transform="translate(-4.564 -302.749)" fill-rule="evenodd"/>
      <path id="Trazado_986673" data-name="Trazado 986673" d="M27.043,329.255c-6.209,0-13.2-1.529-21.062-4.587a.623.623,0,0,1,.468-1.155c16.694,6.49,29.3,5.96,38.6-1.623.624-.53,1.4.468.78.967A28.618,28.618,0,0,1,27.043,329.255Zm23.433-11.3a.623.623,0,0,1-.468-1.03c1.841-2.153,4.025-5.273,5.866-5.741a.613.613,0,1,1,.312,1.186c-1.342.343-3.713,3.557-5.242,5.367A.561.561,0,0,1,50.477,317.96Z" transform="translate(-5.14 -86.38)" fill-rule="evenodd"/>
      <path id="Trazado_986674" data-name="Trazado 986674" d="M1237.181,468.362a4.181,4.181,0,1,1,4.181-4.181A4.181,4.181,0,0,1,1237.181,468.362Zm0-7.114a2.933,2.933,0,1,0,2.933,2.933A2.93,2.93,0,0,0,1237.181,461.248Z" transform="translate(-1194.247 -230.574)" fill-rule="evenodd"/>
      <path id="Trazado_986675" data-name="Trazado 986675" d="M425.586,413.412a.607.607,0,0,1-.593-.749c1.279-6.459-6.865-13.417-6.958-13.48a.631.631,0,0,1,.811-.967c.343.312,8.8,7.52,7.364,14.7A.608.608,0,0,1,425.586,413.412Z" transform="translate(-404.495 -170.569)" fill-rule="evenodd"/>
      <path id="Trazado_986676" data-name="Trazado 986676" d="M984.43,813.3a8.2,8.2,0,0,1-5.9-2.028c-1.623-1.591-2.746-5.3-1.342-5.273,1.248.031-.062,2.153,2.215,4.4a7.383,7.383,0,0,0,5.554,1.654.624.624,0,0,1,.031,1.248Z" transform="translate(-945.802 -565.771)" fill-rule="evenodd"/>
      <g id="Grupo_1174463" data-name="Grupo 1174463" transform="translate(1.531 223.248)">
        <path id="Trazado_986677" data-name="Trazado 986677" d="M89.947,766.706a7.367,7.367,0,0,1-4.212-1.935,7.665,7.665,0,0,1-1.935-3.807,32.583,32.583,0,0,1-8.893,1.186c-5.9,0-12.512-1.373-19.908-4.15,3.308,10.921,12.887,12.606,18.472,12.606A40.064,40.064,0,0,0,89.947,766.706Z" transform="translate(-54.535 -742.523)" fill="#d0004f" fill-rule="evenodd"/>
        <path id="Trazado_986678" data-name="Trazado 986678" d="M1020.529,372.5a7.383,7.383,0,0,0,5.554,1.654h.062a32.238,32.238,0,0,0,10.016-8.05c2.559-3.245,3.526-6.553,2.808-9.517a6.358,6.358,0,0,0-1.311-2.59c-1.279.655-3.151,3.12-4.556,4.836a4.1,4.1,0,0,1,.936,2.652,4.181,4.181,0,0,1-4.181,4.181,4.275,4.275,0,0,1-2.683-.967,27.14,27.14,0,0,1-8.175,4.462A5.029,5.029,0,0,0,1020.529,372.5Z" transform="translate(-988.456 -351.129)" fill="#d0004f" fill-rule="evenodd"/>
        <path id="Trazado_986679" data-name="Trazado 986679" d="M494.334,280.379a27.725,27.725,0,0,0,17.6-5.741,4.082,4.082,0,0,1-.687-2.278,4.192,4.192,0,0,1,6.49-3.495c1.435-1.716,3.058-3.9,4.525-4.868-2.122-1.591-5.3-2-8.019-2-6.334,0-8.737,3.713-14.915,5.429L488,267.492C490.278,269.707,494.927,274.98,494.334,280.379Z" transform="translate(-474.024 -262)" fill="#d0004f" fill-rule="evenodd"/>
        <path id="Trazado_986680" data-name="Trazado 986680" d="M59.136,450.856c.749-5.8-5.741-11.857-6.865-12.856l-2.247.031c-3.994.125-6.833,1.217-8.456,3.245a7.118,7.118,0,0,0-1.4,5.242C47.217,449.2,53.52,450.668,59.136,450.856Z" transform="translate(-40.106 -432.508)" fill="#d0004f" fill-rule="evenodd"/>
      </g>
      <g id="Grupo_1174464" data-name="Grupo 1174464" transform="translate(1.684 230.674)">
        <path id="Trazado_986681" data-name="Trazado 986681" d="M1275.933,500a2.933,2.933,0,1,0,2.933,2.933A2.93,2.93,0,0,0,1275.933,500Z" transform="translate(-1234.682 -500)" fill="#ffac9a" fill-rule="evenodd"/>
        <path id="Trazado_986682" data-name="Trazado 986682" d="M93.521,674.964c-6.053,7.738-18.847,13.573-29.736,13.573-9.111,0-15.633-3.9-18.784-11.077v6.4c.094.811,1.747,12.263,21.53,12.263A37.369,37.369,0,0,0,78.824,693.9c8.55-3.151,14.135-8.955,16.6-17.286V672A16.375,16.375,0,0,1,93.521,674.964Z" transform="translate(-45 -666.633)" fill="#ffac9a" fill-rule="evenodd"/>
      </g>
    </g>
  </g>
</svg>
