<svg xmlns="http://www.w3.org/2000/svg" xmlns:xlink="http://www.w3.org/1999/xlink" width="93.934" height="93.934" viewBox="0 0 93.934 93.934">
  <defs>
    <filter id="Trazado_982547" x="0" y="0" width="93.934" height="93.934" filterUnits="userSpaceOnUse">
      <feOffset dy="3" input="SourceAlpha"/>
      <feGaussianBlur stdDeviation="3" result="blur"/>
      <feFlood flood-opacity="0.161"/>
      <feComposite operator="in" in2="blur"/>
      <feComposite in="SourceGraphic"/>
    </filter>
  </defs>
  <g id="Grupo_1174473" data-name="Grupo 1174473" transform="translate(-824.066 -4604)">
    <g id="Grupo_1173820" data-name="Grupo 1173820" transform="translate(833.066 4610)">
      <g id="Grupo_1167337" data-name="Grupo 1167337">
        <g id="Grupo_1166720" data-name="Grupo 1166720">
          <g id="Grupo_1164305" data-name="Grupo 1164305">
            <g id="Grupo_1163948" data-name="Grupo 1163948">
              <g id="Grupo_1158168" data-name="Grupo 1158168">
                <g id="Grupo_1152576" data-name="Grupo 1152576">
                  <g id="Grupo_1148633" data-name="Grupo 1148633">
                    <g id="Grupo_1148525" data-name="Grupo 1148525">
                      <g transform="matrix(1, 0, 0, 1, -9, -6)" filter="url(#Trazado_982547)">
                        <g id="Trazado_982547-2" data-name="Trazado 982547" transform="translate(9 6)" fill="#eef8f2">
                          <path d="M 37.966796875 74.43359375 C 33.04315185546875 74.43359375 28.26757431030273 73.46962738037109 23.77274131774902 71.56847381591797 C 19.43047523498535 69.73184967041016 15.53040790557861 67.10224914550781 12.18087482452393 63.75271987915039 C 8.831341743469238 60.4031867980957 6.201741218566895 56.50312042236328 4.365118980407715 52.16086196899414 C 2.463963508605957 47.66601943969727 1.499996900558472 42.89044189453125 1.499996900558472 37.966796875 C 1.499996900558472 33.04315185546875 2.463963508605957 28.26757431030273 4.365118980407715 23.77274131774902 C 6.201741218566895 19.43047523498535 8.831341743469238 15.53040790557861 12.18087482452393 12.18087482452393 C 15.53040790557861 8.831341743469238 19.43047523498535 6.201741218566895 23.77274131774902 4.365118980407715 C 28.26757431030273 2.463963508605957 33.04315185546875 1.499996900558472 37.966796875 1.499996900558472 C 42.89044189453125 1.499996900558472 47.66601943969727 2.463963508605957 52.16086196899414 4.365118980407715 C 56.50312042236328 6.201741218566895 60.4031867980957 8.831341743469238 63.75271987915039 12.18087482452393 C 67.10224914550781 15.53040790557861 69.73184967041016 19.43047523498535 71.56847381591797 23.77274131774902 C 73.46962738037109 28.26757431030273 74.43359375 33.04315185546875 74.43359375 37.966796875 C 74.43359375 42.89044189453125 73.46962738037109 47.66601943969727 71.56847381591797 52.16086196899414 C 69.73184967041016 56.50313186645508 67.10224914550781 60.4031867980957 63.75271987915039 63.75271987915039 C 60.4031867980957 67.10224914550781 56.50313186645508 69.73184967041016 52.16086196899414 71.56847381591797 C 47.66601943969727 73.46962738037109 42.89044189453125 74.43359375 37.966796875 74.43359375 Z" stroke="none"/>
                          <path d="M 37.966796875 3 C 33.2449836730957 3 28.66600799560547 3.924095153808594 24.35705947875977 5.746635437011719 C 20.19359588623047 7.507637023925781 16.45379638671875 10.02928161621094 13.24153518676758 13.24153518676758 C 10.02927398681641 16.45379638671875 7.507621765136719 20.19359588623047 5.746635437011719 24.35705947875977 C 3.924095153808594 28.66600799560547 3 33.2449836730957 3 37.966796875 C 3 42.6886100769043 3.924095153808594 47.26758575439453 5.746635437011719 51.57653427124023 C 7.507621765136719 55.73999786376953 10.02927398681641 59.47979736328125 13.24153518676758 62.69205856323242 C 16.45379638671875 65.90431976318359 20.19359588623047 68.42597198486328 24.35705947875977 70.18695831298828 C 28.66600799560547 72.00949859619141 33.2449836730957 72.93359375 37.966796875 72.93359375 C 42.6886100769043 72.93359375 47.26758575439453 72.00949859619141 51.57653427124023 70.18695831298828 C 55.73999786376953 68.42597198486328 59.47979736328125 65.90431976318359 62.69205856323242 62.69205856323242 C 65.90431976318359 59.47979736328125 68.42597198486328 55.73999786376953 70.18695831298828 51.57653427124023 C 72.00949859619141 47.26758575439453 72.93359375 42.6886100769043 72.93359375 37.966796875 C 72.93359375 33.2449836730957 72.00949859619141 28.66600799560547 70.18695831298828 24.35705947875977 C 68.42597198486328 20.19359588623047 65.90431976318359 16.45379638671875 62.69205856323242 13.24153518676758 C 59.47979736328125 10.02928161621094 55.73999786376953 7.507637023925781 51.57653427124023 5.746635437011719 C 47.26758575439453 3.924095153808594 42.6886100769043 3 37.966796875 3 M 37.966796875 0 C 58.93528366088867 0 75.93359375 16.99832153320312 75.93359375 37.966796875 C 75.93359375 58.93528366088867 58.93528366088867 75.93359375 37.966796875 75.93359375 C 16.99831008911133 75.93359375 0 58.93528366088867 0 37.966796875 C 0 16.99832153320312 16.99831008911133 0 37.966796875 0 Z" stroke="none" fill="#87b098"/>
                        </g>
                      </g>
                    </g>
                  </g>
                </g>
              </g>
            </g>
          </g>
        </g>
      </g>
    </g>
    <g id="sirloin-steak_1702841" transform="translate(844.033 4623.908)">
      <path id="Trazado_986644" data-name="Trazado 986644" d="M162.958,15.113a17.7,17.7,0,0,0-7.969-5.933,26.433,26.433,0,0,0-5.364-1.39,27.688,27.688,0,0,0-6.1-.266,14.839,14.839,0,0,0-10.06,4.505,10.436,10.436,0,0,0-1.81,2.826,15.531,15.531,0,0,0-1.319,5.876,14.166,14.166,0,0,1-1.924,7.543,10.943,10.943,0,0,0-1.156,8.237,10.8,10.8,0,0,0,2.616,4.869,15.272,15.272,0,0,0,5.795,3.833,20.061,20.061,0,0,0,3.857,1,40.036,40.036,0,0,0,8.36.328,29.464,29.464,0,0,0,5.783-.808,16.288,16.288,0,0,0,9.617-6.413c4.77-6.923,4.716-17.475-.322-24.205Zm0,0" transform="translate(-113.536 -6.229)" fill="#704138"/>
      <path id="Trazado_986645" data-name="Trazado 986645" d="M304.455,15.116a17.7,17.7,0,0,0-7.97-5.934,26.475,26.475,0,0,0-5.365-1.39,27.735,27.735,0,0,0-5.776-.285q1.364.075,2.715.285a26.5,26.5,0,0,1,5.365,1.39,17.7,17.7,0,0,1,7.969,5.934c5.038,6.73,5.091,17.282.323,24.2a16.3,16.3,0,0,1-9.619,6.413,29.429,29.429,0,0,1-5.783.808q-.606.033-1.213.052c1.423.05,2.847.024,4.275-.052a29.46,29.46,0,0,0,5.783-.808,16.286,16.286,0,0,0,9.617-6.413c4.77-6.923,4.716-17.475-.321-24.2Zm0,0" transform="translate(-255.032 -6.232)" fill="#633029"/>
      <path id="Trazado_986646" data-name="Trazado 986646" d="M131.652,15.076a15.531,15.531,0,0,0-1.319,5.876,14.166,14.166,0,0,1-1.924,7.543,10.943,10.943,0,0,0-1.156,8.237,10.793,10.793,0,0,0,2.616,4.869,15.269,15.269,0,0,0,5.795,3.833,20.054,20.054,0,0,0,3.857,1,17.914,17.914,0,0,0,16.566-5.924c2.5-3.237,3.44-7.468,3.55-11.487a29.172,29.172,0,0,0-1.563-9.991c-2.2-6.581-6.792-11.811-14.552-11.285a14.839,14.839,0,0,0-10.06,4.505,10.426,10.426,0,0,0-1.81,2.826Zm0,0" transform="translate(-113.536 -6.45)" fill="#ffc1b8"/>
      <path id="Trazado_986647" data-name="Trazado 986647" d="M279.416,29.018c-.112,4.018-1.047,8.25-3.551,11.486a17.476,17.476,0,0,1-11.075,6.012,16.5,16.5,0,0,1-3.966.105q.438-.041.9-.105A17.479,17.479,0,0,0,272.8,40.5c2.5-3.236,3.439-7.468,3.55-11.486a29.16,29.16,0,0,0-1.563-9.992C272.847,13.2,269.027,8.44,262.8,7.783c.168-.017.335-.03.5-.042,7.761-.526,12.355,4.7,14.552,11.284a29.18,29.18,0,0,1,1.563,9.992Zm0,0" transform="translate(-233.315 -6.446)" fill="#ffb3a8"/>
      <path id="Trazado_986648" data-name="Trazado 986648" d="M162.319,41.523a13.618,13.618,0,0,0-1.225,3.8c-.5,3.007-.176,5.153-1.821,7.857-3.095,5.086-.588,11.154,4.494,13.5,3.646,1.682,7.8,1.439,11.52.358,9.3-2.7,10.525-13.2,7.993-21.757-1.692-5.722-5.7-10.258-11.66-10.128a10.8,10.8,0,0,0-9.3,6.371Zm0,0" transform="translate(-141.262 -30.997)" fill="#e57670"/>
      <path id="Trazado_986649" data-name="Trazado 986649" d="M260.946,67.035a19.325,19.325,0,0,1-7.269.777,21.622,21.622,0,0,0,4-.777c9.3-2.7,10.526-13.2,7.994-21.758-1.5-5.087-4.842-9.236-9.75-10a9.578,9.578,0,0,1,1.36-.126c5.956-.129,9.967,4.407,11.659,10.129C271.471,53.838,270.246,64.332,260.946,67.035Zm0,0" transform="translate(-226.922 -30.994)" fill="#e05c56"/>
      <path id="Trazado_986650" data-name="Trazado 986650" d="M264.432,74.814c2.724,3.029,7.2.619,7.044-3.148a13.355,13.355,0,0,0-2.706-6.705A11,11,0,0,0,264.62,61.5c-1.673-.762-4.011-1.592-5.677-.325a2.668,2.668,0,0,0-.365,3.506c.73,1.3,2.309,1.527,3.168,2.712,1.589,2.193.86,5.39,2.684,7.419Zm0,0" transform="translate(-230.879 -53.693)" fill="#ffc1b8"/>
      <path id="Trazado_986651" data-name="Trazado 986651" d="M270.156,75.834a4.366,4.366,0,0,0,.786-2.712,13.349,13.349,0,0,0-2.706-6.706,10.992,10.992,0,0,0-4.149-3.459c-1.341-.611-3.111-1.266-4.618-.847a2.064,2.064,0,0,1,.7-.936c1.666-1.267,4-.436,5.676.326a11,11,0,0,1,4.149,3.457,13.35,13.35,0,0,1,2.706,6.706A4.35,4.35,0,0,1,270.156,75.834Zm0,0" transform="translate(-232.103 -53.69)" fill="#ffb3a8"/>
      <path id="Trazado_986652" data-name="Trazado 986652" d="M43.023,76.674a17.7,17.7,0,0,0-7.969-5.933,26.472,26.472,0,0,0-5.365-1.39,27.683,27.683,0,0,0-6.1-.265,14.835,14.835,0,0,0-10.06,4.5,10.44,10.44,0,0,0-1.81,2.827A15.543,15.543,0,0,0,10.4,82.293a14.168,14.168,0,0,1-1.924,7.543,10.945,10.945,0,0,0-1.156,8.236,10.8,10.8,0,0,0,2.616,4.869,15.265,15.265,0,0,0,5.795,3.833,20.057,20.057,0,0,0,3.857,1,40.068,40.068,0,0,0,8.36.328,29.464,29.464,0,0,0,5.783-.808,16.288,16.288,0,0,0,9.617-6.413c4.77-6.923,4.716-17.475-.322-24.206Zm0,0" transform="translate(-6.25 -61.298)" fill="#704138"/>
      <path id="Trazado_986653" data-name="Trazado 986653" d="M184.522,76.676a17.7,17.7,0,0,0-7.97-5.934,26.5,26.5,0,0,0-5.365-1.39,27.684,27.684,0,0,0-5.776-.285q1.364.075,2.715.285a26.509,26.509,0,0,1,5.365,1.39,17.7,17.7,0,0,1,7.969,5.934c5.038,6.73,5.091,17.282.323,24.2a16.3,16.3,0,0,1-9.619,6.413,29.491,29.491,0,0,1-5.783.808q-.606.032-1.212.052c1.423.05,2.846.024,4.275-.052a29.487,29.487,0,0,0,5.783-.808,16.289,16.289,0,0,0,9.617-6.413c4.77-6.923,4.716-17.475-.321-24.2Zm0,0" transform="translate(-147.748 -61.299)" fill="#633029"/>
      <path id="Trazado_986654" data-name="Trazado 986654" d="M11.714,76.639A15.535,15.535,0,0,0,10.4,82.515a14.168,14.168,0,0,1-1.924,7.543,10.941,10.941,0,0,0-1.156,8.236,10.8,10.8,0,0,0,2.616,4.869A15.271,15.271,0,0,0,15.725,107a20.061,20.061,0,0,0,3.857,1,17.329,17.329,0,0,0,5.49.088,17.482,17.482,0,0,0,11.076-6.012c2.5-3.236,3.44-7.468,3.55-11.487a29.162,29.162,0,0,0-1.563-9.991c-2.2-6.581-6.791-11.81-14.552-11.284a14.837,14.837,0,0,0-10.061,4.5,10.448,10.448,0,0,0-1.81,2.827Zm0,0" transform="translate(-6.248 -61.52)" fill="#ffc1b8"/>
      <path id="Trazado_986655" data-name="Trazado 986655" d="M159.482,90.58c-.111,4.018-1.047,8.25-3.55,11.486a17.475,17.475,0,0,1-11.075,6.012,16.52,16.52,0,0,1-3.966.105q.438-.041.9-.105a17.479,17.479,0,0,0,11.076-6.012c2.5-3.236,3.439-7.468,3.549-11.486a29.147,29.147,0,0,0-1.562-9.992c-1.944-5.822-5.764-10.586-11.994-11.242.168-.017.335-.03.5-.042,7.761-.526,12.355,4.7,14.552,11.284a29.178,29.178,0,0,1,1.563,9.992Zm0,0" transform="translate(-126.031 -61.516)" fill="#ffb3a8"/>
      <path id="Trazado_986656" data-name="Trazado 986656" d="M42.384,103.086a13.584,13.584,0,0,0-1.225,3.8c-.5,3.007-.177,5.153-1.821,7.857-3.1,5.086-.588,11.154,4.494,13.5,3.646,1.682,7.8,1.439,11.52.358,9.3-2.7,10.526-13.2,7.994-21.757-1.693-5.722-5.7-10.258-11.66-10.128a10.8,10.8,0,0,0-9.3,6.371Zm0,0" transform="translate(-33.977 -86.067)" fill="#e57670"/>
      <path id="Trazado_986657" data-name="Trazado 986657" d="M141.011,128.6a19.315,19.315,0,0,1-7.269.778,21.656,21.656,0,0,0,4-.778c9.3-2.7,10.526-13.2,7.994-21.758-1.5-5.087-4.842-9.236-9.75-10a9.513,9.513,0,0,1,1.36-.126c5.956-.13,9.967,4.407,11.659,10.128C151.537,115.4,150.312,125.9,141.011,128.6Zm0,0" transform="translate(-119.637 -86.064)" fill="#e05c56"/>
      <path id="Trazado_986658" data-name="Trazado 986658" d="M43.44,123.943a14.6,14.6,0,0,1-6.16-1.282,10.792,10.792,0,0,1-5.85-6.6,9.688,9.688,0,0,1,1.034-7.953,10.882,10.882,0,0,0,1.43-5.2c.074-.754.15-1.532.294-2.4a14.3,14.3,0,0,1,1.292-4.006,11.466,11.466,0,0,1,9.945-6.78A11.073,11.073,0,0,1,53.375,92.8a16.867,16.867,0,0,1,4.434,7.588,27.8,27.8,0,0,1,1.17,8.581,17.651,17.651,0,0,1-1.987,8.013,12.346,12.346,0,0,1-7.676,6.079,21.322,21.322,0,0,1-5.875.885Zm2.243-32.758A9.055,9.055,0,0,0,40.1,93.2a12.3,12.3,0,0,0-4.454,7.555c-.136.814-.209,1.568-.281,2.3a12.361,12.361,0,0,1-1.638,5.822,8.231,8.231,0,0,0-.884,6.757,9.319,9.319,0,0,0,5.057,5.69c3.867,1.783,8.12,1.158,11.006.32a10.921,10.921,0,0,0,6.795-5.371c2.143-3.92,2.4-9.7.7-15.47a14.918,14.918,0,0,0-4.436-7.289,9.91,9.91,0,0,0-3.29-1.847,9.462,9.462,0,0,0-2.987-.482Zm-9.542,5.651h0Zm0,0" transform="translate(-27.734 -79.817)"/>
      <path id="Trazado_986659" data-name="Trazado 986659" d="M144.5,136.374c2.724,3.029,7.2.618,7.044-3.149a13.359,13.359,0,0,0-2.706-6.705,11,11,0,0,0-4.149-3.459c-1.673-.761-4.011-1.592-5.677-.325a2.669,2.669,0,0,0-.365,3.507c.731,1.3,2.309,1.527,3.168,2.712C143.4,131.149,142.671,134.345,144.5,136.374Zm0,0" transform="translate(-123.592 -108.76)" fill="#ffc1b8"/>
      <path id="Trazado_986660" data-name="Trazado 986660" d="M150.218,137.392A4.36,4.36,0,0,0,151,134.68a13.347,13.347,0,0,0-2.706-6.706,10.988,10.988,0,0,0-4.149-3.459c-1.341-.611-3.111-1.266-4.618-.847a2.067,2.067,0,0,1,.7-.936c1.666-1.267,4-.436,5.676.326a11,11,0,0,1,4.149,3.457,13.355,13.355,0,0,1,2.705,6.706,4.349,4.349,0,0,1-2.543,4.171Zm0,0" transform="translate(-124.815 -108.757)" fill="#ffb3a8"/>
      <path id="Trazado_986661" data-name="Trazado 986661" d="M68.49,183.1a12.519,12.519,0,0,1-1.058,3.4,20.91,20.91,0,0,0-1.531,4.631,6.78,6.78,0,0,0,.74,4.68,6.215,6.215,0,0,0,5.007,2.667c1.748.086,3.971-.839,3.843-2.862-.122-1.932-2.153-2.942-2.682-4.7a11.786,11.786,0,0,1-.051-5.586c.37-2.286,1.8-4.8-.4-6.685a2.373,2.373,0,0,0-3.385.242c-.807,1.24-.33,2.841-.48,4.212Zm0,0" transform="translate(-58.845 -158.826)" fill="#ffc1b8"/>
      <path id="Trazado_986662" data-name="Trazado 986662" d="M184.5,286.828c-.6.857-.981,1.844-1.57,2.7a20.378,20.378,0,0,1-2.223,2.076c-1.369,1.467-.021,2.918,1.725,2.845a6.29,6.29,0,0,0,5.923-6.471C188.263,285.411,186.034,284.633,184.5,286.828Zm0,0" transform="translate(-161.149 -254.983)" fill="#ffc1b8"/>
      <path id="Trazado_986663" data-name="Trazado 986663" d="M183.075,294.493a2.178,2.178,0,0,1-2.212-1.191,2.885,2.885,0,0,0,.763.068,6.289,6.289,0,0,0,5.923-6.471,3.4,3.4,0,0,0-.285-1.3c.924.073,1.679.955,1.734,2.424A6.29,6.29,0,0,1,183.075,294.493Zm0,0" transform="translate(-161.788 -255.03)" fill="#ffb3a8"/>
      <path id="Trazado_986664" data-name="Trazado 986664" d="M115.233,185.178a5.355,5.355,0,0,1-.243,2.791c-.382.819-.952,1.534-1.387,2.324a5.588,5.588,0,0,0-.19,4.6,3.756,3.756,0,0,0,2.253,2.212c1.423.4,2.679-.652,3.938-1.114a3.446,3.446,0,0,1,3.146.35,2.858,2.858,0,0,0,2.143.617,3.642,3.642,0,0,0,2.036-2.243c1.2-3.754-1.449-8.089-4.121-10.544-1.355-1.246-2.775-2.4-4.672-2.158-1.776.229-2.992,1.224-2.9,3.161Zm0,0" transform="translate(-101.09 -162.345)" fill="#d33737"/>
      <path id="Trazado_986665" data-name="Trazado 986665" d="M149.089,194.721a3.638,3.638,0,0,1-2.036,2.243,1.533,1.533,0,0,1-.764.02,3.718,3.718,0,0,0,.424-.873c1.2-3.754-1.45-8.089-4.121-10.544-1.355-1.246-2.775-2.4-4.672-2.159l-.138.019a3.26,3.26,0,0,1,2.516-1.408c1.9-.245,3.316.912,4.671,2.157,2.671,2.456,5.319,6.79,4.12,10.544Zm0,0" transform="translate(-123.25 -162.348)" fill="#bc2222"/>
      <path id="Trazado_986666" data-name="Trazado 986666" d="M168.809,228.962a2.154,2.154,0,1,1-2.154-2.154A2.154,2.154,0,0,1,168.809,228.962Zm0,0" transform="translate(-147.151 -202.442)" fill="#ffc1b8"/>
      <path id="Trazado_986667" data-name="Trazado 986667" d="M174.074,231.086a2.144,2.144,0,0,1-1.684-.424,2.128,2.128,0,0,0,.359-.03,2.154,2.154,0,0,0,.961-3.824,2.154,2.154,0,0,1,.364,4.278Zm0,0" transform="translate(-154.209 -202.442)" fill="#ffb3a8"/>
      <path id="Trazado_986668" data-name="Trazado 986668" d="M79.473,132.876a8.7,8.7,0,0,0-.178-1.677,5.128,5.128,0,0,0,1.993-4.285,14.222,14.222,0,0,0-2.853-7.116A11.72,11.72,0,0,0,74,116.11a8.284,8.284,0,0,0-4.713-.979,3.342,3.342,0,0,0-2.845,2.945,4.269,4.269,0,0,0,.569,2.247,4.1,4.1,0,0,0,1.354,1.384,3.889,3.889,0,0,0-1.161.664,4.56,4.56,0,0,0-.612-.635A3.393,3.393,0,0,0,63.968,121a2.6,2.6,0,0,0-1.855,1.135,5.3,5.3,0,0,0-.586,3.241,10.132,10.132,0,0,1-1.014,4.489,21.52,21.52,0,0,0-1.579,4.8,8.482,8.482,0,0,0,.112,3.472.737.737,0,0,0,1.426-.372,7.006,7.006,0,0,1-.083-2.863,20.429,20.429,0,0,1,1.484-4.465A11.676,11.676,0,0,0,63,125.319a4.082,4.082,0,0,1,.349-2.38,1.154,1.154,0,0,1,.828-.48,1.934,1.934,0,0,1,1.459.4,2.8,2.8,0,0,1,.65.778,6.519,6.519,0,0,1-.243.937c-.139,1.069.271,2.2-.2,3.223-.385.826-.929,1.489-1.365,2.28a6.347,6.347,0,0,0-.227,5.236,4.487,4.487,0,0,0,2.737,2.646,3.13,3.13,0,0,0,.85.117c.075,0,.148,0,.222-.009a2.556,2.556,0,0,1,.46,1.249,1.514,1.514,0,0,1-.454,1.219,3.612,3.612,0,0,1-2.618.861,6.077,6.077,0,0,1-3.3-1.124.737.737,0,1,0-.878,1.184c2.124,1.575,5.8,2.188,7.844.114a2.991,2.991,0,0,0,.875-2.347,3.768,3.768,0,0,0-.452-1.544c.3-.126.585-.269.861-.406a10.1,10.1,0,0,1,.979-.446,2.577,2.577,0,0,1,2.151.1,7.69,7.69,0,0,1-.861.758,9.244,9.244,0,0,0-1.035.915,2.289,2.289,0,0,0-.574,2.575,2.925,2.925,0,0,0,2.713,1.513c.051,0,.1,0,.154,0a7.053,7.053,0,0,0,6.629-7.235,3.5,3.5,0,0,0-1.079-2.568ZM68.3,119.6c-.356-.632-.72-1.883.169-2.559.648-.492,1.862-.985,4.926.41a10.248,10.248,0,0,1,3.865,3.23,12.672,12.672,0,0,1,2.559,6.295,3.6,3.6,0,0,1-.973,2.645,15.571,15.571,0,0,0-4.02-5.853,7.533,7.533,0,0,0-4.239-2.366,10.23,10.23,0,0,0-.89-.6,3.642,3.642,0,0,1-1.4-1.2Zm4.69,15.615a4.154,4.154,0,0,0-2.122.222,11.335,11.335,0,0,0-1.128.51,3.4,3.4,0,0,1-2.357.586,3.048,3.048,0,0,1-1.769-1.779,4.819,4.819,0,0,1,.152-3.974c.169-.308.362-.605.566-.92a11.948,11.948,0,0,0,.842-1.448,6.4,6.4,0,0,0,.312-3.136c-.063-1.388.7-2.195,2.262-2.4s2.776.772,4.079,1.97a14.722,14.722,0,0,1,3.34,4.547,7.447,7.447,0,0,1,.578,5.23,2.934,2.934,0,0,1-1.547,1.761c-.516.156-1.034-.282-1.472-.478a7.974,7.974,0,0,0-1.736-.7Zm.874,5.99a1.537,1.537,0,0,1-1.468-.653c-.157-.343.083-.708.313-.954a7.944,7.944,0,0,1,.875-.768,7.238,7.238,0,0,0,1.275-1.2,2.548,2.548,0,0,0,1.764.173,4.275,4.275,0,0,0,2.445-2.5c.006.063.011.128.014.194A5.558,5.558,0,0,1,73.861,141.206Zm0,0" transform="translate(-52.605 -102.479)"/>
      <path id="Trazado_986669" data-name="Trazado 986669" d="M163.249,222.221a2.89,2.89,0,1,0-2.856,3.377,2.9,2.9,0,0,0,2.856-3.377Zm-2.612,1.883a1.418,1.418,0,0,1-.476-2.795,1.45,1.45,0,0,1,.241-.021,1.418,1.418,0,0,1,.235,2.815Zm0,0" transform="translate(-140.895 -196.186)"/>
      <path id="Trazado_986670" data-name="Trazado 986670" d="M54,20.906A21.265,21.265,0,0,0,50.012,8.442c-.114-.152-.232-.3-.35-.452a.737.737,0,0,0-1.151.92c.109.136.217.276.321.415a19.782,19.782,0,0,1,3.692,11.6,20.439,20.439,0,0,1-3.387,11.749,15.607,15.607,0,0,1-9.195,6.118c-.54.139-1.1.259-1.691.362q.26-.426.5-.867a15.572,15.572,0,0,0,4.38-3.774c2.29-2.961,3.571-7.082,3.7-11.917a29.747,29.747,0,0,0-1.6-10.245,19.141,19.141,0,0,0-5.408-8.631,13.678,13.678,0,0,0-1.106-.86,23.805,23.805,0,0,1,2.468.784,17.519,17.519,0,0,1,4.922,2.836.737.737,0,1,0,.937-1.137,19,19,0,0,0-5.334-3.076A27.235,27.235,0,0,0,36.2.833c-5.83-.9-12.655-.155-16.824,4.475a10.894,10.894,0,0,0-1.254,1.7,17.04,17.04,0,0,0-9.593,3.15,12.626,12.626,0,0,0-1.8,1.643,11.137,11.137,0,0,0-1.937,3.023A16.215,16.215,0,0,0,3.41,20.986,13.329,13.329,0,0,1,1.6,28.152,11.414,11.414,0,0,0,.069,35.316,12.575,12.575,0,0,0,.35,36.947a11.525,11.525,0,0,0,2.8,5.2,16.02,16.02,0,0,0,6.075,4.019,20.815,20.815,0,0,0,4,1.035c.187.029.367.055.546.08a36.928,36.928,0,0,0,5.128.336c.9,0,1.846-.027,2.839-.08a29.809,29.809,0,0,0,5.928-.831,17.285,17.285,0,0,0,9.44-5.9,25.177,25.177,0,0,0,3.21-.6,17.06,17.06,0,0,0,10.04-6.709A21.925,21.925,0,0,0,54,20.906ZM20.473,6.293a13.014,13.014,0,0,1,6.072-3.65,13.932,13.932,0,0,1,7.914-.195,11.536,11.536,0,0,1,4.408,2.382,17.7,17.7,0,0,1,4.972,7.983,28.275,28.275,0,0,1,1.526,9.738c-.087,3.153-.747,7.63-3.4,11.056a12.586,12.586,0,0,1-2.024,2.044,22.251,22.251,0,0,0,.962-3.42,13.1,13.1,0,0,0,1-1.562,17.651,17.651,0,0,0,1.988-8.014,27.812,27.812,0,0,0-1.17-8.58A16.863,16.863,0,0,0,38.29,6.487a11.071,11.071,0,0,0-7.948-3.068,10.892,10.892,0,0,0-7.91,3.755c-.835-.1-1.681-.161-2.53-.183.179-.241.369-.475.57-.7ZM39.729,19.155a18.98,18.98,0,0,0-2.366-4.22,18.557,18.557,0,0,0-8.3-6.181c-.292-.111-.59-.216-.892-.318a1.373,1.373,0,0,1,.337-.367,2.5,2.5,0,0,1,1.608-.5,8.3,8.3,0,0,1,3.318.913,10.248,10.248,0,0,1,3.865,3.23A12.671,12.671,0,0,1,39.86,18a3.676,3.676,0,0,1-.13,1.151Zm1.6-1.214a14.223,14.223,0,0,0-2.852-7.116,11.721,11.721,0,0,0-4.433-3.687C32.236,6.314,29.6,5.391,27.619,6.9A2.8,2.8,0,0,0,26.74,8q-1.211-.33-2.5-.56a9.3,9.3,0,0,1,6.136-2.548l.225,0c4.934,0,8.929,3.573,10.712,9.6,1.489,5.034,1.479,10.08.027,13.889q.015-.491.01-.983a23.013,23.013,0,0,0-.937-6.3,5.137,5.137,0,0,0,.92-3.158ZM18.724,45.833a18.609,18.609,0,0,1-8.991-1.048,14.97,14.97,0,0,1-5.514-3.647A10.35,10.35,0,0,1,2.851,28.924,14.708,14.708,0,0,0,4.884,21a12.558,12.558,0,0,1,2.94-8.219,12.927,12.927,0,0,1,5.841-3.581,16.439,16.439,0,0,1,3.721-.682q.511-.035,1.009-.035a11.624,11.624,0,0,1,7.822,2.834,17.706,17.706,0,0,1,4.973,7.983,28.286,28.286,0,0,1,1.525,9.738c-.087,3.153-.747,7.63-3.4,11.057a16.825,16.825,0,0,1-10.594,5.733Zm17.764-6.67a15.609,15.609,0,0,1-9.195,6.118,24.267,24.267,0,0,1-3.356.6A16.646,16.646,0,0,0,30.484,41c2.29-2.96,3.571-7.082,3.7-11.917a29.737,29.737,0,0,0-1.6-10.245,19.137,19.137,0,0,0-5.408-8.631,13.6,13.6,0,0,0-1.106-.859,23.714,23.714,0,0,1,2.468.784,16.859,16.859,0,0,1,7.642,5.686,19.78,19.78,0,0,1,3.691,11.6,20.438,20.438,0,0,1-3.386,11.749Zm0,0" transform="translate(0 0)"/>
    </g>
  </g>
</svg>
