<svg xmlns="http://www.w3.org/2000/svg" xmlns:xlink="http://www.w3.org/1999/xlink" width="93.934" height="93.934" viewBox="0 0 93.934 93.934">
  <defs>
    <filter id="Trazado_982547" x="0" y="0" width="93.934" height="93.934" filterUnits="userSpaceOnUse">
      <feOffset dy="3" input="SourceAlpha"/>
      <feGaussianBlur stdDeviation="3" result="blur"/>
      <feFlood flood-opacity="0.161"/>
      <feComposite operator="in" in2="blur"/>
      <feComposite in="SourceGraphic"/>
    </filter>
  </defs>
  <g id="Grupo_1174479" data-name="Grupo 1174479" transform="translate(-194.066 -4744)">
    <g id="Grupo_1173823" data-name="Grupo 1173823" transform="translate(203.066 4750)">
      <g id="Grupo_1167337" data-name="Grupo 1167337">
        <g id="Grupo_1166720" data-name="Grupo 1166720">
          <g id="Grupo_1164305" data-name="Grupo 1164305">
            <g id="Grupo_1163948" data-name="Grupo 1163948">
              <g id="Grupo_1158168" data-name="Grupo 1158168">
                <g id="Grupo_1152576" data-name="Grupo 1152576">
                  <g id="Grupo_1148633" data-name="Grupo 1148633">
                    <g id="Grupo_1148525" data-name="Grupo 1148525">
                      <g transform="matrix(1, 0, 0, 1, -9, -6)" filter="url(#Trazado_982547)">
                        <g id="Trazado_982547-2" data-name="Trazado 982547" transform="translate(9 6)" fill="#eef8f2">
                          <path d="M 37.966796875 74.43359375 C 33.04315185546875 74.43359375 28.26757431030273 73.46962738037109 23.77274131774902 71.56847381591797 C 19.43047523498535 69.73184967041016 15.53040790557861 67.10224914550781 12.18087482452393 63.75271987915039 C 8.831341743469238 60.4031867980957 6.201741218566895 56.50312042236328 4.365118980407715 52.16086196899414 C 2.463963508605957 47.66601943969727 1.499996900558472 42.89044189453125 1.499996900558472 37.966796875 C 1.499996900558472 33.04315185546875 2.463963508605957 28.26757431030273 4.365118980407715 23.77274131774902 C 6.201741218566895 19.43047523498535 8.831341743469238 15.53040790557861 12.18087482452393 12.18087482452393 C 15.53040790557861 8.831341743469238 19.43047523498535 6.201741218566895 23.77274131774902 4.365118980407715 C 28.26757431030273 2.463963508605957 33.04315185546875 1.499996900558472 37.966796875 1.499996900558472 C 42.89044189453125 1.499996900558472 47.66601943969727 2.463963508605957 52.16086196899414 4.365118980407715 C 56.50312042236328 6.201741218566895 60.4031867980957 8.831341743469238 63.75271987915039 12.18087482452393 C 67.10224914550781 15.53040790557861 69.73184967041016 19.43047523498535 71.56847381591797 23.77274131774902 C 73.46962738037109 28.26757431030273 74.43359375 33.04315185546875 74.43359375 37.966796875 C 74.43359375 42.89044189453125 73.46962738037109 47.66601943969727 71.56847381591797 52.16086196899414 C 69.73184967041016 56.50313186645508 67.10224914550781 60.4031867980957 63.75271987915039 63.75271987915039 C 60.4031867980957 67.10224914550781 56.50313186645508 69.73184967041016 52.16086196899414 71.56847381591797 C 47.66601943969727 73.46962738037109 42.89044189453125 74.43359375 37.966796875 74.43359375 Z" stroke="none"/>
                          <path d="M 37.966796875 3 C 33.2449836730957 3 28.66600799560547 3.924095153808594 24.35705947875977 5.746635437011719 C 20.19359588623047 7.507637023925781 16.45379638671875 10.02928161621094 13.24153518676758 13.24153518676758 C 10.02927398681641 16.45379638671875 7.507621765136719 20.19359588623047 5.746635437011719 24.35705947875977 C 3.924095153808594 28.66600799560547 3 33.2449836730957 3 37.966796875 C 3 42.6886100769043 3.924095153808594 47.26758575439453 5.746635437011719 51.57653427124023 C 7.507621765136719 55.73999786376953 10.02927398681641 59.47979736328125 13.24153518676758 62.69205856323242 C 16.45379638671875 65.90431976318359 20.19359588623047 68.42597198486328 24.35705947875977 70.18695831298828 C 28.66600799560547 72.00949859619141 33.2449836730957 72.93359375 37.966796875 72.93359375 C 42.6886100769043 72.93359375 47.26758575439453 72.00949859619141 51.57653427124023 70.18695831298828 C 55.73999786376953 68.42597198486328 59.47979736328125 65.90431976318359 62.69205856323242 62.69205856323242 C 65.90431976318359 59.47979736328125 68.42597198486328 55.73999786376953 70.18695831298828 51.57653427124023 C 72.00949859619141 47.26758575439453 72.93359375 42.6886100769043 72.93359375 37.966796875 C 72.93359375 33.2449836730957 72.00949859619141 28.66600799560547 70.18695831298828 24.35705947875977 C 68.42597198486328 20.19359588623047 65.90431976318359 16.45379638671875 62.69205856323242 13.24153518676758 C 59.47979736328125 10.02928161621094 55.73999786376953 7.507637023925781 51.57653427124023 5.746635437011719 C 47.26758575439453 3.924095153808594 42.6886100769043 3 37.966796875 3 M 37.966796875 0 C 58.93528366088867 0 75.93359375 16.99832153320312 75.93359375 37.966796875 C 75.93359375 58.93528366088867 58.93528366088867 75.93359375 37.966796875 75.93359375 C 16.99831008911133 75.93359375 0 58.93528366088867 0 37.966796875 C 0 16.99832153320312 16.99831008911133 0 37.966796875 0 Z" stroke="none" fill="#87b098"/>
                        </g>
                      </g>
                    </g>
                  </g>
                </g>
              </g>
            </g>
          </g>
        </g>
      </g>
    </g>
    <g id="ham_6598116" transform="translate(213.09 4762)">
      <path id="Trazado_986691" data-name="Trazado 986691" d="M46.273,13.366v26.38A12.385,12.385,0,0,0,33.907,27.38H22.366A12.37,12.37,0,0,0,10,39.746V13.366A12.385,12.385,0,0,1,22.366,1H33.907A12.37,12.37,0,0,1,46.273,13.366Z" transform="translate(-0.176 -0.176)" fill="#8c4b4b"/>
      <path id="Trazado_986692" data-name="Trazado 986692" d="M42.646,36.627a12.358,12.358,0,0,1-8.738,21.1H22.366a12.366,12.366,0,1,1,0-24.732H33.907a12.3,12.3,0,0,1,8.738,3.627Zm-1.319,8.738a7.431,7.431,0,0,0-7.419-7.419H22.366a7.419,7.419,0,0,0,0,14.839H33.907a7.431,7.431,0,0,0,7.419-7.419Z" transform="translate(-0.176 -5.795)" fill="#e47f7f"/>
      <path id="Trazado_986693" data-name="Trazado 986693" d="M34.961,39a7.419,7.419,0,0,1,0,14.839H23.419a7.419,7.419,0,0,1,0-14.839Zm2.473,7.419a2.481,2.481,0,0,0-2.473-2.473H23.419a2.473,2.473,0,0,0,0,4.946H34.961a2.481,2.481,0,0,0,2.473-2.473Z" transform="translate(-1.229 -6.849)" fill="#d74c4c"/>
      <path id="Trazado_986694" data-name="Trazado 986694" d="M36.015,45a2.473,2.473,0,0,1,0,4.946H24.473a2.473,2.473,0,0,1,0-4.946Z" transform="translate(-2.283 -7.903)" fill="#e47f7f"/>
      <g id="Grupo_1174478" data-name="Grupo 1174478" transform="translate(9 0)">
        <path id="Trazado_986695" data-name="Trazado 986695" d="M33.732,0H22.19A13.207,13.207,0,0,0,9,13.19v26.38a13.209,13.209,0,0,0,13.19,13.19H33.732a13.206,13.206,0,0,0,13.19-13.19V13.19A13.206,13.206,0,0,0,33.732,0Zm0,26.38H23.015V21.434h9.893v2.473a.824.824,0,1,0,1.649,0V21.476A11.432,11.432,0,0,1,39.5,23v4.725a13.108,13.108,0,0,0-5.771-1.34ZM16.419,27.728V23a11.432,11.432,0,0,1,4.946-1.519v4.946a13.068,13.068,0,0,0-4.946,1.306Zm6.6-12.889h9.893v4.946H23.015Zm9.893-1.649H23.015V8.244h9.893Zm-11.541.042a13.068,13.068,0,0,0-4.946,1.306V9.805a11.432,11.432,0,0,1,4.946-1.519Zm0,1.649v4.946a13.068,13.068,0,0,0-4.946,1.306V16.4a11.432,11.432,0,0,1,4.946-1.519Zm13.19,4.946V14.881A11.432,11.432,0,0,1,39.5,16.4v4.733a13.068,13.068,0,0,0-4.946-1.306Zm0-6.6V8.286A11.432,11.432,0,0,1,39.5,9.805v4.733a13.068,13.068,0,0,0-4.946-1.306Zm0-6.6V1.691A11.432,11.432,0,0,1,39.5,3.21V7.943a13.068,13.068,0,0,0-4.946-1.306ZM32.907,1.649V6.6H23.015V4.122a.824.824,0,0,0-1.649,0V6.637a13.068,13.068,0,0,0-4.946,1.306V3.208A11.432,11.432,0,0,1,22.19,1.649ZM10.649,13.19c0-3.084,2.163-7.6,4.122-8.826V8.889a11.6,11.6,0,0,0-4.122,4.3Zm0,7.07a12.531,12.531,0,0,1,4.122-9.3v4.526a10.333,10.333,0,0,0-4.122,4.776Zm0,6.6a12.531,12.531,0,0,1,4.122-9.3v4.526a12.168,12.168,0,0,0-4.122,4.776Zm0,6.12a11.515,11.515,0,0,1,4.121-8.827v4.525a14.577,14.577,0,0,0-4.122,4.3ZM33.732,51.112H22.19a11.541,11.541,0,1,1,0-23.083H33.732a11.541,11.541,0,0,1,0,23.083ZM43.054,30.25a13.267,13.267,0,0,0-1.9-1.578V24.148a11.516,11.516,0,0,1,4.122,8.828,29.473,29.473,0,0,0-2.219-2.725Zm-1.9-8.171V17.553a12.531,12.531,0,0,1,4.122,9.3,12.7,12.7,0,0,0-4.122-4.776Zm0-6.6V10.958a12.531,12.531,0,0,1,4.122,9.3A13.034,13.034,0,0,0,41.151,15.484Zm0-6.6V4.363a11.516,11.516,0,0,1,4.122,8.828,13.82,13.82,0,0,0-4.122-4.3Z" transform="translate(-9 0)" fill="#252525"/>
        <path id="Trazado_986696" data-name="Trazado 986696" d="M34.785,38H23.244a8.244,8.244,0,0,0,0,16.488H34.785a.824.824,0,1,0,0-1.649H23.244a6.6,6.6,0,0,1,0-13.19H34.785a6.6,6.6,0,0,1,6.6,6.6.824.824,0,1,0,1.649,0A8.253,8.253,0,0,0,34.785,38Z" transform="translate(-10.054 -6.673)" fill="#252525"/>
        <path id="Trazado_986697" data-name="Trazado 986697" d="M35.839,44H27.6a.824.824,0,1,0,0,1.649h8.244a1.649,1.649,0,0,1,0,3.3H24.3A1.649,1.649,0,0,1,22.649,47.3.824.824,0,1,0,21,47.3a3.3,3.3,0,0,0,3.3,3.3H35.839a3.3,3.3,0,0,0,0-6.6Z" transform="translate(-11.107 -7.727)" fill="#252525"/>
        <circle id="Elipse_11731" data-name="Elipse 11731" cx="1" cy="1" r="1" transform="translate(11.961 36.38)" fill="#252525"/>
        <circle id="Elipse_11732" data-name="Elipse 11732" cx="0.5" cy="0.5" r="0.5" transform="translate(30.961 42.38)" fill="#252525"/>
      </g>
    </g>
  </g>
</svg>
