<svg xmlns="http://www.w3.org/2000/svg" xmlns:xlink="http://www.w3.org/1999/xlink" width="93.934" height="93.934" viewBox="0 0 93.934 93.934">
  <defs>
    <filter id="Trazado_982547" x="0" y="0" width="93.934" height="93.934" filterUnits="userSpaceOnUse">
      <feOffset dy="3" input="SourceAlpha"/>
      <feGaussianBlur stdDeviation="3" result="blur"/>
      <feFlood flood-opacity="0.161"/>
      <feComposite operator="in" in2="blur"/>
      <feComposite in="SourceGraphic"/>
    </filter>
    <clipPath id="clip-path">
      <path id="path5100" d="M0-682.665H63.046v63.046H0Z" transform="translate(0 682.665)"/>
    </clipPath>
  </defs>
  <g id="Grupo_1174477" data-name="Grupo 1174477" transform="translate(-509.066 -4744)">
    <g id="Grupo_1173821" data-name="Grupo 1173821" transform="translate(518.066 4750)">
      <g id="Grupo_1167337" data-name="Grupo 1167337">
        <g id="Grupo_1166720" data-name="Grupo 1166720">
          <g id="Grupo_1164305" data-name="Grupo 1164305">
            <g id="Grupo_1163948" data-name="Grupo 1163948">
              <g id="Grupo_1158168" data-name="Grupo 1158168">
                <g id="Grupo_1152576" data-name="Grupo 1152576">
                  <g id="Grupo_1148633" data-name="Grupo 1148633">
                    <g id="Grupo_1148525" data-name="Grupo 1148525">
                      <g transform="matrix(1, 0, 0, 1, -9, -6)" filter="url(#Trazado_982547)">
                        <g id="Trazado_982547-2" data-name="Trazado 982547" transform="translate(9 6)" fill="#eef8f2">
                          <path d="M 37.966796875 74.43359375 C 33.04315185546875 74.43359375 28.26757431030273 73.46962738037109 23.77274131774902 71.56847381591797 C 19.43047523498535 69.73184967041016 15.53040790557861 67.10224914550781 12.18087482452393 63.75271987915039 C 8.831341743469238 60.4031867980957 6.201741218566895 56.50312042236328 4.365118980407715 52.16086196899414 C 2.463963508605957 47.66601943969727 1.499996900558472 42.89044189453125 1.499996900558472 37.966796875 C 1.499996900558472 33.04315185546875 2.463963508605957 28.26757431030273 4.365118980407715 23.77274131774902 C 6.201741218566895 19.43047523498535 8.831341743469238 15.53040790557861 12.18087482452393 12.18087482452393 C 15.53040790557861 8.831341743469238 19.43047523498535 6.201741218566895 23.77274131774902 4.365118980407715 C 28.26757431030273 2.463963508605957 33.04315185546875 1.499996900558472 37.966796875 1.499996900558472 C 42.89044189453125 1.499996900558472 47.66601943969727 2.463963508605957 52.16086196899414 4.365118980407715 C 56.50312042236328 6.201741218566895 60.4031867980957 8.831341743469238 63.75271987915039 12.18087482452393 C 67.10224914550781 15.53040790557861 69.73184967041016 19.43047523498535 71.56847381591797 23.77274131774902 C 73.46962738037109 28.26757431030273 74.43359375 33.04315185546875 74.43359375 37.966796875 C 74.43359375 42.89044189453125 73.46962738037109 47.66601943969727 71.56847381591797 52.16086196899414 C 69.73184967041016 56.50313186645508 67.10224914550781 60.4031867980957 63.75271987915039 63.75271987915039 C 60.4031867980957 67.10224914550781 56.50313186645508 69.73184967041016 52.16086196899414 71.56847381591797 C 47.66601943969727 73.46962738037109 42.89044189453125 74.43359375 37.966796875 74.43359375 Z" stroke="none"/>
                          <path d="M 37.966796875 3 C 33.2449836730957 3 28.66600799560547 3.924095153808594 24.35705947875977 5.746635437011719 C 20.19359588623047 7.507637023925781 16.45379638671875 10.02928161621094 13.24153518676758 13.24153518676758 C 10.02927398681641 16.45379638671875 7.507621765136719 20.19359588623047 5.746635437011719 24.35705947875977 C 3.924095153808594 28.66600799560547 3 33.2449836730957 3 37.966796875 C 3 42.6886100769043 3.924095153808594 47.26758575439453 5.746635437011719 51.57653427124023 C 7.507621765136719 55.73999786376953 10.02927398681641 59.47979736328125 13.24153518676758 62.69205856323242 C 16.45379638671875 65.90431976318359 20.19359588623047 68.42597198486328 24.35705947875977 70.18695831298828 C 28.66600799560547 72.00949859619141 33.2449836730957 72.93359375 37.966796875 72.93359375 C 42.6886100769043 72.93359375 47.26758575439453 72.00949859619141 51.57653427124023 70.18695831298828 C 55.73999786376953 68.42597198486328 59.47979736328125 65.90431976318359 62.69205856323242 62.69205856323242 C 65.90431976318359 59.47979736328125 68.42597198486328 55.73999786376953 70.18695831298828 51.57653427124023 C 72.00949859619141 47.26758575439453 72.93359375 42.6886100769043 72.93359375 37.966796875 C 72.93359375 33.2449836730957 72.00949859619141 28.66600799560547 70.18695831298828 24.35705947875977 C 68.42597198486328 20.19359588623047 65.90431976318359 16.45379638671875 62.69205856323242 13.24153518676758 C 59.47979736328125 10.02928161621094 55.73999786376953 7.507637023925781 51.57653427124023 5.746635437011719 C 47.26758575439453 3.924095153808594 42.6886100769043 3 37.966796875 3 M 37.966796875 0 C 58.93528366088867 0 75.93359375 16.99832153320312 75.93359375 37.966796875 C 75.93359375 58.93528366088867 58.93528366088867 75.93359375 37.966796875 75.93359375 C 16.99831008911133 75.93359375 0 58.93528366088867 0 37.966796875 C 0 16.99832153320312 16.99831008911133 0 37.966796875 0 Z" stroke="none" fill="#87b098"/>
                        </g>
                      </g>
                    </g>
                  </g>
                </g>
              </g>
            </g>
          </g>
        </g>
      </g>
    </g>
    <g id="g5094" transform="translate(525.51 5440.475)">
      <g id="g5096" transform="translate(0 -682.665)">
        <g id="g5098" transform="translate(0 0)" clip-path="url(#clip-path)">
          <g id="g5104" transform="translate(0.923 8.324)">
            <path id="path5106" d="M-98.629-404.688a1.252,1.252,0,0,0,1.834-.068c2.745-3.2,1.781-4.794,5.328-8.341,3.893-3.893,5.434-2.352,9.327-6.245s2.352-5.434,6.244-9.326c3.546-3.547,5.141-2.583,8.341-5.327a1.252,1.252,0,0,0,.068-1.835l-9.67-9.67a1.256,1.256,0,0,0-1.717-.051c-3.285,2.88-4.874,1.844-8.467,5.437-3.893,3.892-2.352,5.434-6.244,9.326s-5.434,2.352-9.327,6.245c-3.593,3.593-2.557,5.183-5.437,8.468a1.255,1.255,0,0,0,.051,1.717Z" transform="translate(108.665 445.865)" fill="#fe7d43"/>
          </g>
          <g id="g5108" transform="translate(9.632 17.033)">
            <path id="path5110" d="M-175.094-175.082c-3.893,3.893-5.434,2.352-9.328,6.245-3.546,3.546-2.582,5.141-5.327,8.341a1.252,1.252,0,0,1-1.835.068l-1.327-1.327c3.893-3.893,2.352-5.434,6.244-9.327s5.434-2.352,9.327-6.245,2.351-5.434,6.244-9.327,5.434-2.351,9.326-6.243l1.327,1.327a1.252,1.252,0,0,1-.068,1.834c-3.2,2.745-4.794,1.78-8.34,5.327-3.893,3.893-2.352,5.434-6.244,9.327" transform="translate(192.91 192.897)" fill="#fe6a30"/>
          </g>
          <g id="g5112" transform="translate(1.999 9.399)">
            <path id="path5114" d="M-173.832-173.82c-3.893,3.893-5.434,2.352-9.327,6.245s-2.352,5.433-6.245,9.326l-2.116-2.116c3.893-3.893,2.352-5.434,6.244-9.327s5.435-2.352,9.328-6.245,2.351-5.434,6.244-9.327,5.434-2.351,9.326-6.243l2.116,2.116c-3.892,3.892-5.433,2.351-9.326,6.244s-2.352,5.434-6.245,9.326" transform="translate(191.52 191.506)" fill="#fe6a30"/>
          </g>
          <g id="g5116" transform="translate(0.924 8.324)">
            <path id="path5118" d="M-337.085-155.639c2.553-1.975,4.11-1.65,6.811-3.966a1.252,1.252,0,0,0,.068-1.835l-9.67-9.67a1.255,1.255,0,0,0-1.717-.051c-3.285,2.88-4.874,1.844-8.467,5.437-3.893,3.893-2.351,5.434-6.244,9.326s-5.434,2.352-9.327,6.245c-3.593,3.593-2.557,5.183-5.437,8.468a1.256,1.256,0,0,0,.051,1.717l9.67,9.67a1.252,1.252,0,0,0,1.835-.068c2.745-3.2,1.781-4.794,5.328-8.341,3.893-3.893,5.434-2.352,9.327-6.245,3.348-3.348,2.677-4.956,4.9-7.817" transform="translate(371.383 171.475)" fill="none" stroke="#000" stroke-linecap="round" stroke-linejoin="round" stroke-miterlimit="10" stroke-width="1.5"/>
          </g>
          <g id="g5120" transform="translate(4.115 11.516)">
            <path id="path5122" d="M-40.085-346.143c3.893-3.893,2.352-5.434,6.244-9.327s5.434-2.352,9.327-6.244,2.351-5.434,6.244-9.326,5.434-2.352,9.326-6.244l-4.079-4.079c-3.893,3.892-5.434,2.351-9.326,6.244s-2.352,5.434-6.244,9.326-5.434,2.352-9.327,6.245-2.352,5.434-6.245,9.327Z" transform="translate(44.164 381.363)" fill="#fde3c3"/>
          </g>
          <g id="g5124" transform="translate(6.188 13.589)">
            <path id="path5126" d="M-172.742-172.73c-3.893,3.893-5.434,2.352-9.327,6.245s-2.352,5.433-6.245,9.326l-2.005-2.005c3.893-3.893,2.352-5.434,6.245-9.326s5.434-2.352,9.327-6.245,2.352-5.433,6.245-9.326,5.433-2.352,9.326-6.244l2.005,2.005c-3.892,3.892-5.433,2.352-9.326,6.244s-2.352,5.434-6.245,9.326" transform="translate(190.318 190.305)" fill="#ffd693"/>
          </g>
          <g id="g5128" transform="translate(4.115 11.516)">
            <path id="path5130" d="M-138.39-166.094c-2.873,2.241-4.481,1.559-7.837,4.915-3.893,3.893-2.352,5.434-6.244,9.327l4.079,4.079c3.893-3.893,2.352-5.434,6.244-9.327s5.434-2.352,9.327-6.244,2.351-5.434,6.244-9.326,5.434-2.351,9.326-6.244l-4.079-4.079c-3.892,3.892-5.434,2.351-9.326,6.244-3.332,3.332-2.683,4.941-4.868,7.777" transform="translate(152.472 182.994)" fill="none" stroke="#000" stroke-linecap="round" stroke-linejoin="round" stroke-miterlimit="10" stroke-width="1.5"/>
          </g>
          <g id="g5132" transform="translate(20.578 13.178)">
            <path id="path5134" d="M-98.629-404.688a1.252,1.252,0,0,0,1.834-.068c2.745-3.2,1.781-4.794,5.328-8.341,3.893-3.893,5.434-2.352,9.327-6.245s2.352-5.434,6.244-9.326c3.546-3.547,5.141-2.583,8.341-5.327a1.252,1.252,0,0,0,.068-1.835l-9.67-9.67a1.256,1.256,0,0,0-1.717-.051c-3.285,2.88-4.874,1.844-8.467,5.437-3.893,3.892-2.352,5.434-6.244,9.326s-5.434,2.352-9.327,6.245c-3.593,3.593-2.557,5.183-5.437,8.468a1.255,1.255,0,0,0,.051,1.717Z" transform="translate(108.665 445.865)" fill="#fe7d43"/>
          </g>
          <g id="g5136" transform="translate(29.287 21.886)">
            <path id="path5138" d="M-175.094-175.082c-3.893,3.893-5.434,2.352-9.327,6.245-3.546,3.546-2.582,5.141-5.327,8.341a1.252,1.252,0,0,1-1.835.068l-1.327-1.327c3.893-3.893,2.352-5.434,6.244-9.327s5.435-2.352,9.328-6.245,2.351-5.434,6.244-9.327,5.434-2.351,9.326-6.243l1.327,1.327a1.252,1.252,0,0,1-.068,1.834c-3.2,2.745-4.794,1.78-8.34,5.327-3.893,3.893-2.352,5.434-6.244,9.327" transform="translate(192.91 192.897)" fill="#fe6a30"/>
          </g>
          <g id="g5140" transform="translate(21.653 14.253)">
            <path id="path5142" d="M-173.832-173.82c-3.893,3.893-5.434,2.352-9.327,6.245s-2.352,5.433-6.245,9.326l-2.116-2.116c3.893-3.893,2.352-5.434,6.244-9.327s5.434-2.352,9.327-6.245,2.351-5.434,6.244-9.327,5.434-2.351,9.326-6.243l2.116,2.116c-3.892,3.892-5.433,2.351-9.326,6.244s-2.352,5.434-6.245,9.326" transform="translate(191.52 191.506)" fill="#fe6a30"/>
          </g>
          <g id="g5144" transform="translate(20.579 13.178)">
            <path id="path5146" d="M-64.7-370.756l3.453,3.453a1.252,1.252,0,0,0,1.834-.068c2.745-3.2,1.781-4.794,5.328-8.341,3.893-3.893,5.434-2.352,9.327-6.245s2.351-5.434,6.244-9.326c3.546-3.547,5.141-2.583,8.341-5.327a1.252,1.252,0,0,0,.068-1.834l-9.67-9.67a1.256,1.256,0,0,0-1.717-.051c-3.285,2.88-4.874,1.844-8.467,5.437-3.893,3.893-2.351,5.434-6.244,9.326s-5.434,2.352-9.327,6.245c-3.593,3.593-2.557,5.183-5.437,8.468a1.255,1.255,0,0,0,.051,1.717l3.345,3.345" transform="translate(71.28 408.481)" fill="none" stroke="#000" stroke-linecap="round" stroke-linejoin="round" stroke-miterlimit="10" stroke-width="1.5"/>
          </g>
          <g id="g5148" transform="translate(23.77 16.369)">
            <path id="path5150" d="M-40.085-346.143c3.893-3.893,2.352-5.434,6.245-9.327s5.434-2.352,9.327-6.244,2.351-5.434,6.244-9.326,5.434-2.352,9.326-6.244l-4.079-4.079c-3.892,3.892-5.434,2.351-9.326,6.244s-2.352,5.434-6.244,9.326-5.434,2.352-9.327,6.245-2.352,5.434-6.245,9.327Z" transform="translate(44.164 381.363)" fill="#fde3c3"/>
          </g>
          <g id="g5152" transform="translate(25.843 18.442)">
            <path id="path5154" d="M-172.742-172.73c-3.893,3.893-5.434,2.352-9.327,6.245s-2.352,5.433-6.245,9.326l-2.005-2.005c3.893-3.893,2.352-5.434,6.245-9.326s5.434-2.352,9.327-6.245,2.352-5.433,6.245-9.326,5.433-2.352,9.326-6.244l2.005,2.005c-3.892,3.892-5.433,2.352-9.326,6.244s-2.352,5.434-6.245,9.326" transform="translate(190.318 190.305)" fill="#ffd693"/>
          </g>
          <g id="g5156" transform="translate(23.77 16.369)">
            <path id="path5158" d="M-33.335-339.395l.687.687c3.893-3.893,2.352-5.434,6.245-9.327s5.434-2.352,9.327-6.244,2.351-5.434,6.244-9.326,5.434-2.351,9.326-6.244l-4.079-4.079c-3.892,3.892-5.434,2.351-9.326,6.244s-2.352,5.434-6.244,9.326-5.434,2.352-9.327,6.245-2.352,5.434-6.245,9.327l.519.519" transform="translate(36.727 373.928)" fill="none" stroke="#000" stroke-linecap="round" stroke-linejoin="round" stroke-miterlimit="10" stroke-width="1.5"/>
          </g>
        </g>
      </g>
    </g>
  </g>
</svg>
