<svg xmlns="http://www.w3.org/2000/svg" xmlns:xlink="http://www.w3.org/1999/xlink" width="93.934" height="93.934" viewBox="0 0 93.934 93.934">
  <defs>
    <filter id="Trazado_982547" x="0" y="0" width="93.934" height="93.934" filterUnits="userSpaceOnUse">
      <feOffset dy="3" input="SourceAlpha"/>
      <feGaussianBlur stdDeviation="3" result="blur"/>
      <feFlood flood-opacity="0.161"/>
      <feComposite operator="in" in2="blur"/>
      <feComposite in="SourceGraphic"/>
    </filter>
  </defs>
  <g id="Grupo_1174476" data-name="Grupo 1174476" transform="translate(-824.066 -4744)">
    <g id="Grupo_1173822" data-name="Grupo 1173822" transform="translate(833.066 4750)">
      <g id="Grupo_1167337" data-name="Grupo 1167337">
        <g id="Grupo_1166720" data-name="Grupo 1166720">
          <g id="Grupo_1164305" data-name="Grupo 1164305">
            <g id="Grupo_1163948" data-name="Grupo 1163948">
              <g id="Grupo_1158168" data-name="Grupo 1158168">
                <g id="Grupo_1152576" data-name="Grupo 1152576">
                  <g id="Grupo_1148633" data-name="Grupo 1148633">
                    <g id="Grupo_1148525" data-name="Grupo 1148525">
                      <g transform="matrix(1, 0, 0, 1, -9, -6)" filter="url(#Trazado_982547)">
                        <g id="Trazado_982547-2" data-name="Trazado 982547" transform="translate(9 6)" fill="#eef8f2">
                          <path d="M 37.966796875 74.43359375 C 33.04315185546875 74.43359375 28.26757431030273 73.46962738037109 23.77274131774902 71.56847381591797 C 19.43047523498535 69.73184967041016 15.53040790557861 67.10224914550781 12.18087482452393 63.75271987915039 C 8.831341743469238 60.4031867980957 6.201741218566895 56.50312042236328 4.365118980407715 52.16086196899414 C 2.463963508605957 47.66601943969727 1.499996900558472 42.89044189453125 1.499996900558472 37.966796875 C 1.499996900558472 33.04315185546875 2.463963508605957 28.26757431030273 4.365118980407715 23.77274131774902 C 6.201741218566895 19.43047523498535 8.831341743469238 15.53040790557861 12.18087482452393 12.18087482452393 C 15.53040790557861 8.831341743469238 19.43047523498535 6.201741218566895 23.77274131774902 4.365118980407715 C 28.26757431030273 2.463963508605957 33.04315185546875 1.499996900558472 37.966796875 1.499996900558472 C 42.89044189453125 1.499996900558472 47.66601943969727 2.463963508605957 52.16086196899414 4.365118980407715 C 56.50312042236328 6.201741218566895 60.4031867980957 8.831341743469238 63.75271987915039 12.18087482452393 C 67.10224914550781 15.53040790557861 69.73184967041016 19.43047523498535 71.56847381591797 23.77274131774902 C 73.46962738037109 28.26757431030273 74.43359375 33.04315185546875 74.43359375 37.966796875 C 74.43359375 42.89044189453125 73.46962738037109 47.66601943969727 71.56847381591797 52.16086196899414 C 69.73184967041016 56.50313186645508 67.10224914550781 60.4031867980957 63.75271987915039 63.75271987915039 C 60.4031867980957 67.10224914550781 56.50313186645508 69.73184967041016 52.16086196899414 71.56847381591797 C 47.66601943969727 73.46962738037109 42.89044189453125 74.43359375 37.966796875 74.43359375 Z" stroke="none"/>
                          <path d="M 37.966796875 3 C 33.2449836730957 3 28.66600799560547 3.924095153808594 24.35705947875977 5.746635437011719 C 20.19359588623047 7.507637023925781 16.45379638671875 10.02928161621094 13.24153518676758 13.24153518676758 C 10.02927398681641 16.45379638671875 7.507621765136719 20.19359588623047 5.746635437011719 24.35705947875977 C 3.924095153808594 28.66600799560547 3 33.2449836730957 3 37.966796875 C 3 42.6886100769043 3.924095153808594 47.26758575439453 5.746635437011719 51.57653427124023 C 7.507621765136719 55.73999786376953 10.02927398681641 59.47979736328125 13.24153518676758 62.69205856323242 C 16.45379638671875 65.90431976318359 20.19359588623047 68.42597198486328 24.35705947875977 70.18695831298828 C 28.66600799560547 72.00949859619141 33.2449836730957 72.93359375 37.966796875 72.93359375 C 42.6886100769043 72.93359375 47.26758575439453 72.00949859619141 51.57653427124023 70.18695831298828 C 55.73999786376953 68.42597198486328 59.47979736328125 65.90431976318359 62.69205856323242 62.69205856323242 C 65.90431976318359 59.47979736328125 68.42597198486328 55.73999786376953 70.18695831298828 51.57653427124023 C 72.00949859619141 47.26758575439453 72.93359375 42.6886100769043 72.93359375 37.966796875 C 72.93359375 33.2449836730957 72.00949859619141 28.66600799560547 70.18695831298828 24.35705947875977 C 68.42597198486328 20.19359588623047 65.90431976318359 16.45379638671875 62.69205856323242 13.24153518676758 C 59.47979736328125 10.02928161621094 55.73999786376953 7.507637023925781 51.57653427124023 5.746635437011719 C 47.26758575439453 3.924095153808594 42.6886100769043 3 37.966796875 3 M 37.966796875 0 C 58.93528366088867 0 75.93359375 16.99832153320312 75.93359375 37.966796875 C 75.93359375 58.93528366088867 58.93528366088867 75.93359375 37.966796875 75.93359375 C 16.99831008911133 75.93359375 0 58.93528366088867 0 37.966796875 C 0 16.99832153320312 16.99831008911133 0 37.966796875 0 Z" stroke="none" fill="#87b098"/>
                        </g>
                      </g>
                    </g>
                  </g>
                </g>
              </g>
            </g>
          </g>
        </g>
      </g>
    </g>
    <g id="ham_17853524_1_" data-name="ham_17853524 (1)" transform="translate(843.362 4684.555)">
      <g id="_圖層_1" transform="translate(0 87.199)">
        <g id="Grupo_1174475" data-name="Grupo 1174475" transform="translate(0 0)">
          <path id="_x35_" d="M42.606,95.417c-4.673-1.938-13.808-4.344-22.4-2.838-5.072.89-9.577,3.169-12.675,8.239-4.979,8.148-1.738,17.675,2.535,19.645,4,1.846,10.9,3.05,17.816,2.842,1.585-.049,4.775-1.022,6.323-1.227l11.305-8.042,4.725-7.987L42.606,95.417Z" transform="translate(-4.472 -91.576)" fill="#8f2231"/>
          <path id="_x34_" d="M196.681,133.342c-.254-1.292-1.971-4.123-4.586-4.424l-2.549-.082c-.281-3.944-4.225-11.36-12.311-11.748-5.359-.258-10.573,2.617-13.977,7.24-1.271,1.728-4.953,8.475-3.063,15.982a32.323,32.323,0,0,1,4.048-3.458,9.536,9.536,0,0,0,1.949-.5,8.865,8.865,0,0,1,5.444,2.51c2.509,2.254,3.094,5.629,7.132,6.8,4.867,1.409,12.895-1.447,15.5-4.183a8.5,8.5,0,0,0,2.593-4.637,10.1,10.1,0,0,0-.179-3.493Z" transform="translate(-142.407 -113.843)" fill="#e2b4b4"/>
          <path id="_x33_" d="M221.384,149.3a6.564,6.564,0,0,0-2.5-2.146,13.9,13.9,0,0,1-3.115.092c.451-4.557-5.149-6.167-6.618-5.149-.389-.965.874-2.971-1.395-4.516-1.134-.773-3.223-.819-3.968.332-1.242,1.921.009,5.741-.14,7.329-.127,1.359-1.7,1.553-2,.322-.265-1.121-.158-4.829-1.636-5.729-1.072-.654-2.679-.051-3.48,1.2-1.093,1.708-.734,3.779-1.987,4.206-2.2.751-2.913,3.259-2.325,5.4a5.512,5.512,0,0,0,2.509,3.367,30.978,30.978,0,0,1,5.593-1.128,7.478,7.478,0,0,1,3.322,3.08c.629,1.422,1.809,3.373,3.891,4.014a5.091,5.091,0,0,0,4.823-1.01c1.768-1.842-1-3.765.2-4.316,1.147-.524,2.7,2.965,4.708,3.414a3.073,3.073,0,0,0,3.356-1.552c.8-1.4-.1-2.494.15-2.854.216-.316,2.339-1.564.6-4.358Z" transform="translate(-171.276 -131.637)" fill="#cc8183"/>
          <path id="_x32_" d="M204.009,295.927a8.372,8.372,0,0,1-2.574,4.6c-2.606,2.735-10.634,5.592-15.5,4.183-4.038-1.169-4.623-4.544-7.132-6.8-1.988-1.783-5.248-3.612-8.364-1.69a5.3,5.3,0,0,0-2.737,3.873l1.79,4.653,3.773-.146c-.515-.932-1.4-2.1-1.408-3.168A1.61,1.61,0,0,1,173.4,299.6c2.65-.276,3.923,3.14,4.591,4.3,1.852,3.213,5.594,4.541,8.961,4.647,4.858.148,12.453-2.267,15.219-5.929a11.444,11.444,0,0,0,1.832-6.689Z" transform="translate(-149.574 -272.895)" fill="#b63b31"/>
          <path id="_x31_" d="M55.079,106.729c-.306-1.556-2.4-4.631-5.312-4.963a.656.656,0,0,0-.161,0c-.506.064-1.074.155-1.684.264-.38-3.577-3.449-9.6-9.591-11.507a.657.657,0,0,0-.142-.1C32.728,88.165,23.966,86.26,15.76,87.7,9.8,88.743,5.5,91.54,2.626,96.25a17.514,17.514,0,0,0-1.894,14.2c.936,3.083,2.7,5.48,4.722,6.413,3.935,1.815,10.3,2.925,16.556,2.925q.783,0,1.565-.023a12.418,12.418,0,0,0,2.754-.484,15.866,15.866,0,0,1,1.787-.385c1.766,2.872,5.248,4.661,9.392,4.789q.231.007.467.007c5.123,0,12.491-2.47,15.311-6.2a11.533,11.533,0,0,0,1.938-6.864,10.56,10.56,0,0,0-.142-3.9Zm-5.4-1.349c1.116,1.795.355,2.7-.179,3.2l-3.171-2a.675.675,0,0,0-.72,1.142l3.354,2.116c.02.115.046.229.074.338a2.091,2.091,0,0,1-.121,1.723,2.387,2.387,0,0,1-2.623,1.229,5.681,5.681,0,0,1-2.312-1.857c-.925-1.02-1.8-1.984-2.824-1.513-1.118.512-.629,1.631-.365,2.232.409.934.61,1.55-.041,2.23a4.406,4.406,0,0,1-4.138.83c-1.432-.44-2.6-1.666-3.473-3.642a7.941,7.941,0,0,0-3.251-3.212,175.987,175.987,0,0,1,17.585-4.714,5.838,5.838,0,0,1,2.206,1.894ZM33.021,98.728c-.219-1.624-.49-3.645.207-4.723a1.392,1.392,0,0,1,.911-.533,2.979,2.979,0,0,1,2.109.39c1.242.846,1.072,2.567,1.012,3.562a28.326,28.326,0,0,1-1.123,4.482.676.676,0,0,0,.427.854.69.69,0,0,0,.214.034.677.677,0,0,0,.641-.461c.245-.735.775-2.748,1.039-3.979a4.263,4.263,0,0,1,3.394.614,4.006,4.006,0,0,1,2.117,3.894c-7.5,1.758-17.678,4.932-20.3,6.137a5.237,5.237,0,0,1-1.921-2.812c-.48-1.745.02-3.944,1.89-4.582,1.06-.36,1.321-1.409,1.574-2.423a6.693,6.693,0,0,1,.765-2.058,2.1,2.1,0,0,1,2.561-.989c.819.5,1.028,2.671,1.155,3.969a10.943,10.943,0,0,0,.175,1.339,1.624,1.624,0,0,0,1.7,1.336,1.824,1.824,0,0,0,1.628-1.749,11.438,11.438,0,0,0-.173-2.3Zm13.573,3.557c-.407.083-.832.174-1.266.27a5.321,5.321,0,0,0-2.792-4.75,6.342,6.342,0,0,0-3.9-.9l.016-.161a3.772,3.772,0,0,0-1.648-3.993,4.315,4.315,0,0,0-3.136-.6,2.665,2.665,0,0,0-1.777,1.123c-.968,1.5-.659,3.792-.411,5.636a11.024,11.024,0,0,1,.166,2c-.032.349-.214.517-.378.529-.228,0-.261-.184-.289-.3a10.558,10.558,0,0,1-.145-1.157c-.17-1.748-.4-4.141-1.8-4.991a3.387,3.387,0,0,0-4.4,1.413,7.965,7.965,0,0,0-.939,2.459c-.208.836-.353,1.354-.7,1.472-2.652.9-3.4,3.878-2.758,6.217a7.208,7.208,0,0,0,1.661,2.906,6.226,6.226,0,0,0-1.455.66,6.406,6.406,0,0,0-2.319,2.268,20.112,20.112,0,0,1,3.2-14.133c3.386-4.6,8.425-7.209,13.4-6.967,7.637.366,11.329,7.282,11.656,11.006ZM10.642,109c-1.652-.315-3.353-.7-4.886-1.122a17.427,17.427,0,0,1,1.167-7.959c1.475.142,3.073.34,4.706.616A22.293,22.293,0,0,0,10.642,109ZM7.512,98.62a20.7,20.7,0,0,1,4.468-5.763c1.417.035,2.958.112,4.5.227A18.252,18.252,0,0,0,12.814,97.7c-.268.51-.506,1.026-.719,1.546-1.583-.274-3.136-.475-4.583-.623Zm5.46,2.155a40.609,40.609,0,0,1,5.114,1.319,21.828,21.828,0,0,0-1.327,7.7,35.954,35.954,0,0,1-4.77-.55,20.931,20.931,0,0,1,.983-8.467Zm.49-1.277c.17-.393.343-.786.546-1.173A17.947,17.947,0,0,1,18.3,93.24a47.817,47.817,0,0,1,5.358.774,20.01,20.01,0,0,0-3.21,3.432,17.755,17.755,0,0,0-1.871,3.389A41.365,41.365,0,0,0,13.462,99.5Zm19.21-9.478a16.55,16.55,0,0,0-7.667,2.962c-.039-.019-3.21-.7-5.157-.929a16.815,16.815,0,0,1,7.444-3.089A39.2,39.2,0,0,1,32.672,90.02ZM18.045,88.771a35.89,35.89,0,0,1,5.347-.162,21.8,21.8,0,0,0-5.5,3.243c-1.466-.132-2.964-.228-4.393-.288A22.206,22.206,0,0,1,18.045,88.771Zm-3.928.669A26.329,26.329,0,0,0,11.462,91.5c-.815-.015-1.576-.017-2.268,0a18.19,18.19,0,0,1,4.923-2.057ZM3.778,96.954a16.562,16.562,0,0,1,3.4-4.01c.734-.071,1.735-.106,2.888-.109a20.84,20.84,0,0,0-4,5.651c-1.106-.093-2.125-.157-3.008-.2.223-.452.457-.9.723-1.334Zm-1.3,2.66c.868.035,1.886.09,3.019.178a18.769,18.769,0,0,0-1.129,7.682,15.228,15.228,0,0,1-2.984-1.211,16.2,16.2,0,0,1,1.094-6.649Zm3.54,16.022c-1.677-.774-3.17-2.859-4-5.579a15.485,15.485,0,0,1-.477-2.2,23.675,23.675,0,0,0,2.963,1.065,20.823,20.823,0,0,0,2.276,7.024c-.254-.1-.53-.2-.766-.309Zm2.729,1a19.722,19.722,0,0,1-2.788-7.314c1.554.406,3.22.766,4.812,1.058a22.783,22.783,0,0,0,2.054,7.234A35.974,35.974,0,0,1,8.749,116.64Zm5.8,1.262a18.218,18.218,0,0,1-2.412-7.28,36.425,36.425,0,0,0,4.686.522,18.073,18.073,0,0,0,2.2,7.2C17.5,118.262,16,118.11,14.552,117.9Zm11.44.071a15.211,15.211,0,0,1-1.805.362,7.27,7.27,0,0,1-1.086-2.442c-.005-.929.451-1.1.944-1.156,1.636-.159,2.7,1.6,3.386,2.913-.494.093-.976.2-1.439.323Zm26.214-1.3c-2.58,3.418-9.841,5.822-14.657,5.66-3.77-.115-6.91-1.726-8.4-4.308-.091-.157-.194-.359-.31-.588-.77-1.512-2.224-4.322-4.937-4.044A2.271,2.271,0,0,0,21.75,115.9a5.224,5.224,0,0,0,.918,2.52c-.692.01-1.382.01-2.074-.009a26.191,26.191,0,0,1-1.66-3.738,4.6,4.6,0,0,1,2.427-3.413c2.965-1.83,6.007.227,7.557,1.618a13.735,13.735,0,0,1,2.063,2.53c1.222,1.764,2.483,3.588,5.333,4.413a11.211,11.211,0,0,0,3.1.4c4.942,0,10.9-2.47,13.081-4.761.272-.285.51-.563.741-.84a7.3,7.3,0,0,1-1.028,2.058Zm1.739-6.518a8.443,8.443,0,0,1-2.43,4.369c-2.387,2.507-10.144,5.354-14.825,4-2.387-.691-3.462-2.242-4.6-3.883a15,15,0,0,0-2.271-2.767,11.329,11.329,0,0,0-3.881-2.334c.586-.216,1.28-.457,2.038-.713a7.112,7.112,0,0,1,3.927,3.131,7.342,7.342,0,0,0,4.309,4.386,5.842,5.842,0,0,0,1.7.239,5.322,5.322,0,0,0,3.814-1.425,3.055,3.055,0,0,0,.3-3.706c-.047-.107-.107-.243-.153-.363a8.987,8.987,0,0,1,1.106,1.092A6.492,6.492,0,0,0,46,114.447a3.765,3.765,0,0,0,4.089-1.876,3.387,3.387,0,0,0,.26-2.721c-.013-.052-.029-.114-.041-.169.583-.539,2.3-2.149.521-5.014a6.7,6.7,0,0,0-1.38-1.513c.079-.011.17-.027.247-.037,2.24.309,3.861,2.842,4.064,3.874A10.543,10.543,0,0,1,53.944,110.156Z" transform="translate(0 -87.199)" fill="#040000"/>
        </g>
      </g>
    </g>
  </g>
</svg>
