<svg xmlns="http://www.w3.org/2000/svg" xmlns:xlink="http://www.w3.org/1999/xlink" width="93.934" height="93.934" viewBox="0 0 93.934 93.934">
  <defs>
    <filter id="Trazado_982547" x="0" y="0" width="93.934" height="93.934" filterUnits="userSpaceOnUse">
      <feOffset dy="3" input="SourceAlpha"/>
      <feGaussianBlur stdDeviation="3" result="blur"/>
      <feFlood flood-opacity="0.161"/>
      <feComposite operator="in" in2="blur"/>
      <feComposite in="SourceGraphic"/>
    </filter>
  </defs>
  <g id="Grupo_1174436" data-name="Grupo 1174436" transform="translate(-830.066 -2275)">
    <g id="Grupo_1173793" data-name="Grupo 1173793" transform="translate(839.066 2281)">
      <g id="Grupo_1167337" data-name="Grupo 1167337">
        <g id="Grupo_1166720" data-name="Grupo 1166720">
          <g id="Grupo_1164305" data-name="Grupo 1164305">
            <g id="Grupo_1163948" data-name="Grupo 1163948">
              <g id="Grupo_1158168" data-name="Grupo 1158168">
                <g id="Grupo_1152576" data-name="Grupo 1152576">
                  <g id="Grupo_1148633" data-name="Grupo 1148633">
                    <g id="Grupo_1148525" data-name="Grupo 1148525">
                      <g transform="matrix(1, 0, 0, 1, -9, -6)" filter="url(#Trazado_982547)">
                        <g id="Trazado_982547-2" data-name="Trazado 982547" transform="translate(9 6)" fill="#eef8f2">
                          <path d="M 37.966796875 74.43359375 C 33.04315185546875 74.43359375 28.26757431030273 73.46962738037109 23.77274131774902 71.56847381591797 C 19.43047523498535 69.73184967041016 15.53040790557861 67.10224914550781 12.18087482452393 63.75271987915039 C 8.831341743469238 60.4031867980957 6.201741218566895 56.50312042236328 4.365118980407715 52.16086196899414 C 2.463963508605957 47.66601943969727 1.499996900558472 42.89044189453125 1.499996900558472 37.966796875 C 1.499996900558472 33.04315185546875 2.463963508605957 28.26757431030273 4.365118980407715 23.77274131774902 C 6.201741218566895 19.43047523498535 8.831341743469238 15.53040790557861 12.18087482452393 12.18087482452393 C 15.53040790557861 8.831341743469238 19.43047523498535 6.201741218566895 23.77274131774902 4.365118980407715 C 28.26757431030273 2.463963508605957 33.04315185546875 1.499996900558472 37.966796875 1.499996900558472 C 42.89044189453125 1.499996900558472 47.66601943969727 2.463963508605957 52.16086196899414 4.365118980407715 C 56.50312042236328 6.201741218566895 60.4031867980957 8.831341743469238 63.75271987915039 12.18087482452393 C 67.10224914550781 15.53040790557861 69.73184967041016 19.43047523498535 71.56847381591797 23.77274131774902 C 73.46962738037109 28.26757431030273 74.43359375 33.04315185546875 74.43359375 37.966796875 C 74.43359375 42.89044189453125 73.46962738037109 47.66601943969727 71.56847381591797 52.16086196899414 C 69.73184967041016 56.50313186645508 67.10224914550781 60.4031867980957 63.75271987915039 63.75271987915039 C 60.4031867980957 67.10224914550781 56.50313186645508 69.73184967041016 52.16086196899414 71.56847381591797 C 47.66601943969727 73.46962738037109 42.89044189453125 74.43359375 37.966796875 74.43359375 Z" stroke="none"/>
                          <path d="M 37.966796875 3 C 33.2449836730957 3 28.66600799560547 3.924095153808594 24.35705947875977 5.746635437011719 C 20.19359588623047 7.507637023925781 16.45379638671875 10.02928161621094 13.24153518676758 13.24153518676758 C 10.02927398681641 16.45379638671875 7.507621765136719 20.19359588623047 5.746635437011719 24.35705947875977 C 3.924095153808594 28.66600799560547 3 33.2449836730957 3 37.966796875 C 3 42.6886100769043 3.924095153808594 47.26758575439453 5.746635437011719 51.57653427124023 C 7.507621765136719 55.73999786376953 10.02927398681641 59.47979736328125 13.24153518676758 62.69205856323242 C 16.45379638671875 65.90431976318359 20.19359588623047 68.42597198486328 24.35705947875977 70.18695831298828 C 28.66600799560547 72.00949859619141 33.2449836730957 72.93359375 37.966796875 72.93359375 C 42.6886100769043 72.93359375 47.26758575439453 72.00949859619141 51.57653427124023 70.18695831298828 C 55.73999786376953 68.42597198486328 59.47979736328125 65.90431976318359 62.69205856323242 62.69205856323242 C 65.90431976318359 59.47979736328125 68.42597198486328 55.73999786376953 70.18695831298828 51.57653427124023 C 72.00949859619141 47.26758575439453 72.93359375 42.6886100769043 72.93359375 37.966796875 C 72.93359375 33.2449836730957 72.00949859619141 28.66600799560547 70.18695831298828 24.35705947875977 C 68.42597198486328 20.19359588623047 65.90431976318359 16.45379638671875 62.69205856323242 13.24153518676758 C 59.47979736328125 10.02928161621094 55.73999786376953 7.507637023925781 51.57653427124023 5.746635437011719 C 47.26758575439453 3.924095153808594 42.6886100769043 3 37.966796875 3 M 37.966796875 0 C 58.93528366088867 0 75.93359375 16.99832153320312 75.93359375 37.966796875 C 75.93359375 58.93528366088867 58.93528366088867 75.93359375 37.966796875 75.93359375 C 16.99831008911133 75.93359375 0 58.93528366088867 0 37.966796875 C 0 16.99832153320312 16.99831008911133 0 37.966796875 0 Z" stroke="none" fill="#87b098"/>
                        </g>
                      </g>
                    </g>
                  </g>
                </g>
              </g>
            </g>
          </g>
        </g>
      </g>
    </g>
    <g id="Filled_outline" data-name="Filled outline" transform="translate(838.032 2279.998)">
      <circle id="Elipse_11726" data-name="Elipse 11726" cx="10.351" cy="10.351" r="10.351" transform="translate(40.535 22.134)" fill="#d14809"/>
      <circle id="Elipse_11727" data-name="Elipse 11727" cx="10.351" cy="10.351" r="10.351" transform="translate(40.535 28.267)" fill="#e05114"/>
      <circle id="Elipse_11728" data-name="Elipse 11728" cx="10.351" cy="10.351" r="10.351" transform="translate(40.535 34.401)" fill="#d14809"/>
      <path id="Trazado_982933" data-name="Trazado 982933" d="M96,24l1.533,4.6h3.834L102.9,24Z" transform="translate(-72.333 -7.233)" fill="#bf3e02"/>
      <path id="Trazado_982934" data-name="Trazado 982934" d="M44.7,74.351V93.9H24V74.351a10.352,10.352,0,0,1,8.092-10.1A10.22,10.22,0,0,1,34.146,64l.2,0,.2,0a10.22,10.22,0,0,1,2.055.245A10.352,10.352,0,0,1,44.7,74.351Z" transform="translate(-7.233 -43.4)" fill="#bf3e02"/>
      <circle id="Elipse_11729" data-name="Elipse 11729" cx="10.351" cy="10.351" r="10.351" transform="translate(16.767 40.535)" fill="#e05114"/>
      <path id="Trazado_982935" data-name="Trazado 982935" d="M93.918,64.275a10.22,10.22,0,0,1,2.055-.245l-.326.449-.007.009a11.029,11.029,0,0,0-1.786,3.585l-1.474-.424a12.581,12.581,0,0,1,1.538-3.374Z" transform="translate(-69.06 -43.427)" fill="#b43900"/>
      <path id="Trazado_982936" data-name="Trazado 982936" d="M137.723,67.649l-1.474.424a11.029,11.029,0,0,0-1.786-3.585l-.007-.009-.326-.449a10.22,10.22,0,0,1,2.055.245,12.582,12.582,0,0,1,1.538,3.374Z" transform="translate(-106.809 -43.427)" fill="#b43900"/>
      <path id="Trazado_982937" data-name="Trazado 982937" d="M165.528,137.2h-1.533a2.8,2.8,0,0,1,.251-1.215,1.539,1.539,0,0,0,0-1.251,3.07,3.07,0,0,1,0-2.43,1.538,1.538,0,0,0,0-1.25,3.07,3.07,0,0,1,0-2.43,1.321,1.321,0,0,0,.133-.625h1.533a2.8,2.8,0,0,1-.251,1.215,1.538,1.538,0,0,0,0,1.25,3.07,3.07,0,0,1,0,2.43,1.539,1.539,0,0,0,0,1.251,3.071,3.071,0,0,1,0,2.43A1.322,1.322,0,0,0,165.528,137.2Z" transform="translate(-133.81 -101.266)" fill="#b43900"/>
      <path id="Trazado_982938" data-name="Trazado 982938" d="M197.528,177.2h-1.533a2.8,2.8,0,0,1,.251-1.215,1.539,1.539,0,0,0,0-1.251,3.071,3.071,0,0,1,0-2.43,1.538,1.538,0,0,0,0-1.25,3.07,3.07,0,0,1,0-2.43,1.321,1.321,0,0,0,.133-.625h1.533a2.8,2.8,0,0,1-.251,1.215,1.538,1.538,0,0,0,0,1.25,3.07,3.07,0,0,1,0,2.43,1.539,1.539,0,0,0,0,1.251,3.071,3.071,0,0,1,0,2.43A1.322,1.322,0,0,0,197.528,177.2Z" transform="translate(-162.743 -137.432)" fill="#b43900"/>
      <path id="Trazado_982939" data-name="Trazado 982939" d="M47.528,179.112H45.995a2.8,2.8,0,0,1,.251-1.215,1.539,1.539,0,0,0,0-1.251,3.07,3.07,0,0,1,0-2.43,1.321,1.321,0,0,0,.133-.625,1.366,1.366,0,0,0-.047-.4l1.472-.429a2.88,2.88,0,0,1,.109.828,2.8,2.8,0,0,1-.251,1.215,1.538,1.538,0,0,0,0,1.25,3.071,3.071,0,0,1,0,2.43A1.323,1.323,0,0,0,47.528,179.112Z" transform="translate(-27.119 -141.74)" fill="#cb4408"/>
      <path id="Trazado_982940" data-name="Trazado 982940" d="M48,144h1.533v1.533H48Z" transform="translate(-28.933 -115.733)" fill="#cb4408"/>
      <g id="Grupo_1174435" data-name="Grupo 1174435" transform="translate(19.067 43.602)">
        <path id="Trazado_982941" data-name="Trazado 982941" d="M80,304h1.533v1.533H80Z" transform="translate(-76.933 -304)" fill="#e46526"/>
        <path id="Trazado_982942" data-name="Trazado 982942" d="M200,368h1.533v1.533H200Z" transform="translate(-185.432 -361.866)" fill="#e46526"/>
        <path id="Trazado_982943" data-name="Trazado 982943" d="M128,312h1.533v1.533H128Z" transform="translate(-120.333 -311.233)" fill="#e46526"/>
        <path id="Trazado_982944" data-name="Trazado 982944" d="M136,416h1.533v1.533H136Z" transform="translate(-127.566 -405.266)" fill="#e46526"/>
        <path id="Trazado_982945" data-name="Trazado 982945" d="M176,440h1.533v1.533H176Z" transform="translate(-163.733 -426.966)" fill="#e46526"/>
        <path id="Trazado_982946" data-name="Trazado 982946" d="M72,408h1.533v1.533H72Z" transform="translate(-69.7 -398.033)" fill="#e46526"/>
        <path id="Trazado_982947" data-name="Trazado 982947" d="M96,448h1.533v1.533H96Z" transform="translate(-91.4 -434.199)" fill="#e46526"/>
        <path id="Trazado_982948" data-name="Trazado 982948" d="M112,336h1.533v1.533H112Z" transform="translate(-105.866 -332.933)" fill="#e46526"/>
        <path id="Trazado_982949" data-name="Trazado 982949" d="M176,320h1.533v1.533H176Z" transform="translate(-163.733 -318.467)" fill="#e46526"/>
        <path id="Trazado_982950" data-name="Trazado 982950" d="M48,360h1.533v1.533H48Z" transform="translate(-48 -354.633)" fill="#e46526"/>
        <path id="Trazado_982951" data-name="Trazado 982951" d="M160,392h1.533v1.533H160Z" transform="translate(-149.266 -383.566)" fill="#e46526"/>
      </g>
      <circle id="Elipse_11730" data-name="Elipse 11730" cx="10.351" cy="10.351" r="10.351" transform="translate(40.535 40.535)" fill="#e05114"/>
      <path id="Trazado_982952" data-name="Trazado 982952" d="M312,416h1.533v1.533H312Z" transform="translate(-267.632 -361.664)" fill="#e46526"/>
      <path id="Trazado_982953" data-name="Trazado 982953" d="M368,296h1.533v1.533H368Z" transform="translate(-318.265 -253.165)" fill="#e46526"/>
      <path id="Trazado_982954" data-name="Trazado 982954" d="M312,368h1.533v1.533H312Z" transform="translate(-267.632 -318.265)" fill="#e46526"/>
      <path id="Trazado_982955" data-name="Trazado 982955" d="M416,360h1.533v1.533H416Z" transform="translate(-361.664 -311.031)" fill="#e46526"/>
      <path id="Trazado_982956" data-name="Trazado 982956" d="M440,336h1.533v1.533H440Z" transform="translate(-383.364 -289.331)" fill="#e46526"/>
      <path id="Trazado_982957" data-name="Trazado 982957" d="M408,424h1.533v1.533H408Z" transform="translate(-354.431 -368.898)" fill="#e46526"/>
      <path id="Trazado_982958" data-name="Trazado 982958" d="M440,400h1.533v1.533H440Z" transform="translate(-383.364 -347.198)" fill="#e46526"/>
      <path id="Trazado_982959" data-name="Trazado 982959" d="M368,384h1.533v1.533H368Z" transform="translate(-318.265 -332.731)" fill="#e46526"/>
      <path id="Trazado_982960" data-name="Trazado 982960" d="M320,312h1.533v1.533H320Z" transform="translate(-274.865 -267.632)" fill="#e46526"/>
      <path id="Trazado_982961" data-name="Trazado 982961" d="M360,448h1.533v1.533H360Z" transform="translate(-311.031 -390.597)" fill="#e46526"/>
      <path id="Trazado_982962" data-name="Trazado 982962" d="M344,336h1.533v1.533H344Z" transform="translate(-296.565 -289.331)" fill="#e46526"/>
      <path id="Trazado_982963" data-name="Trazado 982963" d="M344,232h1.533v1.533H344Z" transform="translate(-296.565 -195.299)" fill="#e05114"/>
      <path id="Trazado_982964" data-name="Trazado 982964" d="M424,248h1.533v1.533H424Z" transform="translate(-368.898 -209.765)" fill="#e05114"/>
      <path id="Trazado_982965" data-name="Trazado 982965" d="M424,112h1.533v1.533H424Z" transform="translate(-368.898 -86.799)" fill="#e05114"/>
      <path id="Trazado_982966" data-name="Trazado 982966" d="M376,96h1.533v1.533H376Z" transform="translate(-325.498 -72.333)" fill="#e05114"/>
      <path id="Trazado_982967" data-name="Trazado 982967" d="M312,128h1.533v1.533H312Z" transform="translate(-267.632 -101.266)" fill="#e05114"/>
      <path id="Trazado_982968" data-name="Trazado 982968" d="M376,176h1.533v1.533H376Z" transform="translate(-325.498 -144.666)" fill="#e46526"/>
      <path id="Trazado_982969" data-name="Trazado 982969" d="M328,176h1.533v1.533H328Z" transform="translate(-282.098 -144.666)" fill="#e46526"/>
      <path id="Trazado_982970" data-name="Trazado 982970" d="M30.207,20.271l1.087-3.262A.767.767,0,0,0,30.568,16h-6.9a.767.767,0,0,0-.727,1.009l1.087,3.262A11.137,11.137,0,0,0,16,30.951v8.817h1.533V30.951a9.6,9.6,0,0,1,6.772-9.163,12.529,12.529,0,0,0-.985,2.434l1.474.423A11.01,11.01,0,0,1,26.339,21.4q.386-.031.779-.032t.779.032a11.01,11.01,0,0,1,1.544,3.247l1.474-.423a12.529,12.529,0,0,0-.985-2.434A9.6,9.6,0,0,1,36.7,30.951V45.257a11.111,11.111,0,0,0-19.168,0V41.3H16v9.584a11.117,11.117,0,0,0,22.235,0V30.951A11.137,11.137,0,0,0,30.207,20.271Zm-4.671-.324-.805-2.413H29.5l-.8,2.413a11.129,11.129,0,0,0-3.164,0Zm1.581,40.523A9.584,9.584,0,1,1,36.7,50.885,9.584,9.584,0,0,1,27.117,60.469Z"/>
      <path id="Trazado_982971" data-name="Trazado 982971" d="M163.995,137.2h1.533a1.321,1.321,0,0,1,.133-.625,3.071,3.071,0,0,0,0-2.43,1.539,1.539,0,0,1,0-1.251,3.07,3.07,0,0,0,0-2.43,1.538,1.538,0,0,1,0-1.25,2.8,2.8,0,0,0,.251-1.215h-1.533a1.321,1.321,0,0,1-.133.625,3.07,3.07,0,0,0,0,2.43,1.538,1.538,0,0,1,0,1.25,3.071,3.071,0,0,0,0,2.43,1.539,1.539,0,0,1,0,1.251A2.8,2.8,0,0,0,163.995,137.2Z" transform="translate(-133.81 -101.266)"/>
      <path id="Trazado_982972" data-name="Trazado 982972" d="M195.995,177.2h1.533a1.322,1.322,0,0,1,.133-.625,3.071,3.071,0,0,0,0-2.43,1.539,1.539,0,0,1,0-1.251,3.07,3.07,0,0,0,0-2.43,1.538,1.538,0,0,1,0-1.25,2.8,2.8,0,0,0,.251-1.215h-1.533a1.321,1.321,0,0,1-.133.625,3.07,3.07,0,0,0,0,2.43,1.538,1.538,0,0,1,0,1.25,3.071,3.071,0,0,0,0,2.43,1.539,1.539,0,0,1,0,1.251A2.8,2.8,0,0,0,195.995,177.2Z" transform="translate(-162.743 -137.432)"/>
      <path id="Trazado_982973" data-name="Trazado 982973" d="M45.995,179.112h1.533a1.323,1.323,0,0,1,.133-.625,3.071,3.071,0,0,0,0-2.43,1.538,1.538,0,0,1,0-1.25,2.8,2.8,0,0,0,.251-1.215,2.88,2.88,0,0,0-.109-.828l-1.472.429a1.366,1.366,0,0,1,.047.4,1.321,1.321,0,0,1-.133.625,3.07,3.07,0,0,0,0,2.43,1.539,1.539,0,0,1,0,1.251,2.8,2.8,0,0,0-.251,1.215Z" transform="translate(-27.119 -141.74)"/>
      <path id="Trazado_982974" data-name="Trazado 982974" d="M48,144h1.533v1.533H48Z" transform="translate(-28.933 -115.733)"/>
      <path id="Trazado_982975" data-name="Trazado 982975" d="M80,304h1.533v1.533H80Z" transform="translate(-57.866 -260.398)"/>
      <path id="Trazado_982976" data-name="Trazado 982976" d="M200,368h1.533v1.533H200Z" transform="translate(-166.366 -318.265)"/>
      <path id="Trazado_982977" data-name="Trazado 982977" d="M128,312h1.533v1.533H128Z" transform="translate(-101.266 -267.632)"/>
      <path id="Trazado_982978" data-name="Trazado 982978" d="M136,416h1.533v1.533H136Z" transform="translate(-108.499 -361.664)"/>
      <path id="Trazado_982979" data-name="Trazado 982979" d="M176,440h1.533v1.533H176Z" transform="translate(-144.666 -383.364)"/>
      <path id="Trazado_982980" data-name="Trazado 982980" d="M72,408h1.533v1.533H72Z" transform="translate(-50.633 -354.431)"/>
      <path id="Trazado_982981" data-name="Trazado 982981" d="M96,448h1.533v1.533H96Z" transform="translate(-72.333 -390.597)"/>
      <path id="Trazado_982982" data-name="Trazado 982982" d="M112,336h1.533v1.533H112Z" transform="translate(-86.799 -289.331)"/>
      <path id="Trazado_982983" data-name="Trazado 982983" d="M176,320h1.533v1.533H176Z" transform="translate(-144.666 -274.865)"/>
      <path id="Trazado_982984" data-name="Trazado 982984" d="M48,360h1.533v1.533H48Z" transform="translate(-28.933 -311.031)"/>
      <path id="Trazado_982985" data-name="Trazado 982985" d="M160,392h1.533v1.533H160Z" transform="translate(-130.199 -339.964)"/>
      <path id="Trazado_982986" data-name="Trazado 982986" d="M312,416h1.533v1.533H312Z" transform="translate(-267.632 -361.664)"/>
      <path id="Trazado_982987" data-name="Trazado 982987" d="M368,296h1.533v1.533H368Z" transform="translate(-318.265 -253.165)"/>
      <path id="Trazado_982988" data-name="Trazado 982988" d="M312,368h1.533v1.533H312Z" transform="translate(-267.632 -318.265)"/>
      <path id="Trazado_982989" data-name="Trazado 982989" d="M416,360h1.533v1.533H416Z" transform="translate(-361.664 -311.031)"/>
      <path id="Trazado_982990" data-name="Trazado 982990" d="M440,336h1.533v1.533H440Z" transform="translate(-383.364 -289.331)"/>
      <path id="Trazado_982991" data-name="Trazado 982991" d="M408,424h1.533v1.533H408Z" transform="translate(-354.431 -368.898)"/>
      <path id="Trazado_982992" data-name="Trazado 982992" d="M440,400h1.533v1.533H440Z" transform="translate(-383.364 -347.198)"/>
      <path id="Trazado_982993" data-name="Trazado 982993" d="M368,384h1.533v1.533H368Z" transform="translate(-318.265 -332.731)"/>
      <path id="Trazado_982994" data-name="Trazado 982994" d="M320,312h1.533v1.533H320Z" transform="translate(-274.865 -267.632)"/>
      <path id="Trazado_982995" data-name="Trazado 982995" d="M360,448h1.533v1.533H360Z" transform="translate(-311.031 -390.597)"/>
      <path id="Trazado_982996" data-name="Trazado 982996" d="M344,336h1.533v1.533H344Z" transform="translate(-296.565 -289.331)"/>
      <path id="Trazado_982997" data-name="Trazado 982997" d="M344,232h1.533v1.533H344Z" transform="translate(-296.565 -195.299)"/>
      <path id="Trazado_982998" data-name="Trazado 982998" d="M424,248h1.533v1.533H424Z" transform="translate(-368.898 -209.765)"/>
      <path id="Trazado_982999" data-name="Trazado 982999" d="M376,176h1.533v1.533H376Z" transform="translate(-325.498 -144.666)"/>
      <path id="Trazado_983000" data-name="Trazado 983000" d="M328,176h1.533v1.533H328Z" transform="translate(-282.098 -144.666)"/>
      <path id="Trazado_983001" data-name="Trazado 983001" d="M424,112h1.533v1.533H424Z" transform="translate(-368.898 -86.799)"/>
      <path id="Trazado_983002" data-name="Trazado 983002" d="M376,96h1.533v1.533H376Z" transform="translate(-325.498 -72.333)"/>
      <path id="Trazado_983003" data-name="Trazado 983003" d="M312,128h1.533v1.533H312Z" transform="translate(-267.632 -101.266)"/>
      <path id="Trazado_983004" data-name="Trazado 983004" d="M285.783,86.183A11.119,11.119,0,0,0,269.5,73.509l.772,1.325a9.587,9.587,0,0,1,14.4,8.285c0,.161-.005.322-.014.483a11.111,11.111,0,0,0-19.141,0c-.008-.161-.014-.321-.014-.483a9.578,9.578,0,0,1,3.352-7.282l-1-1.165a11.117,11.117,0,0,0-3.457,11.511,11.127,11.127,0,0,0,0,6.136,11.114,11.114,0,0,0,0,6.132,11.118,11.118,0,0,0,18.847,10.618l-1.125-1.042a9.563,9.563,0,1,1,.935-1.184l1.275.853a11.129,11.129,0,0,0,1.441-9.245,11.115,11.115,0,0,0,0-6.132A11.127,11.127,0,0,0,285.783,86.183ZM275.1,79.668a9.6,9.6,0,0,1,9.584,9.584c0,.16-.005.32-.013.479a11.112,11.112,0,0,0-19.141,0c-.008-.159-.013-.319-.013-.479A9.6,9.6,0,0,1,275.1,79.668Zm0,10.734a11.122,11.122,0,0,0-9.57,5.467c-.008-.161-.014-.321-.014-.483a9.584,9.584,0,0,1,19.168,0c0,.161-.005.322-.013.483A11.122,11.122,0,0,0,275.1,90.4Z" transform="translate(-224.212 -50.634)"/>
    </g>
  </g>
</svg>
