<svg xmlns="http://www.w3.org/2000/svg" xmlns:xlink="http://www.w3.org/1999/xlink" width="57.79" height="73" viewBox="0 0 57.79 73">
  <defs>
    <filter id="Rectángulo_409930" x="9" y="5" width="36" height="68" filterUnits="userSpaceOnUse">
      <feOffset dy="3" input="SourceAlpha"/>
      <feGaussianBlur stdDeviation="3" result="blur"/>
      <feFlood flood-opacity="0.161"/>
      <feComposite operator="in" in2="blur"/>
      <feComposite in="SourceGraphic"/>
    </filter>
    <filter id="Rectángulo_409931" x="0" y="0" width="36" height="73" filterUnits="userSpaceOnUse">
      <feOffset dy="3" input="SourceAlpha"/>
      <feGaussianBlur stdDeviation="3" result="blur-2"/>
      <feFlood flood-opacity="0.161"/>
      <feComposite operator="in" in2="blur-2"/>
      <feComposite in="SourceGraphic"/>
    </filter>
  </defs>
  <g id="Grupo_1174543" data-name="Grupo 1174543" transform="translate(-183 -1067)">
    <g transform="matrix(1, 0, 0, 1, 183, 1067)" filter="url(#Rectángulo_409930)">
      <rect id="Rectángulo_409930-2" data-name="Rectángulo 409930" width="18" height="50" transform="translate(18 11)" fill="#faf7df"/>
    </g>
    <g id="Grupo_1174542" data-name="Grupo 1174542">
      <g transform="matrix(1, 0, 0, 1, 183, 1067)" filter="url(#Rectángulo_409931)">
        <rect id="Rectángulo_409931-2" data-name="Rectángulo 409931" width="18" height="55" transform="translate(9 6)" fill="#f6efbf"/>
      </g>
      <g id="food_16214736" transform="translate(194.999 1082.209)">
        <path id="Trazado_897072" data-name="Trazado 897072" d="M12.155,47.075H10.724V39.72a11.566,11.566,0,0,0-5.1,2.9A7.942,7.942,0,0,0,5,43.312V56.376H17.886v-9.3Z" transform="translate(-1.422 -11.301)" fill="#636a74"/>
        <path id="Trazado_897073" data-name="Trazado 897073" d="M41.01,44.74V57.8h2.862V52.3A12.7,12.7,0,0,0,41.01,44.74Z" transform="translate(-11.668 -12.73)" fill="#e6ecf4"/>
        <path id="Trazado_897074" data-name="Trazado 897074" d="M28.731,47.075h1.431V39.72a11.566,11.566,0,0,1,5.1,2.9,7.942,7.942,0,0,1,.622.687V56.376H23v-9.3Z" transform="translate(-6.544 -11.301)" fill="#636a74"/>
        <path id="Trazado_897075" data-name="Trazado 897075" d="M35.909,15.7v6.847a3.884,3.884,0,0,1-3.885,3.885H30.65A12.06,12.06,0,0,0,33.1,18.921,13.35,13.35,0,0,0,32.525,15H35.88c.021.229.029.465.029.7Z" transform="translate(-8.72 -4.267)" fill="#ffbc1c"/>
        <path id="Trazado_897076" data-name="Trazado 897076" d="M32.878,4.234v6.783H20V1L31.09,2.231A2.014,2.014,0,0,1,32.878,4.234Z" transform="translate(-5.69 -0.284)" fill="#e6ecf4"/>
        <path id="Trazado_897077" data-name="Trazado 897077" d="M16.586,1V11.017H8V4.134A2.006,2.006,0,0,1,9.681,2.152Z" transform="translate(-2.276 -0.284)" fill="#d8e0eb"/>
        <path id="Trazado_897078" data-name="Trazado 897078" d="M13.316,26.433H11.885A3.884,3.884,0,0,1,8,22.548V15.7c0-.236.007-.472.029-.7h3.42a13.117,13.117,0,0,0-.587,3.921,12.06,12.06,0,0,0,2.454,7.512Z" transform="translate(-2.276 -4.267)" fill="#ffbc1c"/>
        <path id="Trazado_897079" data-name="Trazado 897079" d="M27.217,15a13.35,13.35,0,0,1,.58,3.921,12.06,12.06,0,0,1-2.454,7.512,8.109,8.109,0,0,1-1.9,1.753,6.242,6.242,0,0,1-7.155-.036,8,8,0,0,1-1.839-1.717A12.06,12.06,0,0,1,12,18.921,13.117,13.117,0,0,1,12.586,15Z" transform="translate(-3.413 -4.267)" fill="#efc5b8"/>
        <path id="Trazado_897080" data-name="Trazado 897080" d="M33.007,50a7.2,7.2,0,0,0,1.975,4.615,7.991,7.991,0,0,0,2.411,1.739A9.451,9.451,0,0,0,47.2,54.972a2.772,2.772,0,0,1,1.181-.63A1.107,1.107,0,0,1,48.6,54.3a4.17,4.17,0,0,1,1.367-.014,4.126,4.126,0,0,0,3.184-.83,3.057,3.057,0,0,0,.293-.265,3.386,3.386,0,0,0,1.016-2.433v2.211a3.476,3.476,0,0,1-1.009,2.411c-.114.107-.2.186-.3.265a4.11,4.11,0,0,1-3.177.816,4.211,4.211,0,0,0-1.374.014c-.072.007-.15.029-.222.036a3.081,3.081,0,0,0-1.181.63,9.745,9.745,0,0,1-6.11,2.161,8.807,8.807,0,0,1-3.706-.794,7.882,7.882,0,0,1-2.4-1.724A7.736,7.736,0,0,1,33,51.9c0-.007.007-.129.007-.279,0-.236-.007-.479-.007-.487V50Z" transform="translate(-9.389 -14.226)" fill="#f3445a"/>
        <path id="Trazado_897081" data-name="Trazado 897081" d="M55.7,48.014a1.131,1.131,0,0,1,.029.272,1.113,1.113,0,0,1-.329.8,1.28,1.28,0,0,1-.107.1,1.673,1.673,0,0,1-1.073.358,2.122,2.122,0,0,1-.3-.021,6.765,6.765,0,0,0-1.009-.072,7.129,7.129,0,0,0-1.166.1,3.64,3.64,0,0,0-.365.072,5.309,5.309,0,0,0-2.239,1.159,7.159,7.159,0,0,1-1.853,1.109c-.758-1.71-1.531-3.427-2.289-5.137.859-1.882,1.731-3.763,2.59-5.645A9.637,9.637,0,0,1,53.1,43.521a8.506,8.506,0,0,1,2.6,4.493Z" transform="translate(-12.804 -11.697)" fill="#f3445a"/>
        <path id="Trazado_897082" data-name="Trazado 897082" d="M43.849,41.007a9.318,9.318,0,0,1,1.181.072c-.859,1.882-1.731,3.763-2.59,5.645-2.075.63-4.143,1.252-6.217,1.882A5.156,5.156,0,0,1,36,47.124,5.437,5.437,0,0,1,37.252,43.7,7.041,7.041,0,0,1,38.4,42.581,8.047,8.047,0,0,1,43.233,41c.107,0,.365.007.365.007Z" transform="translate(-10.243 -11.665)" fill="#ff7885"/>
        <path id="Trazado_897083" data-name="Trazado 897083" d="M44.817,54.137a7.281,7.281,0,0,1-2.855.587,6.517,6.517,0,0,1-2.755-.594,5.754,5.754,0,0,1-1.739-1.266,5.157,5.157,0,0,1-1.159-1.982c2.075-.63,4.143-1.252,6.217-1.882.758,1.71,1.531,3.427,2.289,5.137Z" transform="translate(-10.331 -13.942)" fill="#e2394d"/>
        <path id="Trazado_897084" data-name="Trazado 897084" d="M25.155,33.416V37.4c-.014.05-.021.1-.036.143a3.671,3.671,0,0,1-7.083,0c-.014-.043-.021-.093-.036-.143V33.38a6.242,6.242,0,0,0,7.155.036Z" transform="translate(-5.121 -9.497)" fill="#e5b6a9"/>
        <path id="Trazado_897085" data-name="Trazado 897085" d="M30.157,39.479v.007C28.719,41,27.3,42.5,25.865,44.008L23.01,41.848a3.6,3.6,0,0,0,3.534-2.7c.014-.043.021-.093.036-.143A13.78,13.78,0,0,1,30.157,39.479Z" transform="translate(-6.547 -11.096)" fill="#636a74"/>
        <path id="Trazado_897086" data-name="Trazado 897086" d="M20.176,41.848l-2.869,2.161c-1.424-1.5-2.833-3-4.257-4.5A13.413,13.413,0,0,1,16.592,39c.014.05.021.1.036.143a3.615,3.615,0,0,0,3.549,2.7Z" transform="translate(-3.713 -11.096)" fill="#636a74"/>
        <path id="Trazado_897087" data-name="Trazado 897087" d="M52.318,47.4a1.131,1.131,0,0,0-.029-.272,8.506,8.506,0,0,0-2.6-4.493,9.637,9.637,0,0,0-5.509-2.411A9.319,9.319,0,0,0,43,40.153h-.25s-.258-.007-.365-.007a8.047,8.047,0,0,0-4.837,1.581A7.041,7.041,0,0,0,36.4,42.843a5.437,5.437,0,0,0-1.252,3.427,5.019,5.019,0,0,0,1.381,3.463A5.754,5.754,0,0,0,38.266,51a6.517,6.517,0,0,0,2.755.594,7.281,7.281,0,0,0,2.855-.587A7.159,7.159,0,0,0,45.728,49.9a5.309,5.309,0,0,1,2.239-1.159,3.64,3.64,0,0,1,.365-.072,7.13,7.13,0,0,1,1.166-.1,6.765,6.765,0,0,1,1.009.072,2.122,2.122,0,0,0,.3.021,1.673,1.673,0,0,0,1.073-.358,1.281,1.281,0,0,0,.107-.1,1.113,1.113,0,0,0,.329-.8ZM33,46.256a7.548,7.548,0,0,1,1.753-4.786,8.665,8.665,0,0,1,1.073-1.1c.136-.122.279-.236.429-.351a10.332,10.332,0,0,1,6.539-2.01,12.256,12.256,0,0,1,8.335,3.012,10.526,10.526,0,0,1,3.248,5.559,3.44,3.44,0,0,1,.086.766,3.386,3.386,0,0,1-1.016,2.433,3.056,3.056,0,0,1-.293.265,4.126,4.126,0,0,1-3.184.83,4.17,4.17,0,0,0-1.367.014,1.107,1.107,0,0,0-.222.043,2.772,2.772,0,0,0-1.181.63,9.451,9.451,0,0,1-9.809,1.381A7.991,7.991,0,0,1,34.982,51.2a7.2,7.2,0,0,1-1.975-4.615C33,46.492,33,46.406,33,46.313Z" transform="translate(-9.389 -10.811)" fill="#ff5666"/>
        <g id="Grupo_1109745" data-name="Grupo 1109745" transform="translate(0.716 28.39)">
          <path id="Trazado_897088" data-name="Trazado 897088" d="M27.309,46.792v.272H13V39.709a.064.064,0,0,1,.036-.007c1.424,1.5,2.833,3,4.257,4.5l2.869-2.161L23.017,44.2c1.431-1.51,2.855-3.012,4.293-4.522Z" transform="translate(-4.414 -39.68)" fill="#e6ecf4"/>
          <path id="Trazado_897089" data-name="Trazado 897089" d="M3.862,44.74V57.8H1V52.3A12.7,12.7,0,0,1,3.862,44.74Z" transform="translate(-1 -41.12)" fill="#e6ecf4"/>
          <path id="Trazado_897090" data-name="Trazado 897090" d="M9,54h7.155v5.008H9Z" transform="translate(-3.276 -43.755)" fill="#e6ecf4"/>
        </g>
        <path id="Trazado_897091" data-name="Trazado 897091" d="M29.179,11.447H7.715A.715.715,0,0,1,7,10.731V3.85A2.721,2.721,0,0,1,9.279,1.159L16.168.012a.746.746,0,0,1,.2-.01l.015,0L27.468,1.235a2.726,2.726,0,0,1,2.427,2.712v6.784a.715.715,0,0,1-.715.715ZM17.017,10.016H28.464V3.947A1.3,1.3,0,0,0,27.31,2.658L17.017,1.514Zm-8.586,0h7.155V1.559L9.515,2.57A1.294,1.294,0,0,0,8.431,3.85Z" transform="translate(-1.991 0.001)"/>
        <path id="Trazado_897092" data-name="Trazado 897092" d="M13.031,26.864H11.6a4.606,4.606,0,0,1-4.6-4.6V15.416c0-.259.008-.517.032-.768a.715.715,0,1,1,1.424.134c-.02.207-.025.42-.025.634v6.847A3.173,3.173,0,0,0,11.6,25.433h1.431a.715.715,0,0,1,0,1.431Z" transform="translate(-1.991 -3.983)"/>
        <path id="Trazado_897093" data-name="Trazado 897093" d="M31.738,26.864H30.365a.715.715,0,1,1,0-1.431h1.374a3.173,3.173,0,0,0,3.17-3.169V15.416c0-.214-.007-.428-.026-.636a.716.716,0,0,1,1.425-.13c.023.25.031.508.031.766v6.847A4.606,4.606,0,0,1,31.738,26.864Z" transform="translate(-8.436 -3.983)"/>
        <path id="Trazado_897094" data-name="Trazado 897094" d="M19.613,29.725A7.007,7.007,0,0,1,15.6,28.457a8.7,8.7,0,0,1-2-1.865A12.7,12.7,0,0,1,11,18.636a13.806,13.806,0,0,1,.619-4.134.715.715,0,0,1,1.365.428,12.4,12.4,0,0,0-.553,3.707,11.433,11.433,0,0,0,2.3,7.065A7.291,7.291,0,0,0,16.4,27.269a5.543,5.543,0,0,0,6.36.038A7.383,7.383,0,0,0,24.5,25.7a11.434,11.434,0,0,0,2.3-7.067,12.573,12.573,0,0,0-.548-3.709.716.716,0,0,1,1.368-.422,14.039,14.039,0,0,1,.611,4.131,12.71,12.71,0,0,1-2.612,7.96,8.785,8.785,0,0,1-2.063,1.9,7.069,7.069,0,0,1-3.94,1.226Z" transform="translate(-3.128 -3.983)"/>
        <path id="Trazado_897095" data-name="Trazado 897095" d="M21.28,40.681a4.33,4.33,0,0,1-4.219-3.233,1.038,1.038,0,0,1-.029-.113A1.43,1.43,0,0,1,17,37.118V33.1a.715.715,0,1,1,1.431,0v3.936a2.93,2.93,0,0,0,2.853,2.217H21.3a2.876,2.876,0,0,0,2.846-2.175l.012-.046v-3.9a.715.715,0,0,1,1.431,0v3.985a.721.721,0,0,1-.029.2,1.4,1.4,0,0,1-.047.175,4.308,4.308,0,0,1-4.21,3.187Z" transform="translate(-4.837 -9.213)"/>
        <path id="Trazado_897096" data-name="Trazado 897096" d="M17.021,44.631a.712.712,0,0,1-.519-.224L12.237,39.9a.715.715,0,1,1,1.038-.984L17.1,42.96l2.358-1.776a.717.717,0,0,1,.862,0l2.344,1.774,3.853-4.064a.715.715,0,0,1,1.038.984l-4.293,4.53a.715.715,0,0,1-.951.078l-2.424-1.835-2.437,1.836a.714.714,0,0,1-.43.144Z" transform="translate(-3.426 -11.003)"/>
        <path id="Trazado_897097" data-name="Trazado 897097" d="M.715,56.6A.715.715,0,0,1,0,55.885v-4.64c0-.513,0-.771,0-.866a13.255,13.255,0,0,1,3.7-8.752A13.356,13.356,0,0,1,12.874,38h0a.715.715,0,1,1,0,1.431A11.912,11.912,0,0,0,4.7,42.642a11.822,11.822,0,0,0-3.273,7.749c0,.1,0,.349,0,.852v4.641a.715.715,0,0,1-.715.715Z" transform="translate(0.001 -10.812)"/>
        <path id="Trazado_897098" data-name="Trazado 897098" d="M27.033,47.507H12.716A.715.715,0,0,1,12,46.792V39.437a.715.715,0,1,1,1.431,0v6.639H27.026a.715.715,0,1,1,.007,1.431Z" transform="translate(-3.414 -11.017)"/>
        <path id="Trazado_897099" data-name="Trazado 897099" d="M32.716,47.494A.715.715,0,0,1,32,46.779V39.4a.715.715,0,1,1,1.431-.008v7.391a.715.715,0,0,1-.715.715Z" transform="translate(-9.105 -11.004)"/>
        <path id="Trazado_897100" data-name="Trazado 897100" d="M40.8,54.17a9.423,9.423,0,0,1-4-.868,8.611,8.611,0,0,1-2.627-1.9A7.9,7.9,0,0,1,32,45.974h0a8.3,8.3,0,0,1,1.912-5.244,9.822,9.822,0,0,1,1.628-1.566,11.044,11.044,0,0,1,7-2.153A12.967,12.967,0,0,1,51.323,40.2a11.245,11.245,0,0,1,3.471,5.942,4.264,4.264,0,0,1,.1.917A4.119,4.119,0,0,1,53.67,50a4.572,4.572,0,0,1-.349.314,4.812,4.812,0,0,1-3.735.977,3.794,3.794,0,0,0-1.149.013c-.063.01-.126.023-.187.036a2.194,2.194,0,0,0-.88.483A10.394,10.394,0,0,1,40.8,54.17Zm1.362-15.737A9.583,9.583,0,0,0,36.408,40.3a8.319,8.319,0,0,0-1.39,1.336,6.86,6.86,0,0,0-1.586,4.335,6.468,6.468,0,0,0,1.785,4.451,7.172,7.172,0,0,0,2.193,1.582,8.708,8.708,0,0,0,9.051-1.286,3.586,3.586,0,0,1,1.485-.778c.085-.018.168-.035.254-.05a5.207,5.207,0,0,1,1.59-.017,3.387,3.387,0,0,0,2.631-.673,3.2,3.2,0,0,0,.242-.219,2.7,2.7,0,0,0,.8-1.924,2.821,2.821,0,0,0-.066-.607,9.824,9.824,0,0,0-3.032-5.189,11.553,11.553,0,0,0-7.843-2.824c-.1,0-.223-.007-.355-.007Z" transform="translate(-9.105 -10.527)"/>
        <path id="Trazado_897101" data-name="Trazado 897101" d="M41.589,52.879a7.2,7.2,0,0,1-3.062-.665,6.416,6.416,0,0,1-1.952-1.421A5.771,5.771,0,0,1,35,46.841a6.182,6.182,0,0,1,1.411-3.884,7.69,7.69,0,0,1,1.265-1.225A8.739,8.739,0,0,1,42.952,40c.113,0,.384.009.384.009l.221,0a10.678,10.678,0,0,1,7.18,2.67,9.243,9.243,0,0,1,2.821,4.869,2.09,2.09,0,0,1,.045.423,1.839,1.839,0,0,1-.539,1.31,1.678,1.678,0,0,1-.167.154,2.48,2.48,0,0,1-1.921.486,6.253,6.253,0,0,0-1.954.022c-.1.017-.215.038-.321.063a4.645,4.645,0,0,0-1.945,1.012,8.209,8.209,0,0,1-5.167,1.864Zm1.363-11.447a7.3,7.3,0,0,0-4.4,1.435,6.254,6.254,0,0,0-1.028,1,4.744,4.744,0,0,0-1.089,2.979,4.347,4.347,0,0,0,1.186,2.975,4.977,4.977,0,0,0,1.518,1.1,5.762,5.762,0,0,0,2.451.528,6.754,6.754,0,0,0,4.252-1.534,6.052,6.052,0,0,1,2.542-1.307c.129-.03.27-.057.4-.079a7.644,7.644,0,0,1,2.4-.027A1.055,1.055,0,0,0,52,48.321l.057-.055a.4.4,0,0,0,.12-.3.635.635,0,0,0-.013-.123,7.816,7.816,0,0,0-2.386-4.112,9.244,9.244,0,0,0-6.207-2.3l-.245,0c-.035,0-.27-.008-.37-.008Z" transform="translate(-9.959 -11.381)"/>
        <path id="Trazado_897102" data-name="Trazado 897102" d="M36.026,49.069a.716.716,0,0,1-.208-1.4l5.91-1.789q.577-1.265,1.161-2.53.649-1.411,1.294-2.821a.716.716,0,0,1,1.3.594q-.645,1.413-1.3,2.825t-1.294,2.82a.718.718,0,0,1-.443.388l-6.218,1.882A.723.723,0,0,1,36.026,49.069Z" transform="translate(-10.046 -11.412)"/>
        <path id="Trazado_897103" data-name="Trazado 897103" d="M47.007,54.569a.715.715,0,0,1-.655-.426q-.551-1.243-1.11-2.489-.592-1.326-1.18-2.649a.715.715,0,1,1,1.308-.58q.586,1.321,1.179,2.645.558,1.247,1.111,2.493a.716.716,0,0,1-.653,1.005Z" transform="translate(-12.519 -13.657)"/>
        <path id="Trazado_897104" data-name="Trazado 897104" d="M40.806,59.623a9.5,9.5,0,0,1-4-.86A8.128,8.128,0,0,1,32,51.5l0-.281c0-.2,0-.421,0-.455V49.34a.715.715,0,0,1,1.431,0v1.393c0,.012.006.26,0,.493l0,.265A7.02,7.02,0,0,0,35.22,55.9a7.1,7.1,0,0,0,2.186,1.562A8.788,8.788,0,0,0,46.463,56.2a3.665,3.665,0,0,1,1.479-.771l.109-.021c.055-.011.11-.022.166-.03a5.019,5.019,0,0,1,1.581-.012,3.4,3.4,0,0,0,2.626-.669c.084-.067.157-.133.248-.217a2.758,2.758,0,0,0,.791-1.919c0-.046,0-.3,0-.764l0-1.522a.715.715,0,1,1,1.431,0l0,1.52c0,.822,0,.822-.006.875a4.138,4.138,0,0,1-1.237,2.852c-.137.125-.233.212-.337.294a4.861,4.861,0,0,1-3.725.966,3.623,3.623,0,0,0-1.149.009l-.219.04a2.3,2.3,0,0,0-.855.478,10.466,10.466,0,0,1-6.561,2.318Z" transform="translate(-9.105 -13.835)"/>
        <path id="Trazado_897105" data-name="Trazado 897105" d="M34.119,41.085a.712.712,0,0,1-.358-.1,10.9,10.9,0,0,0-1.98-.893l-.05-.019a13.191,13.191,0,0,0-4.014-.645.715.715,0,1,1,0-1.431,14.425,14.425,0,0,1,4.505.732l.055.021a12.278,12.278,0,0,1,2.2,1,.716.716,0,0,1-.36,1.335Z" transform="translate(-7.682 -10.812)"/>
        <path id="Trazado_897106" data-name="Trazado 897106" d="M4.716,58.236A.715.715,0,0,1,4,57.521V44.457a.715.715,0,1,1,1.431,0V57.521a.715.715,0,0,1-.715.715Z" transform="translate(-1.138 -12.445)"/>
        <path id="Trazado_897107" data-name="Trazado 897107" d="M15.871,59.44H8.716A.715.715,0,0,1,8,58.725V53.716A.715.715,0,0,1,8.716,53h7.155a.715.715,0,0,1,.715.715v5.008a.715.715,0,0,1-.715.715ZM9.432,58.009h5.724V54.432H9.432Z" transform="translate(-2.276 -15.08)"/>
      </g>
    </g>
  </g>
</svg>
