<svg xmlns="http://www.w3.org/2000/svg" width="54.357" height="51.842" viewBox="0 0 54.357 51.842">
  <g id="meat_5617033" transform="translate(-0.008 -1.997)">
    <path id="Trazado_982551" data-name="Trazado 982551" d="M3.055,35.418c.258.371.518.739.778,1.108.667.944,1.358,1.921,1.992,2.91a17.539,17.539,0,0,0,5.2,5.216c4.373,2.826,8.236,2.6,12.911-.765,2.589-1.862,5.077-3.052,9.286,1.3l.332.343c2.374,2.454,4.615,4.772,6.4,6.269a8.008,8.008,0,0,0,9.479.884A10.492,10.492,0,0,0,54.184,41.67c-.388-2.169-.857-4.357-1.394-6.5-.006-.025-.024-.042-.031-.066C51.626,29.846,47,12.657,34,5.215,27.561,1.534,20.266,1.009,12.311,3.65,4.8,6.146,1.9,11.315.781,15.212a19.417,19.417,0,0,0-.705,6.095c0,.013-.009.024-.01.037-.342,5.363.859,11.019,2.989,14.074ZM2.416,15.68c1-3.5,3.623-8.155,10.431-10.417,7.477-2.486,14.308-2,20.3,1.427,12.472,7.136,16.906,23.9,17.968,28.865a6.327,6.327,0,0,1-2.838,6.68,7.148,7.148,0,0,1-8.1-.089,19.968,19.968,0,0,1-2.691-2.485c-.8-.826-1.706-1.763-2.79-2.7-2.319-2.01-4.289-2.8-6.128-2.8a9.286,9.286,0,0,0-4.782,1.594,12.512,12.512,0,0,1-12.34.574A13.945,13.945,0,0,1,7,32.588c-.631-.824-1.3-1.623-1.955-2.4l-.727-.867C2.2,26.771.9,20.968,2.416,15.68Zm.6,14.733.733.874c.638.757,1.3,1.54,1.9,2.333a15.642,15.642,0,0,0,4.988,4.2,14.212,14.212,0,0,0,14.028-.612c2.954-1.782,5.251-2.145,8.918,1.035,1.028.891,1.869,1.76,2.682,2.6A21.6,21.6,0,0,0,39.2,43.535a8.806,8.806,0,0,0,5.078,1.614,8.939,8.939,0,0,0,4.937-1.5,8.4,8.4,0,0,0,2.965-3.35c.11.556.229,1.113.328,1.667a8.774,8.774,0,0,1-3.932,9.245,6.368,6.368,0,0,1-7.534-.716c-1.717-1.44-3.928-3.726-6.27-6.148l-.332-.343c-4.625-4.784-7.942-4.057-11.5-1.5-4.125,2.964-7.208,3.166-11,.717a15.82,15.82,0,0,1-4.692-4.706C6.6,37.5,5.9,36.5,5.221,35.544c-.258-.365-.516-.73-.772-1.1a15.036,15.036,0,0,1-1.98-4.783,8.59,8.59,0,0,0,.546.75Z" transform="translate(0 0)" fill="#8f6c69"/>
    <path id="Trazado_982552" data-name="Trazado 982552" d="M16.082,34.745a13.067,13.067,0,0,0,5.857,1.791,5.182,5.182,0,0,0,2.3-.491c1.48-.721,2.43-2.188,2.826-4.364.175-.958.584-3.2-.855-4.923-1.123-1.345-3.117-2.028-5.928-2.028h0A5.131,5.131,0,0,1,15.958,22.5a.85.85,0,1,0-1.326,1.064,6.9,6.9,0,0,0,5.641,2.863h.005c2.283,0,3.838.477,4.622,1.417a4.21,4.21,0,0,1,.488,3.53,4.007,4.007,0,0,1-1.9,3.138c-1.805.878-4.594-.21-6.615-1.276-2.97-1.566-8.538-5.942-9.062-9.084-.381-2.284.17-3.762,1.683-4.518,1.556-.777,2.258-.245,3.34,1.329a.85.85,0,1,0,1.4-.961c-.828-1.208-2.369-3.454-5.5-1.889-1.538.769-3.238,2.491-2.6,6.318.654,3.924,6.8,8.652,9.945,10.311Z" transform="translate(-0.9 -2.34)" fill="#8f6c69"/>
    <path id="Trazado_982553" data-name="Trazado 982553" d="M18.36,17.226c2.052,1.505,3.947.971,5.47.54,2.133-.6,3.674-1.037,5.769,3.99a3.636,3.636,0,0,0,3.483,2.3,5.073,5.073,0,0,0,1.4-.207,6.1,6.1,0,0,0,4.384-6.814,7.422,7.422,0,0,0-2.334-3.86A.85.85,0,0,0,35.34,14.39a5.937,5.937,0,0,1,1.853,2.93,4.4,4.4,0,0,1-3.177,4.9A2.192,2.192,0,0,1,31.167,21.1c-2.477-5.946-4.895-5.791-7.8-4.971-1.4.4-2.619.738-4-.275a4.751,4.751,0,0,1-1.095-1.164,4.516,4.516,0,0,1-.954-3.173,3.451,3.451,0,0,1,1.64-2.129c3.019-2.013,9.91.124,14.448,3.386A.85.85,0,0,0,34.4,11.4C29.309,7.738,21.786,5.46,18.014,7.976a5.061,5.061,0,0,0-2.365,3.218,5.907,5.907,0,0,0,1.219,4.456,6.409,6.409,0,0,0,1.492,1.576Z" transform="translate(-2.337 -0.738)" fill="#8f6c69"/>
    <path id="Trazado_982554" data-name="Trazado 982554" d="M38.49,30a8.015,8.015,0,0,0-2.152.727,1.892,1.892,0,0,0-1.212,1.632c-.048,1.174,1.12,2.442,3.676,3.991a23.861,23.861,0,0,1,5.152,4.319l.318.349c1.213,1.338,2.979,3.288,5.34,3.287a4.366,4.366,0,0,0,.869-.088c2.054-.41,2.96-3.387,2.487-8.167-.537-5.424-3.034-13.062-6.9-13.062-2.372,0-3.927,1.434-4.379,4.037A3.791,3.791,0,0,1,38.49,30Zm4.871-2.681c.409-2.357,1.74-2.629,2.7-2.629,2.13,0,4.614,5.5,5.212,11.529.389,3.931-.274,6.162-1.129,6.333-1.851.369-3.452-1.389-4.617-2.675l-.329-.36a25.485,25.485,0,0,0-5.519-4.62c-2.78-1.683-2.859-2.449-2.865-2.449a.679.679,0,0,1,.278-.2,6.338,6.338,0,0,1,1.7-.576h0A5.469,5.469,0,0,0,43.361,27.324Z" transform="translate(-5.274 -3.154)" fill="#8f6c69"/>
  </g>
</svg>
